<mxfile host="Electron" modified="2023-05-16T20:47:06.846Z" agent="Mozilla/5.0 (Windows NT 10.0; Win64; x64) AppleWebKit/537.36 (KHTML, like Gecko) draw.io/21.2.8 Chrome/112.0.5615.165 Electron/24.2.0 Safari/537.36" etag="gkRFv6cfhnS0_e60-AGG" version="21.2.8" type="device">
  <diagram name="Page-1" id="lNbcjVEl79bri4AhqJI_">
    <mxGraphModel dx="875" dy="518" grid="1" gridSize="10" guides="1" tooltips="1" connect="1" arrows="1" fold="1" page="1" pageScale="1" pageWidth="850" pageHeight="1100" math="0" shadow="0">
      <root>
        <mxCell id="0" />
        <mxCell id="1" parent="0" />
        <mxCell id="_9ytcTvXh2DqXDjizTvg-18" value="" style="rounded=0;whiteSpace=wrap;html=1;fontFamily=Bahnschrift;fillColor=#EFF4FC;strokeColor=#6c8ebf;" vertex="1" parent="1">
          <mxGeometry x="195" y="520" width="285" height="240" as="geometry" />
        </mxCell>
        <mxCell id="_9ytcTvXh2DqXDjizTvg-51" style="edgeStyle=orthogonalEdgeStyle;rounded=0;orthogonalLoop=1;jettySize=auto;html=1;exitX=1;exitY=0.5;exitDx=0;exitDy=0;entryX=0;entryY=0.5;entryDx=0;entryDy=0;" edge="1" parent="1" source="_9ytcTvXh2DqXDjizTvg-19" target="_9ytcTvXh2DqXDjizTvg-25">
          <mxGeometry relative="1" as="geometry" />
        </mxCell>
        <mxCell id="_9ytcTvXh2DqXDjizTvg-19" value="UNet&lt;br&gt;Fully Convolutional Network" style="rounded=1;whiteSpace=wrap;html=1;fontFamily=Bahnschrift;" vertex="1" parent="1">
          <mxGeometry x="206.25" y="706" width="175" height="45" as="geometry" />
        </mxCell>
        <mxCell id="_9ytcTvXh2DqXDjizTvg-61" style="edgeStyle=orthogonalEdgeStyle;rounded=0;orthogonalLoop=1;jettySize=auto;html=1;exitX=0.5;exitY=1;exitDx=0;exitDy=0;entryX=0.5;entryY=0;entryDx=0;entryDy=0;curved=1;" edge="1" parent="1" source="_9ytcTvXh2DqXDjizTvg-21" target="_9ytcTvXh2DqXDjizTvg-59">
          <mxGeometry relative="1" as="geometry" />
        </mxCell>
        <mxCell id="_9ytcTvXh2DqXDjizTvg-21" value="STFT" style="rounded=1;whiteSpace=wrap;html=1;fontFamily=Bahnschrift;" vertex="1" parent="1">
          <mxGeometry x="250" y="589" width="75" height="30" as="geometry" />
        </mxCell>
        <mxCell id="_9ytcTvXh2DqXDjizTvg-33" style="edgeStyle=orthogonalEdgeStyle;rounded=0;orthogonalLoop=1;jettySize=auto;html=1;exitX=1;exitY=0.5;exitDx=0;exitDy=0;fontFamily=Bahnschrift;" edge="1" parent="1" source="_9ytcTvXh2DqXDjizTvg-23" target="_9ytcTvXh2DqXDjizTvg-18">
          <mxGeometry relative="1" as="geometry" />
        </mxCell>
        <mxCell id="_9ytcTvXh2DqXDjizTvg-23" value="Noisy wavefile&lt;br&gt;(.wav)" style="rounded=1;whiteSpace=wrap;html=1;fontFamily=Bahnschrift;" vertex="1" parent="1">
          <mxGeometry x="40" y="620" width="130" height="40" as="geometry" />
        </mxCell>
        <mxCell id="_9ytcTvXh2DqXDjizTvg-62" style="edgeStyle=orthogonalEdgeStyle;rounded=0;orthogonalLoop=1;jettySize=auto;html=1;exitX=0.5;exitY=1;exitDx=0;exitDy=0;curved=1;" edge="1" parent="1" source="_9ytcTvXh2DqXDjizTvg-24" target="_9ytcTvXh2DqXDjizTvg-59">
          <mxGeometry relative="1" as="geometry" />
        </mxCell>
        <mxCell id="_9ytcTvXh2DqXDjizTvg-24" value="STFT" style="rounded=1;whiteSpace=wrap;html=1;fontFamily=Bahnschrift;" vertex="1" parent="1">
          <mxGeometry x="350" y="589" width="75" height="30" as="geometry" />
        </mxCell>
        <mxCell id="_9ytcTvXh2DqXDjizTvg-37" style="edgeStyle=orthogonalEdgeStyle;rounded=0;orthogonalLoop=1;jettySize=auto;html=1;exitX=1;exitY=0.5;exitDx=0;exitDy=0;entryX=0;entryY=0.5;entryDx=0;entryDy=0;fontFamily=Bahnschrift;" edge="1" parent="1" source="_9ytcTvXh2DqXDjizTvg-25" target="_9ytcTvXh2DqXDjizTvg-27">
          <mxGeometry relative="1" as="geometry" />
        </mxCell>
        <mxCell id="_9ytcTvXh2DqXDjizTvg-25" value="iSTFT" style="rounded=1;whiteSpace=wrap;html=1;fontFamily=Bahnschrift;" vertex="1" parent="1">
          <mxGeometry x="393.75" y="713.5" width="75" height="30" as="geometry" />
        </mxCell>
        <mxCell id="_9ytcTvXh2DqXDjizTvg-27" value="Denoised wavefile&lt;br&gt;(.wav)" style="rounded=1;whiteSpace=wrap;html=1;fontFamily=Bahnschrift;" vertex="1" parent="1">
          <mxGeometry x="520" y="620" width="130" height="40" as="geometry" />
        </mxCell>
        <mxCell id="_9ytcTvXh2DqXDjizTvg-41" style="edgeStyle=orthogonalEdgeStyle;rounded=0;orthogonalLoop=1;jettySize=auto;html=1;exitX=0.5;exitY=1;exitDx=0;exitDy=0;entryX=0.5;entryY=0;entryDx=0;entryDy=0;curved=1;fontFamily=Bahnschrift;" edge="1" parent="1" source="_9ytcTvXh2DqXDjizTvg-29" target="_9ytcTvXh2DqXDjizTvg-24">
          <mxGeometry relative="1" as="geometry" />
        </mxCell>
        <mxCell id="_9ytcTvXh2DqXDjizTvg-29" value="Corrupted wavefile&lt;br&gt;(.wav)" style="rounded=1;whiteSpace=wrap;html=1;fontFamily=Bahnschrift;" vertex="1" parent="1">
          <mxGeometry x="350" y="530" width="118.75" height="40" as="geometry" />
        </mxCell>
        <mxCell id="_9ytcTvXh2DqXDjizTvg-32" style="edgeStyle=orthogonalEdgeStyle;rounded=0;orthogonalLoop=1;jettySize=auto;html=1;exitX=1;exitY=0.5;exitDx=0;exitDy=0;fontFamily=Bahnschrift;" edge="1" parent="1" source="_9ytcTvXh2DqXDjizTvg-30" target="_9ytcTvXh2DqXDjizTvg-29">
          <mxGeometry relative="1" as="geometry" />
        </mxCell>
        <mxCell id="_9ytcTvXh2DqXDjizTvg-40" style="edgeStyle=orthogonalEdgeStyle;rounded=0;orthogonalLoop=1;jettySize=auto;html=1;exitX=0.5;exitY=1;exitDx=0;exitDy=0;entryX=0.5;entryY=0;entryDx=0;entryDy=0;curved=1;fontFamily=Bahnschrift;" edge="1" parent="1" source="_9ytcTvXh2DqXDjizTvg-30" target="_9ytcTvXh2DqXDjizTvg-21">
          <mxGeometry relative="1" as="geometry" />
        </mxCell>
        <mxCell id="_9ytcTvXh2DqXDjizTvg-30" value="Corrupted wavefile&lt;br&gt;(.wav)" style="rounded=1;whiteSpace=wrap;html=1;fontFamily=Bahnschrift;" vertex="1" parent="1">
          <mxGeometry x="206.25" y="530" width="118.75" height="40" as="geometry" />
        </mxCell>
        <mxCell id="_9ytcTvXh2DqXDjizTvg-38" value="Proposed Model" style="rounded=0;whiteSpace=wrap;html=1;fontFamily=Bahnschrift;fontStyle=1;fillColor=#E8EFFC;strokeColor=#6c8ebf;" vertex="1" parent="1">
          <mxGeometry x="195" y="490" width="285" height="30" as="geometry" />
        </mxCell>
        <mxCell id="_9ytcTvXh2DqXDjizTvg-49" value="" style="shape=image;verticalLabelPosition=bottom;labelBackgroundColor=default;verticalAlign=top;aspect=fixed;imageAspect=0;image=data:image/png,iVBORw0KGgoAAAANSUhEUgAAAk8AAAFoCAYAAABOhh99AAAAAXNSR0IArs4c6QAAAARnQU1BAACxjwv8YQUAAAAJcEhZcwAAEnQAABJ0Ad5mH3gAAOEvSURBVHhe7N139H5ZVR/+h2B+iQ1p0kRU2gjM0Nsw9Db05tCEATXCSlCjyxTNkiSs/JOVGFdiliaWhBqlQxCGDkpv0puI9I5UATVF85vX/c77O3sO9z7t83w+n+d5Pue91l733tPPPmfvs0+5917q/12IWUdHR0dHR0dHx1LoxlNHR0dHx4nC2LB3qUtd6qK7jo7F6MZTxyh0i7/9278dVSjcxtyFT5xKMNXNxtLp6OjoWBfRXa4oOqa9wpT+6XqpYxH+zkXXjhMOSub//t//O/s//+f/DIoniEEUgiileeAv/N/8zd8M1NHR0XEUYPhU42dKV3UDqeMg6CtPHQP++q//eiAG1Pd8z/fM/v7f//uDu2cEl770pWd/9+/+3dNGVEWrrGI4uf6dv/N3Zv/f//f/XeR7SXQF1tHRcVjI8DZPz4wNgV0vdSxCN55OOP7X//pfs29+85uz7/zO75x9x3d8x2DwMHZQjKYoEl0FCce/QhiGEnIfil8bPkiYjo6Ojk2AjoouyvDW6qSgPk/dd3SMoW/bnXAwlv7qr/7q9OoQw4jCsX3Hz31VOtmCi1v1i9KKwpKm1SrU0dHRcZiI/mlpzJ1baAxT7h0dQV95OuFgDDGUsk33F3/xF4MxZHsuW23pIq2x1EK4UIvEaeNOpdXR0dGxLuigGEkwpbcW6Z+unzqm0I2nEwrNTjHYmrN1x1iC//2///fplaK//Mu/nH31q1+dffnLXx7I9h5Dy+qUbb7LXvaysytc4Qqz7/u+7xsMrb/39/7eYITVLToKTD7itIqoK6aOjo5NoRpLkPusNtE3iH4KcQ+m9FHXUx1j6MbTCURtcsaTbTsKgnuMqa9//euzT3/607NPfvKTA33iE5+YfelLX5p961vfGgyly13ucrOrXe1qs2tc4xqzq171qsMh8+///u+fXelKVxqMKYZUlJNre2C8K6SOjo5Nge6yih4jqYJ7jhvQRSaHObcpvLjiJF50YdB1VccYuvF0wpDmjoKIYvHMYPrwhz88++M//uPZO97xjtkHP/jBYRvPahQDy5VxxRAKUURWmxhMZ5555uwWt7jFQFe/+tVn3/u933s6r3ruqSujjo6OdVD1V8AtkzSIQZSwQfyj+wLuXSd1rIpuPJ0gtE3NaGIM2YpjNL33ve8dDCdG00c/+tHZF77whWEVqs7OGEFRNvVqJmcF6prXvObsBje4weyss84ajKkf+qEfGrb3gq6kOjo61gVdRF/RI44aRJ9U4ymTvEwKIfqrQnhpRKd1dKyCbjydEKSZKRD3MZy+8Y1vDOeanve8581e9rKXzd70pjedPvdEsVBUwgEFY5UpSonBlO0556OsTlFiVpysPt3rXvea3f3ud59d5zrXGcK1yqujo6NjFdAvjg7QJc5dZkWbTkP0FZ1GH5n4xR2JK150G13muIEVdLqsQrhQR8cYuvF0gpCmjuHk+ra3vW32lKc8ZVh5cq7pc5/73ODOIKJQ3KMgBpQrRSXNhKWchKVwLn/5yw+rTje72c1md7rTnWb3u9/9vk1BdXR0dKwC+oZRROfkHCU95AO/n/3sZ2ef+tSnBj328Y9/fDiz6SgCXSc8+q7v+q5BN135ylee/cAP/MDsWte61nB204svjDFpThlM8u7GVEfQjac9Q5rTlTEDlEZA+K0QWW16//vfP3vlK185e8YznjHM1Cggq06JJ6z7PAeMJ7M3SouxJK+sLCVfeXKjmM4555zZwx/+8NkZZ5wxHCgXhyEljRhm4qac4ntGHR0d+4+qYxbJfnSOMPSYCZ9jBn/6p396+rjBZz7zmcH9a1/72ml9IzwDyfnMK17xirOrXOUqwwsvyEQPMai8+EIXKRPDK3GTZ8rGH/VJ4clEN572DIQ5BkxWhjJDA8vVFM6f/MmfzH71V3919rrXvW74BAG0ikF81xbCUC6UBv8QcM85AnlTPpTUzW9+89lP//RPz25729sOM0fL5YwrBptwwteZpOcYUx0dHfuL6InokEysKoSB6Cfh6Q4TwDe+8Y2zF7/4xYNOYzjRPyCOyaA40UfRVe7jTj9d97rXnd3xjnccJnpWy7/7u797CEc3upemZ3FC9BhdRZd1nDxc+gkX4qL7jh0HhZAD3gyTKIgYMxH4N7/5zbOnP/3ps/e9733DzCyKywzNfUj8MXCPXxQJVKUE7rkBRccY4maJPLM1V8Qv/jlz1Y2njo6TgapPyD5dZIU8eoDeim5hsPh8ivOZzmm+9rWvnX3oQx86rcuC6B/X3IM0omvkQ98wkqxW/dmf/dmQlvzoTS+7KEMgnvj83VuFD6L3Ok4GuvG0Z4jyyOyLQFel4yzAy1/+8uGA+Fe+8pVBcYgT4ynKJpinEJJuyHPcAs/Sd8iTMpSHt/Isn1M8OT+VNOTfV546Ok4GojMgOgDoiUy46ILoNVdGztvf/vbZq171qtnrX//62Qc+8IFBl/FL/KQJ7mM4QXRL9I14dNPnP//54dyUs1LyF+Yyl7nM6Qme8NFJ4mTSlzrEr+NkoBtPewTCHYFmgETgGS6E2zebzNScc/IdJ8qJEkCt0dQiSqmFOFWpRIm4oignRlq+Uk4hOfvkW1CZ1SUdV4or9ejo6NhPREdE9sl7dAfQDdE7OVPpADj9RY+95jWvGQ6Ie7uOnkn86LKkU5F8XKXvqEDypHcQXeW8FH3l2QeBrUDVspmcSiP5uEcdJwfdeNpDEHjGUwQa/fmf//ns3e9+9+zZz3727D3vec9gOAnHsKlKhkJhuMSogUVKIfGjSKKcEEUGuZefWR7j6Qd/8AdPL3srr3hI3kmjo6NjPxGdgGIoVZ3BQMnkjk6y4uTt4Be84AWzt771rcMzPZawSUP86KSqS0KtvsozCOvZJM82ICPKZI/xhMSH5FXji9txctCNpz0E5cEwihIh6Ja2X/GKV8wuuOCC4VClQ5BmWFFUgbBVCUGrFKKEokiCqkSQdKQhnBkef2cF/ObF68K276KQuAufFac27Y6Ojv1DjI8q89Ej9IFJFd2ATP4cObDy9LGPfez0xC86C5IeSC/phoKEi46EhOUmP6tcVrZ83sC367yFl7xQ0oyOE7/j5KAbT3sGQkywzcTMynyCgCHlbZRnPvOZsy9+8YuDkPOnICgO9xH8KJQQd4ZPVRi5R1FC3BMf+GXm6D5vr1CGOWeFrn/96w/hKCpXlLQ6Ojr2G9XoiNznmX4AK9UOcWe7ztkkfnQF3QJ0XCaM4ksLCccteimIf1D1nntnMk3k6CvnqaxC5ZwmY4oOy0SvLX/HyUA3lfcMEX6CzOgh/H63ghyE5IecgyL0wtTVnsRH4MqtrmTFAEKeEzeKJHGSBniG+Htbxq9gbCE6W8C4il9HR8fJAL0RvRMdQQfQMbbOGD+MJ9t1zmlaCaJ3qp6BpFPTQp4TDrX6JXGklwkhEo4bvcR4sur1ohe9aNBXJnpJN+S542ShG097BsqG4gGHLN1TPF7BtRJFMVAi7gn81EpPdcusDoSviJJB4iSePDJzTH7CMtSQmZzZpM8mOFfg8wXZ2uvo6Dg5IPOZnOWZ7siHexkvb3nLW4bvODGoEk4Y8apeoX/4hzzH0ELcXIPcCyd+Vr+lzc8qk6vzVVa+3vnOdw7HHoSXt0lodGPHyUI3nvYMjKMoC8qH0PseiivlYNZGgQjjGiVBAUQJ8BPWEnWMK0rELw1+9Ed/dPilQd3/54/yLL0oL/CcfIRL+bz95wN3vgwcZdQVUUfHycCYnsgzHUHnOB/pe3T5jpMJFh1hUhh9QldxF2cK1S/5SCdX+kmauSLHGqx6gXwYSs6OOqzuBRyGHB0rDf4dJwv9zNOegWIAysI/nnwPxYzJOQGzuAg6fwrCM1AaQQywKBeKyS8MbnrTm87uete7Dr8wcIBSelWRiRMjCPIMUXTIfUi+Do7/yI/8yGCoMdjk39HRsf+gA+iL6AW6JHqC/mCoOCRuy84nCSA6LGESN/oK4h/wb1H9K4RFbXzph6yU29LzJl70Jeo4OejG056BYAOBttTt67tmbpa+GTsRdMhqUKtYzOQgRhEFcctb3nJ2//vff/ZTP/VTs2te85rDLwn85oVCs4IkX8pG2jHEosBQq4zAM2UnLYrIpwt8U2UsbEdHx36BjNMb9EW27K3k0D+ZQD3nOc8Z/r1p1Yk+Ep5/CMTPRFAaiZ/0uYHnUIwu4UIV1RgSP0TnWQ0zyTOJtBIfPZryBDXfjv1DN5X3EBH0D3/4w8MevQOOlEiUgXvbdwF3ysPKjzdKIAaQ7zH5Lx3D6eyzzx4UhJ/93vrWt579xE/8xOn/QIE4KIops0BwH0UWxSascijnq1/96uHgeMJG8XR0dOwv6AJnM6OD3Lua7PkIpi1922N5M1g4V7qE/qAr6BLEj37KlUEWQyruMWTy1hxIr1KQfKo+kpatPGWzGsaQ4se96ruEd52ijt1GN572DJSDWRih9odxlEOWUTytceI+CogSiHBTPv40zkC6yU1uMtxTQv5K/sM//MODAcXdGagsX0eByAtB8kq6UWDCUooOjL/3ve8dfo2Qr6F3dHTsP+iIqnNM4LiZ8Hkb11u5MZyA7nBPd1Q9VnVNiJtVbX8yOOuss4af/1otor/oNmkl/5QBkkdL8bOCb8Ln/NNHPvKR4RnaMrXXjv1CN572DJRADjZSPGZwlA+hhgh4heesAqGsHvmQ5RlnnDGcdcoPMikPxIiySnWjG91odoc73GE4E0VR8YsCEQaq4nGfFaiEtfXnACZF5GA7v8Tp6OjYf0T3ANmnExgoJoHRV/TFPAhHt5g80nn02BWveMVhxfz888+f3fe+9x0mfCaB9Jstwqy2W4mKfgrGdJD0lVMeJqbeZLaVlzJO6a4xt47dRjee9gyEm8Ixa3NInFBTCiHPrSBn1gbigyXt61znOoNxdMMb3nBYWQoS3xK7MM5DXe961xsUVfxqnnkOKB7IUjpYHfMNlbx5V8N3dHTsN6pOykTKpwliPNETdEKru6Irqr5wb6JHZ93qVrea3fnOd57d8Y53HF52Offcc2f3uMc9hnObDCerRvkkQtWVU+CXspicvu51rxuuJqygfLWMVR927Be68bRnoACcHbIfTwlVtIINhJqiCfhTDlaRzjzzzGG52xad2Zm0M7Nzz/ixDC7MjW9849lVrnKVIY0oF2HAfShlQOJTYNwpL6tlZpvyaMvZ0dGxv6jGke17esDbwnnDjj/QKdENVUe4j46J/vICipUmBtQNbnCD4fjBbW5zm9md7nSn4RynN3yFzaqXezRP98SP7qJfHTf4+Mc/Pqw+8VO+lDFhlalj/9CNpz0DgfVmCqG2ZRc3Aj1mlDCc7P9HOXmmGLz1ZkXJyhJ/7pbBvVlnpsaAohQcFmdAnXPOOYORJf0YY1mGT9qtEuEeZSee/1UhBzLl1UKYtvwdHR27C/JMN9ExCBhNVqDzDSX6JDoihgm0uiCTMWGdc2Ig5aymtB1DcG9SeN55581+7Md+bHghRhzIYXV6Uj5jSBkyiaQPfYDYl88zqRSmLVvQDan9QTee9gwMJjM3h7AZIRHWCHMV3iikGDlAATCcGE3IWacc2BQ3xk4UGiPHvbD+U+fwuPMDwJ8ymVJE4vJLeow+Z54ozyyDB1Uh5b5SR0fH7oH80zkQ3eQsEeMpxgg9QcbpCVR1WFB1gfBWlW5/+9sPZzGtmicNhpJVKccMrEoxsHz8F6LfQjVN+TLAkrdycac7TVQZUNzoMUYcCJvyhoDhZaXdtWN30Y2nPQLhZTgxPrytQvkQXkIOrgSYgCP3VXlxAx+tNDuzomQ2xgiLAqEYKJFst+Uwui07xpPzUZSV8NLjFyWR/FMm+VJqIF1p+fWBsw5mdBXC12uLKfeOjo7tRVZwXOkCRoVtMESm6Y9c6Q56gv6AyDx3SDj+VsFt1zmH6ZmRE2PMsz8k0Fe3u93thrDRVckjaQZxR4F0lNlxA8ZeJqspn/s2HUg95dexu+jG056A4qAcnBVw2DLC7lqVTyvMUUCMoXzd2yu9ZmRmaBRBDK3cI2DscGNMSd8sz1afr497Rkl/CgkjHeVlNL3rXe8azm3xgzaNRWl2dHTsBqKP6C6r5owQq8/0AD0TY4XMMzoYQa1eyT13uogect7JNl10F/cYNSAtB8odJndm0+cLQBriCJuy5crAc69M0YWuJnxZLaO3pA2uuYdW1yXdjt1EN552HISRUCOKheFEkOPGn5BWxVERAeZPwTCYLHn7cq4VJAoiq0zIMwKKIW7ycX7AwUyzOitWMX4WQThpuTp4aRk8SigKB3V0dOwXoj9crZZ/8IMfvIQBwj3XKR0QP1dGkDeErSZ5Y5hei/7gL69M9ug1xwysQF372tce3PlH74kbEj/6LsZT8rXi9OlPf3r4ILGyx8hCgfyqPu7G0+6jG087jgilmZuVIAeuLXlzI+woimAMEWD+lInZmlmbg5VZiYqgV6GnBOSRuCAuZWS7z6xOGH5TeQM/dbCMrazOPfkJKCPKszz4V3Sl09GxH4jeoWe8Wcd4ciXjkXthon+AXhkD3UQHOcvkUwTRVdGRIB9GUtKgp0wUvS3s5RdlifEkbtV39BFwi06TLj+rT7751H6XKuGE4Y5S5/h17CZ66+0ACF6EfQwRSsKdt+EoiAj+mAESEGBhgbFE6TgnQLgj/NKBqgyAglGuKCbhbNmZyTG++KN5SiJlB+WQhzowBKWbsqf+/FvM401HR8f2IjrF5M+EyeSP7NMbrtyBbolOQpF519wL44e9DCE6zLfj4i4PEzSrRPSJlfH8nsWEz9vC3tCTttUjq/gpW80P8qxswknfCy4mfbYeU2a6K/fRc+KJH+OsY3fRjacdQQSNAMZYiUAScMLbHhRPnCr4LYRBDC8zLvv/3j4ZixO3KIDMnpIGcDOTs3qVcgozhrE8lIPS8w0Viihh1LOiKiJwP5ZeR0fH9iK6g+zSXQwQq8/RbUEMIKhyD9EF3hI2abNlZ0WJLuEuXo2LMqkTl6FFZ3kDTxqZuI1B3OQnjDykwzDzhrNPFlh94p+6gatwtdwdu41uPG05CGEFgSWoDCSCS5AZLGZLlo0pHgIq3CkhP2VcTQmt9BGFwXiy5O1tuxzMRBendUpxgDQzG4xiUyb+Pltg6w4SPvlUAuVCnsVXDvXL9mNmaMqQOJDyBLl3bamjo2N7Qb7pENt173vf+2Zf/OIXBz0QnUW3RA9Ept3TPRAdY+XIqretO6vo0gThpcHNilPSoVPoOemYMHpJxsp7IN3ovpRFvOjdlAW4Kb9D486cgnSzqh9dWeuQuB27iW48bTkitBVRJgQSEUKrNT5TYMvO88XGxcWznzEIQ/AdFDcD810nSkYei9Cmq0yUkzQc3OSPKKBloTzILDTnnjy3ec2rU0dHx+6AfmAwWbHJJIn+qUZTjBjgf7F+O6UPgdHkZRU6UTwECRd9VBE3esuEjxE1pf+ES955Fi5uykhvOXaQPDv2F9142hFUoY1CiYKJ0OYfS1WxCLcIwjJ2KB7L3ZmdrQrlonikZfkbcVtHkTCc8tZNq6RcU75V6tnR0bF9IOM+T+BfnJHtyHzkuhpPEF0AjCWr5vSXN349ixvdEx3RInkgesvK1VWvepVhIplJKSQN4V3l25aPm3o4akBvWUVv803Yjv1AN552AISOcEYgM6MCz9zN2iwZ11nPssJKCZi1mXU58J3l5cD9WFqtu3QYXlnFsv1Hqa0D9aFMLauDtNUrFMVFqcJY+To6OrYb0V+26J0X8kyWI9+Ra2HoQO5BjJgYT/SN1aMYTzGAhBtD8qFPxXdW6upX/8FhAiluC+lID8QLcUeMJ+eefLbAJHbKgEqdOnYb3XjaERBCwgmt8DEwrDzllyywrIBGmBk7FI+3VfJ9lBbKMI+SFsVDAV3talebTGsRnN0yi6t1lkcUYfKqCq2jo2P3YAJEd9m6G0PVLS240TdWjuiubNvROWMG0BQYUHSWlSt6S3pjqLpOHilTjCcTvnzkk17uuml/0Y2nHUOEFggmoWUwMZ7ymuyYklmEGE+23Kb2/CHKYwxxjyKSnm+nrGM8OXzJgKJY1Serbe5Tv3ll6ejo2H6QX0aH7yR5wzYg41W+c211G3dGkhVzxpOjAtE3y+iJ5ANWzRlfvlBOByaeMPPSihtdTAczoGzdefGlDduxP+jG0xaDMDKGGBAUQr7dFPD3VgqBZWiY6XBbRWAj9BRPfpDJrSqpKI/qNgbppKyMJ2cIooRWhWVvh+ClVw0n99KXJj/XUEdHx26B3NJbDI6sPHGL7os+Y2C5b/USdzqBwWMCSN/QC8ImTOK0OoI7XSINE1D+0jjjjDNO663on3YVS5xQ0k156C2rTyaAKX+LWqYx/47tRzeethxVMAlxK3SElfFkmbgKavxDU4hR5sxTZm2L4gQ1/UrgDIE086ruqqBQKTTGISUK6l7rD8rb0dGxm7A6Y+Jn5dx9i8h5RfRAJlUMHd+Vs2oet8SLvpgHejMTMcaTzx1IC7iFLolTBl7c6SF5e2Y8Ob/lGnx7/I5dRx95thyEMsoihkIVRELPeKJ81oEZlXNJDCefGIgCiGJI3lFCyygBYRw6z8HLZeK0UC8GFAUUpZoyBOFJ697R0bEb8GkVK05Wmsk8VHmmO1Cr+yL7QH/5OKatu1bXCDelH4Stes7VCrwPZrrSYaBcwsHFaV0yXWWpxpM3n12Tbsf+oRtPWwyC1xoHVeARA8P3nbydtg6sDDGcHJS0UlTzajHPD/gnjNlgVUCrwooaxcootALlWdrq7B6isFoedXR07AasmFulcSXXY7JM33FH0XvuTcyEZTQxeOixeRC2EkiLrvKGMNBXVR/Sj8LGeBI+yH1Nyz2j6cMf/vAwqY1BGPBP+I7dRjeethgRtFbYIrSuFI6Dlpa+10G27Kw6mcElrymDpLqlbC2Bw5eWvimjqnCWBaVjy44iYjx5ljYl5l6aKWPy7Ojo2C1YcfKmnfNB5NpkKPJc5Tr30SWeGU90AMPHl8Gz1daGnQdhhJeOiahnRw5s35n8uc+K0hji7hodZaWcQWjiRz9Pxe3YbXTjacsRRdAiAklgc+ZpHWTlqSqJKBPXqfwXgdFkRijNdUGZUa6MKPWEKKmOjo7dh9Vlkz/XecZT9FE1ROJm0ufMU1aPVoH0TMicq4yuUQbGkzfvvC3c6jB5hoJM6rhJy9uDDMJ66L1jv9CNpx0DIYzAE1bCnp9RWu2hUFaBc0nXve51ByURo8RsKbOwFq3SqJB3ZoOMMmkyyrhByh5aBsohP+kBRea+rWfKNUYdHR3bgxgrdICJny0uOsJkK7rHtRpSwnNrcZWrXGX4LlO28Fq9Mk8HcJcHXeIq/+grK1nSzop+dGvSatPkF51EJ/tUgbpZOa9lanXfvPJ1bDe68bRjiPAhSoiiiZBW4V4WlIXvMZm9SVP8GGZjiLCP5VPdYuRYgYrx1KIqkSlQmNKVHriPouzo6Ng9kN3oMFtbXuuPsUTvxK8aJHX1RnzEzdZaPow5pRMSfgzRma7OPtFXysEgc5zBiph8UpaaTu7rVRkZenmL0I7APF3asbvoxtOWIwqjBffM0ggnAUdTmEqHsrD6lNUcAp1rK9xxa93HkHCtwjkIpurQ0dGxO6APYig5z8jAsMXlPpjSGfQJXcWf7rO67azT2Gr0upAOnShtYAy122/L6DT1yv85O/YP3XjaAUwZDYTSDIdgx4Ba1cCwHG1/P2eepgynFmP+8k7+rsJIb1NKraOjYzcxppcYS1aeGBjOG9FjCTdP/9BT/Ok/K08+7sstiL5p82zTnMpDfOnSizHUsiLWoqbR+quXj3+2xtNUvh27hT6q7QjGBDfGkyvhnhLwYMyP8WR5mvEUoXYNzUMNh6TfGnCbMp7m1aujo2O7Ef0UkGdbYlacrNA4J1RXzqteCVo3adiyQ9yqjqjxoMYNTYG+8hIN48lbyLYEpT0vzhgcp3BwnH5O2VZNo2N70Y2nHQRBRISybtstMp6g9a/bdkFVMK2wzxN+abcKkCKaF2ceUs9a5urWUkdHx3aCroqBRFY9M56QFacWi/QM0C0mfqidtB0E0rVlJ12GmQlm3NtyjeWZMIxCBlSMxq6j9gvdeNohED6CaSbE2KGA6oFE/vMElB8lE0VDGUirvhEHcY8SSHjXOotqIby4gXAx7KbiTLlD8hcmac0Ln3CVOjo6jg5V1t3nmV5AeSbLDlTbrmtlNTokYemBqgtyTIGOivFk246fOBBdlHiQfELzID0GlC3BajylbIlf04fUGcaMp0X5duwOuvG0YyCsBBtRIs4MENaqXOZRDSNODLGcGUiYqiSixFxzLkHclsSRjnthKA3GVpTHFIRtqQW3qpiWxVhaHR0dm0dkNDLnPrJPL9QJGr+vfvWrw1vCkDit/qjyyx3oFPGtmttWq/+0i35IWNfct6hpt+Dn7TvGkyskLcR/LH6tv7qpY1uPjv1AN552GISSMROFAVOKokUMHQqNEpJG0nNNmlVJSFu8ZfIQJ2miVZG8kl+llKmljo6O7Qb5hayaW3kC7lW3zJNr4egsRg0y+atGy0EhHeWTrm89+fimPKMb23zGyqketikZUDkMHwi7yfJ2HA+68bTDIODOPBFEwhrFM4YqqMLFcKIgELcYTRHsSvwpkMzwFkEa0ltm5WkMyS+UZ9eOjo7txCL5jD9jwttoWXnijqJvINf41Xs6y4qT79MxpDYNeTPMfO/J9p08q8HTlg1VeGY8ORCP6OlA3MTv2F1042kHEcGjgLxt1wryIjCA6qoTJcEwiVAnnRhSELdlDRjpxHhKGqsgRlNLy+Td0dFx9FhGNskw0F3+isCwoIviHgOl6rQx0Fk+J8CwqduBwm9CR8ifYeYDwvneE6Rcwby8svKUtwkrah07dhPdeNpREDyGCSVE4ayiNISLARXFVY0pxE0eUWbBWD6tIkg8xIA6yMpTza/Nt6OjY3tRdQJU+aW3GBX5MGZ0SI0zJu8Jk0+sZNUpxleLmt4qkB4DzZkqupEuazGlj7iHxFNH9Y0bRK+uW76O40c3nnYUhC4CCISyGhtTxEByFS/Gkqu4qJ3FJc2g3sOY8HNjMMWwWwfSoLT8bypvu3R0dGw3Wl3R6ouAXmA8+VQBkPeqS6bigbi27aw8uXpG0WF5XhfypnusPOXnwNGLKddU+bhXMsG1PamecYMxvdmxW+jG05ajCmIrfO5j3MTwiX8LyoChRNkIS6g9M0xiPLVxa5yKKLpWAURpcWc8WapOOVcl6cj7qle96lp/S+/o6DgekF+gP1BApumd6A5vCufAeBD5nwdxW+NJutFX7pNPkHRbmgJ9SO/YtrP6lKMN8+IlP/7CIhPIT3/600Nda7zwoGN30Y2nHUbOFEUIlxHGauAQbgonSqFCmIoIe5vHmLv0xGc8KWMbZxmkbDHsYJ10Ojo6jhatPghieDAo6gcya/hWD02BkcS4YTzRE228PK+rM8STBv3jO3jVeBpDzcd99Kz6MRDpwuhUacxLq2M30I2nHQZhzNt2yyiJKtTuY6C0ghz/ZdJsIR0kDYfZ1znvBDGcqmJct0wdHR3HD3JM1zAoHKRmPNFfkemqg+ZBOCvm/ozgKk0U/ZDnqjfWhXQYT+3vq8aQ/EN0oPqpK13oOaDXOnYb3XjaQRBeQs0wIZxZ3UHzwF/YGEeMk6ktu0VpjUEaSUc+lKMrp/i1NAXKxeyyrjzNC9/R0XH8mCfX8bMK47yTN+3yFtqysi0c3cCYyXZanWDRbe6jM6Lr1oF0kLNPzj1VPZmrtEOBe3oP0c85GB/dK64yp4wdu4neejsKAkgQ67J3K8QVcRcHAeGtigcSriqKdSCPrDxNFGkuUrZavqm6dXR07A7qypP7VfWM8Lbr8k/OVoe1uusgekNaVrcYaW2aSbfeV0Q/Z9su4aQT6thddONphxDhi6BmZhNjKNcp1LiurXEC3D1TGgdBlIYzWevAipOVp9Z4Svk7Ojp2B9VYoBsYTiZX6+gH6TCavInrWtOGer+uvkg8ejDbdmOYp5O4q1/dnqzhp+J17Aa68bQDIGQMI0QYGU1A+XiLI89QBbRSVnIqPDNSomyEm0IUVFVM0LpLQ3ksVfsIHqUR9zGagsOgZpYMqIMach0dHUeDqg8qkWFXsIVlYkX+47YsxKFf6IW8bVf1SNKLGx23rv4QT/q+ZM5Qa9NJ3cYQP2W1PclgTHxunufpv47tRx+VdgiELQQEkAHlmaAuEsYq/MLnPNGieKsg5WM0WZpfd+WJcsxnFKKgNlnOjo6Oo0Xkl25oD1AvC7qAQWQbzQSLfoCqG6q+cJ/nVZD05GXVybknqPnU+4qaH0PJylN92w7EnYrfsRvoxtMOg2BmORiWURIJQymEoKaxjrIJEp+iaBXGKmDUKZtrytMVTkfHboIeQOTXhCqTvlVBFzCcGDOMGjpCOtEzB9FdLaLL5GciF9Ry1/uEr1AuK23ZohRemKrXOnYT3XjaIURQXRFhjIGyjEAmfgyTsZWngwp0ysGwO8iZJ+Vr37br6OjYTdAHiK6hs/L22aqgCxhOttHqytNhILqsvm23CsRXR9t26htdyL1Sx26ij0o7ghg49UoYrTzFeFpGEBMuxpPrppD8XSmNOttaFbV8y9Sro6Nje0FHxXg66LadFSfGTP1tinTX0TOLwGDKgfF19JA65nB8jEXpdJ22++jG046CoiCM1ThZRiCFoRAQw2TV2dSyoDTWVZCgbIdZvo6OjqNDNZ7oLLphHWOH/rKFxpjJN57gMAynQD5oHYNHna06WW2rxlPH7qOPTDsAwoYoCDMt21l5ppSqf+5biqEVZePezM3SdyDcMmjTDkVBxnA6yIFxyoqCrMaTdKeUpPw7Ojq2E5mwkVNvCH/hC18YVqBWhTRso9EPdEF0Xt7KjS5qaRUkXbrMSzmXu9zlhh8EV100pYdaCKee6uwHwXnLji7r2G1042nHEAUBrRDOE+gYNonrPjMqWFXBjEH+0kUUxrrnGiAfpqtI/aIQK3V0dGwvyGiMD9tYX/va19Z6XV86JlX1APdh6YHoM5NMn02pW4TLImmos8+3ZKdg1Xp3bB+68bTDiBC2NA919YYyq7OpTSBlkA/lCOsoNStkUVYgzWo4dnR07BZi4NANOau5SF+1EN8qU7v6vklEx7jm+EBW/LNyvyoYUDGcglXr3rFd6MbTDqEKG4VRiXBGiUT4g/qcsNKKYmjDrwtphiiKKMh10vdxOgTKiw7D2Ovo6Dh80AHRAyZVdAOZXhXSsOqE6AK6Jnpvk4iuQQyn6KOqf6LrlgF96NxTwld+dOwm+ki0Q6jCSmFU4r6MEonhhDZtPAXKEeMp5V0V1XhKHZW1Kq+Ojo7dALmlZ+iDGBLRRasgxhPdEL0ljejATUKZ6ZysOsV4kk9oHqpejcGonNy7Htt99BbcUURhVKoCvYxwE+DDEOKULWcaqhJZFlFYSSvprJNWR0fH0YK8VoLILqMpW1jxWxbSoBeypd+mkeeWVkXVNfKKPmJMwappqjN9GIOxpt+xm+jG046AoBHgCJwro4IScs8Ico1/MCWowksvymBTkB8l4YCkt+3cQ8qwLOVNQPc1fkdHx3aC7IemwHjwIgnd4H5V0FsOb9e3hCG6oZahlmXKfR4Shp50SF2eDKggOrTqpeipuOWqzjkk37Ef6MbTjoAQtsYT5WMp2H2MoPhPKQj+SFqbNp6kK09L8r4u7vXcrD6tCooqP+NMnTo6OrYTi2Q8uoE+oBt8dZv+ivsYjYE+uOxlLzvohop5OmIqrSl3SBlMUOnJfNW8bheOGU8V3EOMp69+9atr68OO7UM3nnYQBJricc2WFhoT4jFBJfSI4eS6SShDLd+6iiJnDKSX+q2bVkdHx9GhymuVW1eTPbSuEUEf0AuMFqhpJK9QxZT7PCRs9KU8V9WXyZM+VGc6EcZ0dcduoRtPO4gIoy27aqCMCWTr5jmG06ZXnqCWLeca1lEUFGTeqIFqJHZ0dOweyDDDyQd0XdeRZbqEXqjbZxCjZFNI2aIv6cop40mY0BTownXr3LGd6MbTDoIAmsUQyLrCMyXE1c01yqAevNwkMstSvnUR4ynGnTqmnh0dHbsHsmtLn/FUX9tfBfSXj+fSDXmWzrI6sHVfBOHpoEw2x4wnWJQufajOyrlqGTq2E9142kFEWVTDqWLsOW4ElwJAFMKUMlgXtWzI8zrKIsZdylfr0NHRsVugA8gvIyLbdvTEqpCOiRXdUPXBmB5cF62ukWeMp9RjGdR0TCTVedm4HduPbjztKLIMXL+XUhVIa7B4RtUYoQzWXXlq83PNfVadVlGOKV+QlSdoy93R0bFdqLI7BfrAwem6Ih290co/eI5/DefNN8ZT0qEbxuKvi6RVJ5aMJ28AZ7swflM6LmXJla52SF74TZWz43jRjacdBCVCcVBEBDKzOMSQCqIEhGckZRtMGEYXRRADZRVIT17K4B6qAadclAVEUfAbI2iViTTy3z33ysyYgsTp6OjYLkSOo3daoiPyiYIYIQEZR1UvBHFDjBZGDH1g+w+khaqxc1AoizIDHUR/XuEKVzj9s3L58a86MEg8EJYeoxO/+MUvntbPbZyO3UM3nnYQBI9Ah1qMCSa3UECwD6JwxvIBCiVKZSpMRcIhiofiikL0rIzcOjo6dhNkm+FgUuVaDYxlET3AkIlxw22dtFaB9OXJcMpKffIc078V0X/qbJLrGreO3UY3nnYUBJDgVkEk0GOKJGFreOEOajy1SN7VeFqEtmzSoKBCUY5j9ero6NgdkPEYT7CKTAsbw8mkyjUG1GFDHvKzSu8aLKPfQHx1V2/kvmP30Y2nHQShjRBGgGMIRZm4VsUSIyXh+dXwmwQFaZYFNc9FSDjKkWJUPteKtl7BYdSjo6NjMyDbdJbjAjk4vUhmq66qhhPKofGqH6IbxmhVyBvF0JG3D2XKcyy9RXlIS71zxGKdMnVsF7rxtCOIMFcaM4amMBV+k0KctKw6ZXaZsi4LaWRWOa8+sGraHR0dxwNySv+ssvJU/TORohuW1Q8HRdUv8suZUVhV96i7ereT3o7dRTeedgCtoHmOECKgaOYpowh7CKKQ1kXNL2mC2RUDCmp+y0CZoiBb5VjTWiXNjo6O40Nkla7K28GtvpqS54RDMZ6s/kzph00jacZ4ki9wXzY/4dQ5etF9x+6jG09bigjnmIByM4Or54pq2NxXomgQBZbl4yx/rwqKTFoUiqv0qzHnDUA/Bl4GrQKMksqyfCBd+VSkbkFVtJU6OjoOH1UPRPbiFjnPz8I9VyNCHM9VbhOnpuHQdnv26DAg/0DeypB/27WoZa7xQDz1zf/8vCEYvT1FHbuBbjztCFoBI9AUTvxyzX0rxEH8xWWooHVR84hxg3KuIUieUBXMWBkpyMwua9lqGpC8Ojo6th9kPbohhlAQvzF5rjpCHHohK09HgZQrhtsq+abs4jOYchY0xthYfWHKvWO70I2nHUArTIuELkJbFQ+/EPCjEKoS2wSkHwVR84f63PoBNwYTBYViPNVyd3R07CZMsNozT2N6oIUw9FQme6jVW4elH5KuPK06yXdKH8Wt1in36p4tu0x6O3Yb3XjaY1RhbgU+ymiTxpP0KYa68iT9KJyKtjygPFl1yspTGy7KqCqojo6O7QYZZjjQDdm2igy3eqBCmOiqqhsOW/6ViS5D8pJnVp7Gyhu3qXLFeKIXu/G0H+jG055ikXLhHzooqjKhGCgIigLaPMbyzHMUJBoz6qbite4dHR3HgzEZRTFGYjxVvylEr2QCFv3Q6oYxY+agkGbKDPL2pXDXFmP5t24xnvrK0/6gG097glUVCKVFCc1TXqsiCoeSQPPKNJZvykRBQo0/FX6T5e/o6FgfkcVWJvOciVXdtlsEYVCMp03rrClEl0UHyde2nTJM6bUx95SVn3p342l/0I2nLUVVEK2yIIDe3HB+IDMhAsk9AixO4tV7oAjMojKLa9NfFeJb1o7Rw3CKgmjzngflVx5vtXijxj2I735qRaqjo2O7QA+FAvLtLVy6od16o8fGVnXIO4quu8xlLnOJcDX9TUIejCV6Uv7K6hlFz0Un8Yu+q+VJ/eLmqv4MSOkn3THq2H70kWiLUYWoChYh9KNJQhgBDCKo1Q0Ia5SOa173bcMtgzYPV2lJ1z1FEmXSgn+bZ57FcZ+zBeoGidPWNUh5Ojo6jhdj8hmQb6/qZ5IkbGTXc+Q94BfZNyHjTzdEjx0FotMQnRRK2fi7D40h7q5127Jjt9GNpx0EIaSIxgQ2gj6GuLtSRAT/MBTRvPxDwVTYYJm0FqXR0dFxfIh8Rm8xnqK/FqHqOukcpeHUIjozRl7KNoVWNwlfz4N27Da68bSjILRVcAk0irBWoc19lBUFkBnUQZWRNJMujOU7hRovGCt/R0fHboM8k3eGQ2hM/qHKPh2X4wj0G50V/6n4hwF5Jn8E0cFVD48hxpZw+dZTx+6jG087AIJbFQqlEaF1H8FexhCqYSmBCPamUcsbLKvsxuJ2dHTsHlpZZggxnGIQzUOr52K8HJV+kGfKKM/oTNeUTT0qUrbE9VzdYjwl3Y7dRTeedhRRKAEBpVwiqBUJF7+EjSLYFijnskpFHUIdHR3bgTGZzDPZjsHRGh0wJv+JA9I5Kn0lz+hYJG86M7QMwovoZelk2y7pduwuuvG0xRgTMAJNAMc+NhclA4sEUxyKaB1llPxayDMzS2URrg07VidhomDy3NHRsT8g03RCPqAbXRVZrzoh9/yqvjDZq2/hHiZaI8l9/rlZV79cq+5Sr5TXffRg0orernE6dhPdeNoxME4oH2+tuAIhJLAxpqBVTi24H2TlaSxdecd4cp0KkzLGnyJRjqmydnR07AbI8BgBnRS95b41IKIXoLoHPm8Q46mGPSzUMtBPPltQ31JWDvdVjypXdC8diCB1rXq7Y7fRjac9RKtY2ucIfug4MFbG1q2jo2M/0Mo3HRSC1r/VBdFVRznJastUdWYtQ8JMlavWkeFkctmx++jG056iVT4VUUIHWXlaFVWBLMJRKceOjo6jAbm3IoPck/EYImPgH13hPvoqqz6HjZS3liF6sxpw/ENTEBZJr79ttz/oxtMWI0K3SUiPEqCELIMfxHiaV7apsset9Uv4Kf+Ojo7dBcPBFlZrjIwZT1X2E+6ojadq6EEtr7Kk3KmXa4sax720+tt2+4NuPJ0QVGElyO0M6iigDMsqja5cOjr2B5H9yHUMizH9U8NBwh6Vzpoqa8qQe+6oLW+LlFeYbNstitOx/ejG0w7B7CaCOHbwMH5TIKzCmL0d5K2VVvDdZ5aGlKs9MD6vbG181NHRsduITIMrneBts+gxVxT/eXIvHH1Fby3Sc5uCfFDKRm96286K/bJIvVO3WueO3UY3nnYEhM+MJTOfL3/5y7NvfvObp4V7EYQJUUB+sJk0VwVlgIKkE3flYtyNLbELG6UUP8qkKphcOzo6dgtkN0QnRL94tmX19a9/fbjSYQwp90D+qyEFwiDP9Al98T3f8z2DXjlMyKeucmUyyGjybz0UIyg6bArKns8TVKSOHbuLbjztCAhbFbgI7zog8JQSbFqIk3aUSlvuZbDpMnV0dBwtIveRZVf6KkaS5zphapG4IaBXjmLbLpAPqmVguDGililD1YFBJpnVrWM30Y2nE45NKiJpUXCUS2aHUTytElqErlw6OnYXrV4hz5nwhebJeMLXMNEvRwl51rrQa6hOENswLeKnLlaxkPt59e/YfnTjacsxTyiDZcIENewq8eZBOiEzw5wL8FyVRA03hin3jo6O3UOVdTqgNZ4WIXGiPxgs1Wg5DkS/xYhTtlrPFtxTZnVpv7DesbvoxtOOIAqkxZT7GA5b6URR5BcGLZQ1lOdFWKV+HR0d24FW15DjGE2hVSC96JfjBONp2W27IGHVmeFk667qwY7dRDeedgARsghhFFErfIuEsaazivAvQptvtu24V6ponwPuUaxTYTo6OrYTUzIbgym0CpImwymrOMcFem0V40nZQ+rtgHw9PD7Fr47tRzeethRV6ICwmvWA2cu3vvWtYQm4Cl+NM0aBdPynyXVVRSSdKLE2XeD+3d/93YOCyWvJUMMlXhvfQUp1+6u/+qtByayqZDs6Oo4fkemqWyLbrfEAwo0RXRJ4ZrjQW9X9MJFy0JPJ05t23viL7gxBfY5bBb54a1D91WUsTMfuoBtPO4QIMKOCIlrmrY0xAZXOOoZTMKYc6nO27dYxfqJkxW2Nq46Oju1FK6/RCdzIc2gsTAvu9FT1p7NW3TJbF20Zk6f8GXCrlCFh1T2fLTiKOnQcLrrxtAOoglwx5j6lmNwftsAmb4YTRQfL5FvDUDCUiytM1b2jo2P70MrrujpHOtXQio5oDaqjQPIGem3ZVaOWF+pjYpiVN/5tmI7dQTee9gBVkHM/JZRjQh8hbmld5MxTFJ0rCuKWsrhmJUy+fcuuo2M3EZmGer8Oqg6Ijjgq42kqD3ptlbftIGUW1spT12/7gW487TCmBHaeIB8WkqcrBZPl9SiOKUqchMvsLMolYTo6OrYbY7K6rvyOTd6iJ44TVbcpY8o5Vc+U2TW6zcpTjduxm+jG046jFeIWVainBHzToGDqLHFRvjWMekS5LBO3o6NjO7Fp2ZVedMpRI3nKn36rZVhUnvhHt9VjCR27i248bSnmCSfB+8u//MthFlMFcwrCJJwD2f5td4UrXGG4zoM0W5oHSsXbKJe73OWGq/IljmvK0aalPsoFlrS/8pWvzL761a8ObxTW+tU4eW7dOzo6jg9V11QwGPKBSBCmTq7GqIXwR3VgvEV0TFaeIIZU1V8t+MVYkgadFt3t+Tjq0rEZdONpi1EFKwoFEcT61saUAZHwFcIRfj8GJvibhLwYZN/7vd87vJFSUcvX3qsPEl+d/uIv/mIgioZ/wuR+DFPuHR0dxw/GBdl2Jec54ziFMT/GyqJ4h4XkGePJczWeopvGSL1zT2/7XIFJoueO3UU3nnYUEcZFOGpFo0wUHAWTmWXK2tI8UDIoYaOgOjo6dgeb0D9VhxwHah1iMKVMmfTNQ8qdcOLEoFoUt2N70Y2nHUSEthoUEULXMYGcchd/ipZFTVe8zM6yvL1KWoHZmeXt1BN1dHRsN6IL1pH5bUKr0wK6rb5tB1O6dQzSYjj1N+52H9142gGMCafl7wgfvwhzDbesQB8ENQ+KAUXBHMR48pXxZYyno6hjR0fH8YB8b5OMZ2JYV9WXLWPCd+NpP9CNpx0EASR4riGos6GK+G8aNW/Ifbbt6vL2qqBcbNulni3avDs6OrYLyxoVkeWWgvb5OEG30WvBovrVcicsnVZfpunYTXTjaYsxpjQIXmYurmNInKq8YoQwsLKltoxim4eaD0ibYvmu7/qu4f923rjLAc9KU0h90Te/+c3h0HjyaDHmPhW2o6PjeEE26aCWVpHZ6Jd5OmTTUL6Q1X4r6nRbJqqp16J6pMzC0duOJUy9odexG+jG046BwJm15G27CHaEtwpxjBVuUVaUDwXgrTiGzToYU15xo1S8yYcYUYuMtLb8wde//vXZ1772tcE99QjGwuc5fpU6OjqOBpHVluieHDUIrSqf9FV73ugooIzKTt96i9jbxFV31rq0pO7C1jLT344kdONpt9GNpz1ABDWo94eJNp88M5jy93FKg3JZBjW9b3zjG8PKk7itIg6Oqp4dHR2HB3I8RhXt83GBIWQCuooBV8vuPobYttSpYz1042nHUY0JWFUg2/jrIGnIm7FDwcR4qjO0ZSANZOXJhzIpGulTVsmnvXZ0dGw/Diqv22Bs0Gd19UuZFtUr5U44Os3q07KTyo7tRDeedgwEMEI4JrTz/FrUtNZFjR8lYWZmeZvxtO7ZKobTl770pdPnuqQxpTwPWoeOjo6jwSqyKmxoW0CftcbTFFLuajy5ZzzlZZiO3UU3njo2AoqBQolScaVo0KqrT2DbzupTzgUsUqDbpGA3haqY5ylpWOS/KjadXkfHOti2fphtO/omOqfeV7RlF4Zbtu268bTb6MbTDqAVwgjgmPBVQRZOmCrYnhk2BzkwHkirlq3mY9vuSle60pAPd3lVf/fKUd0qvG3nwLhftOS1XvmN1TlIWZKmsPiEajndt27biGXqXCH8FLUYC7OIOjrWRWRRP4rsL4v0PXFaPXLUYDjRaTn3pCy1PO1zyl7rz3Dytt2yct2xnejG0w6AsDEggGASQMIXN0JYFQyKkBJYgk7pRIAJvx8DWxWCCHxLi1ANEOGlj9xf+cpXnt34xjceXusVTl4pF6qKcIwYTX/+538++9znPjesQkkjn2dIHkkLXIWpwB8f28Qr8QJhLZu34bcN6pn61rqOQRj1Eb4St8SHpIO4txR3V3GTpueOjnVBFvO7JXJPH5DhZSGseLbMVom3acjfxHBq8smNbgPlTFnJFB644gP9tu36p2M+uvG0A6Bw6uAVATSoVURQc02cqmy4eY7hchCIn7K5r8+UzGUve9lBSXrOQBx/9+oxBf4Mny984QvDKlSNTzklLwZV3KVXDQZ1pOQoO+EZUfm+CjdG5bah8kY9x2a4wqS+wiJ+MUhD4Q+ljYTjBm1YxC3ppW2kyy95d3Ssg/TZYJ3+JE7ouCBv8pDVp3VAvqKHOnYX3XjaQWRQrMZTFNNRKRb5GGyhKsUoSUaTVSdKRjhlzYAM7uetaEifgvnsZz87fLIgiib1c5UGo6AaTK5IupRcDncKHyNCuKSzbVC2GITKqOyVz/yROoc8Qw2fOvMLb2q4McQ9beK5UkfHcWBKRxwXyJYXYhhPyjavfGNyQ2bptshjx26iG09bjnbwciWsGWAzsLZCWuNAnsfc1oW8lSVKoN5b2fn+7//+2eUud7nhnnub1zzFI22rax/96EdnX/nKV4a4+eimtBI393iBJ8IxmDIrlAYSjjGHGFXcxNkVqGNdQVJPdVRX9Qkvwg/gj2cUfXiSNqvGVyVp1S1WbulrHR0HhX4bPZDrGGq4bYIykaOsXJO3FrXc7qOjAzLVP5K5++jG0xZjTHlkYMwgmWcYCz/mtilEKaQMrsolT8rlile84nC2yhd5hc3AnMF5EXyu4M1vfvPs1a9+9ewP//APZ+9+97tnn/zkJ0//tkV64F6ebbrhUa7ChALuoW2A8me1TLlDoL4UtisSJnVJPSnkGELchAlP+GelDio/Qi3m+XV0rINtk7lVQZ6ybRf5HKtL5CbyF5DRvm23+1g8gnVsDarSCS3CWJhNDYbSqOVwzUBvtYPhZPXp+77v+wYFksE/BkDKUdOobl/+8pcH4+mFL3zh7NnPfvbsJS95yewtb3nL7M/+7M+Gb0A5C0UJMQbEidFBKWV7LmkC9ygsZUg+Qb0/LihTDKPUI2WO0RTeQeoIyu+5jcfdPT5ZReKXdOSTtnFN2PBCPuFVR8e60J9Cq2Ib+p4ypBzkpG7bVYzVscYFctiNp91HN552AFXwDHwRvAhq/N1zrwMqtG4GyhgaraAvg+QLddBF7sEqkBWnq1/96rOrXOUqQxmVQZhan7gF/JJm4njj7q1vfevsmc985uw//If/MPulX/qlgf7zf/7Pw6qUrT2rUfUQvfyzVaX+2b4LhEtZKm0LwpfwRtncc1d2FAOJn3qqrxlxtunSFsIxmsRJOHHE5YfCN7zHO+HkJV5X9B2Hichepepe78eeD0JTaGUPkY1cHUfw/06yVEFOIivRYZ5rWuTJUQRy17G76MbTjsGARhgzuAaEMgJf3dtniAI4KJKu9JQn6boCxcJ4uupVr3o6jEF6bCBuy0jxRPlYYXJw/E/+5E9m73znO2dvfOMbZy9/+ctnL3rRi2YveMELhlWp//k//+fsj/7oj2Yf/OAHh1WpqsBqWkheFFfKvG2obVbLl/IDf/epF3g78Ytf/OLsIx/5yMCn17/+9bOXvexlp/mER+654Z9VvD/90z8dFHnOhYG0PYdHNY+OjoMi/Tt9fAy1v7V97zj6ojzJAbjmLGHcpiBe5CrlNiGh0zJh6dhNXPoJF+Ki+44tRZQM4SNwn/70p2cvfvGLByMh7vPQ+l/nOteZ3exmN5v9wA/8wLA6tCj+GMYUH0WSgTZp+kaT8v7xH//x6cEYxBemppM43Kx8MMTizxgSXxjuDlxakXrPe94ze93rXjcYAs5DCe9QuM8kSAPEcW9FxT0eMg64Jcy2QPlDoLwtX+OGD66AN/jxvve9bzAu3/CGN8xe+cpXzi644IJhuzMG02te85rBqLKSp13wQR/IYKB9zIy1mzLgD7/k09GxDhjoH/7wh4f+p3/pw61RUZF+Hrins84555yhv5Llo0bK488H9M7HP/7x2ec///lJIygyS3e5RoboJ8cZbnvb2w6Ty47dRDeedgAZSAmfQdKgZ1CkkKAqmYBbqMLzta997QMbTy2SVxRGDADPDn6/973vPe1GaaZOiRfEXzwU44Z70s8z4yFnD/j58NxnPvOZYRvP96Hwyv/1bGXFEOPmalVMvKS3TaiDSnijzOEBopCtNPkK+zve8Y5h+9LK2yte8YphgLICR7kzqIRhbBq0xDHrtc3Jz8oTg8uq3qc+9akhbTzNloQ8xed+HANWx36ArnJW8bWvfe3QD8ldVofTxyvSzyH9ns66zW1uc+TGU1sWxhP5omfom8hmCzoHyLP76DLyZdvv9re//ewa17jG4BakrhVjbqtiE2l0XBJ9OrkjGOv4rUCMCfAYNilE0kp6bVkojctf/vLD7IqS8PadVQzh+KMYSdUNKFb3MXxiUCUPfu4pUf6MIitx3siz4mKbijHx/ve/f9jKYjQkfekk3W2D8sV4Cm8AP8xw42dliHFkxe2lL33p7PnPf/6wGslwevvb3z7M8il2hitjifEUw4kx5OvtlL/tvcS3reetRsaUw/ryk7+8k29Hx0lG9E7etgPP0UtT4E/fuJKrsU8VSLteod53bBe68bTDWCSwxw2Cz7hhQNkqtNLlzTtu/FAUT1sXigVRUgZwYdsBPG71MHS2r970pjcN21XO+LzrXe8aDCjhKbBtX0FRTqjGEyh7DD6Gka25Jz/5ybPnPOc5g9HDUGT04CW+MVR9MkJ9uUk3hLfcEUPMChTD6/d///eHM2S2/vAMT/2j0FZDkDSmsMi/o2NdtHriqJF+TW4ii2P6qwX/GE9kz+pb1WddXnYP3XjaIRA8MxbLxu2sBRYJcGDZ2GcEDLDLxmmxKB5/ysLgz2i6973vPbv+9a8/GE9VUbQDrfCZ1XFX18zSQpQOP/c56Jx77vL1bGXG6tOznvWsYTvLSkvOW1RkRSeGmLhxR20ZDxPKpu4xGOMWd4ahs0vqZHXNypFzFzngLY6wyq0eqaurNGMweeYvXGBl6mMf+9hglDGgnJOy3Yon4UF4Ve8hadUyd5w8pJ+kf0SW9E39CPSZ2u8WQV/S92N8HEXfqvm4KjPdoV70k203V/VSLtQi9U86kU/pWP21de6oAb5EpkCcyJy4rvFbBYmXuPW5Usd66MbTDoEgETwCt26nF4/Q579zIN1VKGjvW2E0WCOHIx30vOENbzj7wR/8wUscQBYvyifpU5QxnuryduJE0bhSSHmmcBJfes5ZWI2xKsOIsgLlLBQjoSrvquRd6720Uzf3h43wwzVwj6wQfehDHxq25xAjxzkl/SEQDp+UXb2UG8UvvBZGfYSJGzBWrUKFZ29729uGNx21A4TXuQ9Pch/edZxs6COtLNX+mH5T+/k8pM8eNVI+ZY7x4yygSSA9qh7KNVa21DOylfpLhyyj6KLwAzyjFuIeBg4r3X1HN546No5WGBlpDnk68OmQ5A//8A8PyoeRYxWMMZXfplCymY1Jh1IS3/aTMO13VQJKLgZXVT7iMzgdVrX6xBjIW3kJmxlx8uIujvIkv6MyDFImUKe6smaViUFjSzJGk/BTSFo1jHSm6lF5aFbMiPJWnu0824T88UcYvPIsrPQ8oza/jo5NQX9DR4n05fRv+bsynMhCZGCdPk/vMKSSbsduoRtPO4wok9A8HOeApmwGXN97OvPMM2e3vvWtZz/6oz86bB1SHJQIY0UYxgo3UOaqWAzMdYbWIuGqMnNlgBj8fS7Ba/pWoByklid/8RKeweSeUsuMEbiFDhPSV8/UVf0d8rYFaaXJF9dtrZm1QgyZipQxRlct85hbC2HUH8/wygF8K3i2Gir/w29ulfcdHZvCcfYneSd//Tu6yNWkjwHlXv+vclERuYB6L12rTnSTNJL2YdU3dQkpb/QMfVDvO5ZDN552DBHAdYRsnTiLoDxVKcyD1SafSbjDHe4wu+Utbzm71rWuNawoGagpEsZKZnSgvEmfsAtHwKeQ+tUyicc483aZ1/Gt2lhNcf4pBkgUIMWRePX+KKEOKMpM2bxFaNWJ8eRtQs/qxA/PxsopjdQpfAFuoeoOyTvuDp97ay/5Wu3KKp0wVeFLD46DZx27iWX7Su2TR4XISKCs6e+ujKdM9Nqw8yA+Uh+Tt9Z4arGJeo+lkTIjOiJ01HzeZXTjacdQO3fb0T1vY+dXJkLKUPLZgtvd7nazBzzgAbMHPehBsxvf+MazK1/5yoMRQJE4W5OtKvGsrFBUtuzmbdsJG4NHHARRCAwR6X7iE58YjCev5VvB4SdN+VFmrtLIChRwgykFt0nII0pZ2RmMPsjngLjD284kMTBTp3kKj3v4GHhOHacQP1fGkrNjjCefRbBip0zS5B+exNgL3zs6DgPz+u0mEbmpspO+7ppJnvs2XIv4V5I+fUS+ap3qvXCHBXKqDi11+V0e3XjaMWRAJXxA2FqFMk/oGAUEZGrFYhmsE095KRoGFGPpete73vCF3Xve856zu93tbsNKlH/g+ail81HKKLx4BuWsOo3VO9copnovfDUwrDZZdXJ2yMclnX8CaQgH8mbA1DSUBc8OG8qRfJxpsvKjnL7dlA9/Utppv5TZvXKGP2ljSN09q0f4NQX+CSM9St75J6t2DqwzoKCmG14lz5Sjo2MXMSYjkR1Ej6F67mkeIh+VTBStuLcgQ2isDKuizZNcthMubpmIRW5rWNfE77gY3XjaAURgweBptpJOXv1q505nryQcYWcYIM9j4ULzkHyXIaiCCM47Of903nnnzc4///zheqMb3Wj4mKY38nwbKitCFAyjx9kfAzlUI8DVM4LkU4lfBnnfL3L+yW9dnOnB05Q14czChKVUXDelzJaB/JTZKhODheFky0zdU0a8SX3i5j6UNg6EiRvDalFd4p/0rdg5b+XAvbNQ8guf+VcC7uJ2dOwi9G+kP6cvV3kzyUNWxdPnpyBOKHAfnda6y4ecLkp3EVL2lB+5p+/IrmdjiRV3RM/yA/7uq1GVNDpOoRtPO4Laccc68LZ3aoJMEBkAyL1BnJHk+0/3uMc9Zo997GNnP/MzPzN71KMeNXvgAx84u9Od7jS7wQ1uMKxUUVJRZlDr6z7C3Qq58KEWjBKv5PvdDQVRPwQJ4kSJ1vwOE6kDRcZI8U2nD3zgA6dX4vAtRqQyI+WMf9KgFIXlJ72EhTFeTCG8lJbtO+efvLkoLcoV8U/++bSE+1Xy6ejYNqT/tv1Y36YrrJAzoPT9KUR+gtyTSSvL+QTIGNq464AhVvUCcEPqZTJtolgnVcK558YfyH+rW086uvG0I2gFuO3Arf82QdmqACNuEWwGlLfvnIW6+93vPpCPat73vvcd6Nxzzx0Omd/iFrcYDpn7QF2Wy8V3HyGHKuCVL+4rMU6cJ3Kex4HylBFSxtBRQt7KY4vMW24OiFNwyscvhlCtI7+qKBMGoghRreM8SDPpu1KcZsoMOeWyhchAi3/SjZI9ap517AbW6RfiHFd/GsuXnNmyYzi5zpOpxCcjrTyZBOVzIzFMNg35K1+th3v51TyFUS8gw9wTt8bnHjrpWE6TdhwbdNra8Vss8p+Hg8RdBfIwgMfIqcaO7wlZMiagjCLfgDrrrLNmd73rXWePeMQjZr/wC78w++Vf/uXZL/3SL80e97jHDWekGFAUF2FHZoH1w5utYLd1TL2tmvgApFfxvYlntYfB0SqVmu5hKw3py/8jH/nIcNbJ1p38s/I2hijClFXd4iY9Ct6bjgi/quE1D+FbymS1yxfO/RSV0andMltNXpB4HR0HxTb2JWUymSFXVS65tzQFskK26T8gP2NyuSidZSB+dKV7+Zj40Hd5QYdbdIdnulGZQDwTL1C+SicZx2I8tQ0Q6vh2LMObbecdIcw5rSiDGCk5NwCEVjgDMqKgGEa+D+WAuT+q3+c+95k97GEPm93lLncZ/pcnnDioGg/hW+VfvSLhcq7IwWwrK3HPNUicwwaeMEr8nNc3qcxO8SoKjiLDL8qsKsMoO8/hnzCMSufIzjjjjIF87R1fa93mIXWWthkpyhfIHRwPz5VZG2gvz8p0FPzqOFyk31eawjy/fQSZWLfO4tVtO2mhZdG2xTLlYCxZ0TYx88axIwF+8eRNXv+0fOYznzlMJMm3M45WvKN3olsgebdlqJjnty8YNZ7GGLMpZsxLI3lsIp99Q/hi8DJQHgQGN4PrsgPoQaHcUQzyRKkPQ0BZ+KsbQa3hGAgGZOeerDh5K882HnLv0wcxoGoeSX8eAeXFcKIwnH3CW/EhYYJVlNsiSDsGBpK2K4XqbUBbYz6lkFkg44R/23b4k7TCL2HASpPt0LPPPnvY9vSLHKt6/jWYNBI25WgRXgbK6fA65WsVSrlAmJr/WFodywHv8LntH+kjB0HSa6n6LUKNl3KhFvoDgqkwyyDp6FcoaR4XUm8yZPVJn18Gtdzik3UGTeV56joPlf8V+ku23MCVfovB5CWZ1772tbNXvepVs5e+9KWzP/iDPxiMp+c///mz5z73ucMPxrnx9zayn4M70sCQMsmMjoG0J0pZcg+5BvzqatY+4NJPuBAX3Q9QaUwKI6JcU2luY43bMmsVJK5rKHks6kgnAeEPXvjStHMwBIHwZaBq+TYGYQn6zW9+8+HzAAQ/g+gYbQrSyqAa5ZeyJJ+EqeVJ2IQBqya29xhTl7nMZYYwBnFv0Om3wC08gzaN8Eo4EI+h4QDoNa95zcFY099R4qb/p0wHBSXHMKplAJ9OoMS0MYVF+Qkr/yhphiI3iJt0GKLKxo+ictj+x3/8x4fD93e84x2HtxvxjD+DUZ62T8OPCzkzWTfpI+EYTNKQ/hWveMWBd9oFgTDh2yZ4ddKgXbRfNeTx+1QbnWqLeUg4qPyvOtx9rgkT/2XaTFxlQum7bTzPcXO+0NY4ozurLeqRMGMUuNe3nHk0AbCaSk8cJtqyhPAovCOrDAt1o4v5B2286gfqTt9YPffLqshX5Lm2YVDbPf7VjVwiMi0//YfR5C3ZCy64YFhhYiT53ZJ2sLptoqYOyIsgtuSNLXmz1hlHBp6xgt7N9l34gJQh/cG9vLkHnuk6PNJuCbPruIQURmgxQgVrB9WolTFIeBQBqjTW+AG/SkHSTx5Je15a+4yWR67hS/jUhpmCsIF77VndDhMpa1uGNn/tj2AsDnimHGw/+Vo5Q/CmN73p7Ed+5EcG//Bhqn4tnzzjqQPQDAqGmK2yYIyvi3i9DJRNXeUtPfcUTL7qzRhkJI2hzT/1FF8cCs4Kk4EGf6zYWW1CPkp6q1vdatjC83No+acsl7rU9KAsz+QrDiVN4SpndENQ+b4JXp0EhL9pD7pXO2awCX/5k//0mzGIHxIucULi8ZOm9Gu+KEiZWgJx0+6ojQvVLfHWRdJq8zgOpC7VoKjlWqaM0siB8bQlmteu2s54KEzgOW5pDzqE0WMF6dnPfvYwGfNfT6tIDL7Pf/7zw8SMDDNkEQOJ7lAe8RmE+belVSqrUy95yUsGg0sYZWzlPnUI2vLWvrIPuIS2VEmVVTmMGUMqnkZ2HaOpDjDlXhla042wn2SoPwqPXNMJ43dSoK76BYVl9clqim0pxkJmRWBQYGTN41OeXb2Gb5uMcvEPN6hxNw1pZ+BC5I0SY4zYPnTeIEv6bTk8I8CLPFN+5MU5Mm8uIjNbq02AHw7kM6AYVfgnPtQ0WyTvGlY+jCeKmD+/+AO3juWAt/SuiSse4l36r3ukf4SneC+ceOkTU+AvfI0Dae+kyT33wtXVzSkoUwbQmtamcVjproPKcytgJiBpp1UgDUaIc5YmPdqHW22jFsIweNJHkDbSVtxiaNNhznH6iwKjx9mmvFGcNlVmq3m1/ehPxE1eyiYtq1AvfOELh1Ur6ZJ5ZZZ/8myhDtJIn0760t4XXKLWmKFytSOECZjuGkZgWgR8jISp6SyC9HUmA0btTKukcRLQtk0VtPB8WZ7tIm9rnS17W3GywsKAcrDcbJB/q9TbunoWLorIbMuytdkWJQOJKwy0aRwE0pJ+4Nnql2V2RpzyUIrCqEuUjjILG/JMDikmYRlODoj7evtNbnKTQblzF46M2dr7oR/6oeEMFEOKO6Q8rmNIOFekbLZhrJKR2yjJ+HcsDzyvehP/8BOP6UIUvduGQ/zSR4O4py3G8uBPz3rWh9Kf5G2Qdl0E4SstwlT/2hWkjnhG1qyAkynP6rZs/aRjsmQFyMRNW3PLGDsG/vGTHwJucddXfPjXSpMVo/yPkr/w2l9bS0v7jlHG34ARZaLko8IOlDs3ZWVKH5lXX3mEkrf7fcEljCdMZY2qKGZjIIWbhgkqA+YxI4xbBhohDYsyYKBdF7jDxCo83gfoiwRcv9Q3GFCMAR/a9IVyXy4HfQZf2r4L/BA/pL9TGFZ7GE9mVgkHwkhr0/0w5QhsGTrT5vVlCg8SprZzjceNnGYQZEBahbPiRLHH6FKHhDNjvuENbzgYTwYA8cC1lmcMKYM2oEDNTPOjYtAuCdOxGtq2rv0OpZ3SbxOuDY+0j4movmRwRraJDHi1jaQrHrfIFUQHz4OwIWlsEinftiH8xTdyVL85twrSRtrERIn+WZQG/7Zd3CN+2tiExpklZybpE30g4eRZ2wwF4me8D++5mZTJU1mtilvBYkBZgXJeivtU2+uvKRvynDz2AZcwnoIwkkIMM9No/DyHCZW4YWQojZBrC+5IWIzNoVMNpkPKbxmFfpIQnk3xdBF2nZe1X6bfOLDsXI8VqKtd7WqDW/pV+mFbb8/xS3iKLOee+AXr8hrEbePX55RLfr45lZkiKFfKpt6JJ05IPIpXHPLCIHKwlhFFlsRLHPENnmDFDtm6I9tjZaxU4Rn/KX28QsoAaZeO9ZE+Adpfu1bdq63Trp7xG9+1gT5s25lBqz8xxrOiakWTwWsQ9JkJK4biGGBD0pEnw4Aebtse5Cd/A2cMrpRnFSRt15bGkD5/lBgrGwIrTnQPPq1TLnzMVr12wPd5ddQHssIckN2MlXQHo8b34Wz9B8KLJ7+Q9kL8MrbHT/7c1E8/QHSJeutPPlPyspe9bFjhUv627cOfpO2KpJs+sw+YfNsOVBZTVTzuoTA6AxmESRF0FKZVEj9XzNdxpFEtePmFEu+kIfXGA8BLAkIR6rgUZesPea7gh7+EwHmXO9/5zqcFcSw8bJLnqUtLFfPcA+WNsLf9zCqK5WUDhD6lf6lby5caJ+nEHa573esOW16JX5Vje10GNaz06mwtZePmXIGlcQMfiCd8yuE5JD73hMMTbwl6c8evbq50pSsN5Y5/wqTOrgZZfQjPrFCQwfCoRdz1H2l5RvLxL0JGq7NV9IF8UCB8x2LgpzbAr/RL7RT+aXP+GWgzIGpDq6VWBQxsz3ve84bzLl5Dt3XjtXP9ytkXz67euPJ7IqsH2ky7kp8MxMkPyV9+qEJ5+aW8rX+FwZzesipC5wdJo0Xy5O9qADcp8K03g3rKeBiQ5xQiI/q3e3LjlX5b7uRxrC5TkA758fKGT654czV8HCtD0g6fa9uANnYuyQRQufjzc6VfapriqUNt7/gnH/HUMcZ69KC0PDsiocz6jfYJpIOSTq7gXn6t2y7iEr0ds6KQAeNVrFLgnj9GhBlhGsJ0THaVblAZm/TiJm8kPOLWcQrhhWv4A7VN5iH8TntF4HYFKb9yE/oqgK627xg9FJG3yiCKLuEqklb44FnfMyM3E3TuyUx8Kv6yaOOm/ZIuMhhaxTHAGATTthB5gKSV9pcGcDegXOUqVxlWk6w+ZWBNnORVDRthfSvL73HwU3pJM9cK8dN34s8A83ozZQ38kmfHasDTtFn6Jjd9QF+GyC83PGeQGDQdDEa+0+O19Fe/+tWDO/KxVZRnhpMzMcLlGz8MLW7vfOc7hwla3e6JjChLCLinPMoc9zHwa/vxKkhe4h5m/2rrkPqGav4MDxMWlInKqrASTOazIhwkn0pxD8JPVwa0lcX3vve9wz0ob9Uf6VMhEIZ/rSMK+GUcpzfkT1/RVfJymFz5halphoSvadb+tOs4XYtUrmVuGOs5g5arzoJYnMi9MJiMuYQvB8DbZWaEqdKh9HW+HPQVX0Mk39pZOr4dy/InfAftlHhx23WYOTvv5KyPTxik/0Lbj9zX+of0Of2V4eQsj35c4x2UV8lHmspHljxTdvIze22/cq5MQdzIkmsgLbM/9Xb+Cx+4CRNlVesBnh0st8LG6CJ/IE7Szn2ex8DYZDw5b6Gs2iHGWcfBQRfqh3SodsRb+pKeNIDZPvnt3/7t2b/5N/9m9sQnPnEwmmytiEcva39hs7rEjc41WBtsrVT9l//yX2b/6l/9q9m//tf/evaUpzxleD2dYZY+mr4jHZT+xz0UzOsrU6j9rFL1O2qkTm3+3PEFXPHUxC3yswqkpW2zbbcutC0Dhg6xha5cDDvyqL1cjc/aHfGTN3f9JBRdo77aXTj9LfUVJ/FMmpyv8jkE/SirifxBmONqu6PC6W27VBowKwzD1Bg+YZ4GYRhpdJbnW97yluGDWmY1logJcP1KaT64hRxkw2xxpSEfDRulm7xRypR8TyrSEXXoLH9nvxmf0undz+us/AnPzW52s+GjiZ5hire7xnPlZYhYxbE9kNlcBvPwRrjUPQIeP33dSozlaCsz7sNX8cKTXJeF+NopbVWNGrJgy+UNb3jDoAD5QeKAcCljBXdKjgHkf4Da1haAeNLP4JfyJg3P/PCI8aMMDKH4jUF6eFnLBXjmALoVP0acZzoi9ZtKr+OSCF/TZmBQ5UZHcsdXK0O235761KcOho5tV+0ofkgbiEt/ewZxDbTIvTBpR2GkYVCUvq0fhryt2Ohl4TPIckvb1jZur4GtdGnaKqzbdlMQX57gyjhx3ODWt771MFZERg4LKT++1LqkXPLnZwwju86XmUCsAvEZsw6dkx+TmbTVPKQ82kFZyC3dYfzF42o4gTRDcU8+0lIX7YmvnrUzpJ78XLV9NfKko8+YsDk7mRdUpM0vvAL3KTdM3e8STtWsoK1UmB2GY6zG0kgazNKvPfZ83v3Zz3728I8cV/SsZz1reH7GM54xEDf78ZaXKQBLyJaKvaJtxq8x5IvprmnkjmngU2gKVVgqb/eJv/qqszdWn8wGI/xjvKn1rzzQzxkSDtnqi1X4DwJ5KJ9r0nIvP68rWy2oq07xD6bcUj+rEd6yU39hlDvtPBYXuBuUfFWd8otbwi8DA2EOjRt4QZ3qoN2xPrSFdjSAGbjwmcHkjSerTnQnN32rQlirqPR12kEYhlN2AxJH+sJZbdLv6fVs/xmQGWcmJbVPJe6q/WXX+kTKm3qSNwTahPz4HAj5Wwd0jDOOjLAYpvN4NOYnri00BhxIJwZQ4DlU2x2SpmeGV3SKcIg7N32mwrO+Z/Jl/K4yv6ge+4BvM54qwkBMwDxMJJRWjuyPW+J1yNVKk1P+/rRO+MxcMNU2hHtuvkzqLQDfiBDnyU9+8uw//sf/OLPw9Wu/9muzpz3taYPQmqFQvsG+N8BBgDehZSBclABaJe62g1KgiGxZ5YvaZs1RBEGtc71PGFfGjAGDcgif4rcukhdKmtJnMFGeOWfCL0prXr7c1I0CF9bKhP/Ymf2Rn8wWW9RyCCcdK2x5SxFxS54JOwVpGFjVwaQqZW+Vd8d6MJhlpQV/rXKYjFp55mbAMngyfBiyGcDSZmlH7WqAt/IM/NPHXAPx9Um6m662FciAos/1MSslypO40q/9BnLdB4SPY8B/PLHaGr6uCjpA+2m7GCet7NUy1PuEE9duhEkfGKOjA5RLe2mfpJVyZ6VJm9OdysGfDuUXnapcVZ7Fp1sZjtzlnd9JSQuS1z7jEsYTRrYdXwOEMNIM2SoT48nPSylNyhPj+Ws4DNR4GOtaib+wGK2xDVK281784hcPBtSTnvSkQTmYUVmJUh6CmrhpEHlEgJPfPjaWOuGBDgsGWPyrCi9tFre2DSG80eEJDkgz6bYYS+MosWr+wlMQ6mYm6PyPLbcq9OFB+lPtL7mXjsGDMWOw0ufSz2r4VSBeBhf3rikvJaU9TS7k10K4XLWVOHlG6sdgsnRucCSnwD39od4H0hKW4r/e9a43bPVB8huDsuNbeJq6KBNZde6Cv7QN+iljx2Kkb2kTbYXH3DzjIbk3ubS6b5JqlYHexe8WaZcKaWYQTLuE0qdAXGHkR7fT8fQ9/UwmDNTCp1yQNJLeGKSprOmHbbjooqQhvayCKJOyc9dfuR0Wkn9F2gbUIeMNUk4TNW/NAb4gcWq8FvGjX/DVlh/eSpOfMrjiV55RK8d0Fblj3Iof3iROwtMzylXbKRTwh5QjkEZkPtAeGYMdJbETZSxXHqCH00fafPYFoytPaTDQgRGma2AWplddnSlh/DCYhA+Jl7iLECHFfKtS/p1DORBWb4cQ3GzlCYuST32u7svmvQtQH51Yx4tQEDadO/Ws9V1Ud+kQIh1bWG06JkxoGzBWrnmER+pjdmw1xVkCfWMM3CsPQ9LBXzNvxoz+WcOsivTTlDFwr6zKzHiy7G0whFoeSLzUL+AvbVtu6hujWPgqD7UMgXvKzWDk7TxpLDJ4pKU/SitlSx0MtHhGqXJLWh2LgZfaCtK+3OKufxiY6ERnSQ22Jp/6qbaA2m5pm8p/btom+iSQX40XMjBKn/618mSyTOdrY2nUeEH7XCGONFO2FvoQCtKvwg/xPdNfcTsKtOVVjkyokDL5ppozkupf6zHG1xCoB57gKflheEg//kF9dp++In1b5Qzp/JFA3jVf6QkfQzTtxi99hx7IOM9du6ethBU/+iPPeCC/C3MZyu6sJtIvxZNmyoIg93nedXxbL8QYjMN0wARKmbvT9bbnGFFZZcKoTUA68pQ2o4mwOhtl351lrdGtmginIZULcq9B0hlOEsb4v6hNNtVm24QqlJQAZZbDrtDWOUpkDJEBxow+TgmIz31d3iVeFL9n/ZXyQ4y0KKiEbcsnbhRz4isTI5ECJ6eJ7zpVv+qOP8iqlZW6KNBlISy5pTTVA79OohweBNpD24aX7pG2xVezeudD6V8DG/ejgHYkB+Coxu///u8PZ2uyIgvKbND3PNXfQDp1vJjXP0G4yBte5C2xo0bKGygzGVQW8saY86FMkxBypMzp/8JlbFoE4x5DFRI+PFJ/SFnkgfjZrhWPga3vyDP9Zx60RxYllJ3+gFMG0fJQJO2qnxqn9QVpSH/f9cAlOJzGScet0Bg+qGavHWM8C9d2roNAnjoBS9w2hj13y8V5oyQNq0PWQSSdbdPl2QW09V22/vvIJ31SX6DQLKXbu48xMNaf029aCE8RGSQoJ5gKuwiJl/yj1ORBuVA4SN+eapO4S8N90gDpe9PO6pF6gzDca7iAe1sXgwBe2fozSCUfSDpj8UBYvDL7rKvEHasDz9N2yD1daLXfqhMDJiuhY22xaWhbbal97TJYeVIO24b6K7/4p39PlcsAq2+kX8EiGaz93WrycRhPLZS3ykNkx2TNBIQfnqSetX7tfX2mA5z3FS/urskr6XlOu3BndFl5imHKrcafB2OoBQlb9t72M9lcB/JlNLEP8tJILcc8LBNmW3EJ7VqZPlYpjWtVSOMxYDaFmh+h1ACMJeeefO7At0jcU9DyruE1XDoWN/5oH1HrXVF5cVJRecOI8NVrSo1yw5faJyggimOMlwHlZCk8ygBqHqsiyk7e6bPKRPE5r1AHoDHwk4ardNLW5JChaNsuxhNE6Y6h7ScGJWc2nBNjPKV8KW9oLD3hYjwZYLOC1rEZ2KJzSNwr/o430I/aYaptDwPa1yTCtowJrU/PGKy5o/QTmCqbcjOeKub1UdDX9S/hGE+R5eNA6oVSVyA7DCfnDvOCSuQ4cgS1nrlPesLQAdo3iJzXMCB98hUZo6PoEAsawkHNM24t1EHZvZXsBZtb3epWwySs6pBlIQ+LHg6O05eepS2PlKXFvLLtCr5taqpCFHKsfI2k4xMSDRSBwZRNMSAMzhJn0gaNYrbjPJRrljYTJg3kvnaspLkvGKvPvtXxoEif0XcpM8vp+kTLp/SbKcTfUnT28D1La1VIC9WBIO6gP1OAnvlH8bbgF9kD4ZWHsaOuFB/5EQ4l3zEkjLySH15ZvZJeRdKp6Ykb5B6fsp0Txd6xHNIW+KvvRofpK1bgrbzrJ/QwN0bEJievU5BXSLmsrNhCdD6VocygMiYYgOugm35SoexIXWt/GgsLwoXkn227uB0Vkleuytvmb/UGD8hQyggZM2tcqGnmng7QxtWvImGloa9ExrSBuJ7jnrhjvI1fZF+bmjTd7na3Gz51kk+WtGjL08I4beUpq88QXi2Ku6u4xAgS5lPKYbznNIwOjNmeo8THGFMbbawBpzCWlnysQhFYq1BWvnQY5UnahFKZIJ1iH6B+7YCNR+pXebVM55QWJUTpotrG+wT9QL28cZfvr8QoD+GXcK5jJAweW01hEMQNQa7LIGGTRoUyGITkAzUPcD/VThlQnFNy5sm5hcTnl/t5UKb0JYrfap0Z/hiSnrCQq7zAIOGMmJkneVwm/45LovLL2SYrEc455Rs6+kuV/fB4irRN+o84cYekAfU+SNiEDxjJymMia8WDf/pARc1Hma1IGmDdQ5s+d5S+Gzfx1UH/ZKQcJZSjrVvKHP0BDCbGk0kMw3YeEid19IwYQFafyI8JSAvlSFnCI/G0h7jhVeUvJGz6D3hOOPqRwWT1ya+tfLIEUq6kMw/CKHM9+D6mX4Nl0twFXKJnqDDF10JlNQJFjdEYrzHSAGOoDHK/iDCXoeQqr8p0liyr1iFyy9eWshMO+Ct3OtC+AF/UMfWEKNBVIQ1CTrhdj2LmehyIkmBMMCpQ6szYwNNF/VcfkgbDJqtCQb1fFunfiZtnZUge6c/VWBZOO9X255ZwFJ+DnjkYn75fB8wx8AslDOWfL4TX/PiHT8IDt8STL4OLHzmkQA2UCduxGLUt8Nq9QdRRBVshBiR9mHv6rv45hqSFtKN4rtJOv5BG8krbVghTISzdbIDk53zOs571rMGIIld0bybTFclDWRlOGVQr0pfF51f7rmfx5cEw0UePGpl4KQ+4Dz+RZ5RD13UFTl1QIFxF+OPq7BJjGZmEtGGTDygTwh/Gk7hpR9eEk27yJ5MZX2vaZJf+MNFkQDn/JEwoqPct5CFfE81MOOWVulW09dplXMJ4wgQdNRVHOoqG4scqxWCD0BiDDwOYLX8Kg2L2uxe/g8nSID+DiHIDZcHtKMp2VFimHvtS14MAD/QXfdbVTLUaFvpz4Hkez6IMrHJuQuCVqUL6+rRB0qCSMsNUfglDPpE+TyYp7lqfNr7n6jaWPqXP0MQv8l2RtGv6qLp7JpMGVte2vh3TwD/9wWCYAc75UkcV8BMYKHiKwvMxxC+Gh/D0o7Ztt9dgLK08x4/u1776q2eGkK9Km9AaLOWF2om3ONwZAyYI5EmZ0n/co0VQB7Ks7Il7VEhe6p2ypgzVjdz4Ur8FBmMQ1PasZfYM1U24HLrGU7wegzRBGvitLeqKXkXK55q+kzxd8dNiCMOJjjR5QnhNtwi/DGq4vDWYPCH13Tdcgjsqi4kaKIKCyREelnX+Wq+zQO0AhwHpxzAihN48sfqUD3IpcxpauV2Vd9+QDnjY/N5V4A9FgT/6ADKrapUZ//BQnDECaVH2OfPkeUxBLQvlqVAWs0HGE+XHf1HbJkzKw8gxU8yWHffUL3VBNd4UKNK61Qk1jcRN+ghqmoymzJw7VkP4qV/YsrO6bpLI6IAMpvSztq98r+DOXzj9gnF93eted3ibyhfonWtzPo7+jlyMobZ3i6wwOv+EDOLCx1CoiFEwZTzV8GN5cVMXfTLG01Gizc/zmJttRQsL+Tr3WDmrW9KJm3anCz7wgQ8MBvOU8RR+4auJHZr6fIWwCW9MbPWActIfyozHxnf9Ba/1jYz7kOsiaGflVz6o7btv+DbTEpM0ZB1owjhCd4Mb3GD4+Whea24HhcMA4yiNaZ89P1GlqNNIykuI04lqufcBi+qySl3Dm33iDyGNYo7Qm2l7EyaDRPyX6bP6k1kUhU+R6WdjCmoRojzaPKVpUGGcUX7KJWzCj7UNt+rOOPQzUYo7SJiaVpSmOnFLGvF3jfFEkeJbDYPUPXFD8UPyUA8zZwq9Y3ngZQY3/czM3Z8c/NYqhmh4n37keQxxZzjR0be85S1n97jHPWYPetCDZne/+91nt7/97Qf97Xybdk6+Y+CO9FXtH6MgcuAwOz3MmOIOrYzQyYwCdTKw1nFF2IRP/Bbc6X9lbVdEjwop7zxY2bOwYHvRyg2+1TjtfSXAB/xxtpfhjG94VZG2FYe/LX/6ySSs5XuQOGlLcYXljp9Wy4zr/FxzDICfvgG1nGNIeqAOxugY1BXz0thFTI4iKoqhkEY0EN3oRjeanXvuuYMAes6q0EGAyS2jA+6Usg4CGsqypjdQdLLsw7OcCbdrx8lEFEiUBOMiS9L6EX/uY0Kc/sfPvUFMvzN46XutIlsGtU8n3ZSRcmFk6L9x45849T4Qjpu01ImSjrLmFnmFWkf3KPnErw0jvllnzjBBW56Ei3/KBOqS30R0rIbwFjFAfdMJP9PvuAtT2zBtMAaDuZWQm9/85sObVHe9611n97rXvWb3u9/9BvJquoHTQDmlw9PmmYwoS8rpqpy++5cJRsLXPkGOIkMxwhJuDGPu8tfH562UHSYqr1P21k35GB+MVvyslHC5Bm1drUBrdwZIeFWRfMlfZA1va7haLkh5K+KGr3aR9BXPDKbIf7vyNA+ZWCqXOph0MqjX0Zm7hFHjCRNidQLGIB3Dsu/ZZ589zGBufetbD9a2WQyL1bdiKHNXy3/cLQvqVLZPshyYBnE1CNTnkPyVQ74GGp2Ju2czGV+6ZTxR1BpJOssIVzpOpW1HLaP666xB/BbVJX514Nt36K+tgd/W3XPlYa74rM9R+laH3MdvGbThkm/cKReDTp2hJd8gz/HPvTZEJgvkKjNyedT6tXUdQ60/Gcq5p7G4wk25I3WywtCNp/WQtrDiZBCNsRK41weEC8Vff6gwKNqqQ2eeeebs+te//uymN73poLPveMc7Dvqbu7ama6WDpCmt5IWiMyIDydsk1radQ+0GzJRB3OgocRgD+kTKDil3noOUA/hJk/xaETV+bAvacpMdq2PGPzKp3OFb+FJ5qW3DD3G545XtUCs35Mhz+BGe5EovObpSz2S2ZYIaF/IsLL1BPyo36AfunYOiWxKvTaMFP3URP8aT9tYHxsq0Lxg1njAuA45GjYGDSRiEuWYvT3jCE2aPe9zjZg9/+MOHWc2d73zn2R3ucIfhev/733/20Ic+dPbgBz94WKky0zET0rGkJy1payzPIO2AJa8MaTR+wmkQg5mOo5MRTEob0lBTDc09nXaKhAltI9RVx1TXtAm01zEIj6fh9z4hdQN9RDvraz4eyV3b6m+L2rbyVHj8ZqRTVp6XQU0/92mvgJIxczSDDGpY8My4Unb933PCcNOOVtYoQWVLHqg+J47w3MXFH37cPIN0MtnhBwmT9FylJ777POM5XmUbMoq/YzmEt9o7nyfAP+4oPE9YBNwRnS1+YIfAapP+z0AKGCC2em3lMaJMMJI+0s8yCfWsb8QvbvKJHjGRfeELXzgcIKezuekL+oCw5IYxaJAXTznll7pA0g74pxzyMUY4r2WCnrKM0WGi8nwM6kyWGam+lwSeyYF4kTn1VzfPqNbVFd98jsfX3PGMTFldElcdc+XnS+/4L25t+4qUOfmFT/oB/ZhxNuG42VWy+qTtEt5VmHmkbNmiVWZ1B2Xjn7T2BaMcDzOC9l5jmQlc5zrXGYwlhtR55503GFGPeMQjBnrAAx4wGFT3uc99Br/zzz9/9tjHPnb2sIc9bIjjEKOzGjqHRsXgdADPEa7aKTAfUTCUNOPJWykaWecF8cQfg7KnIZNfnkNBvT9OtB3Oc1u/ZTulcG099wn4om6UkHbNtl0UBDc8CL/G+BAegau+5WzBmJGzCmq+oN9TgFEwi9qk+runhNWPEozyG0ujjTev7PhjoDVYtfEqko5rTZPskU0DQFW8HctBHzNr19+yolB53z6PgQHM+LVDwBC2khhjCBg3wpAL23bnnHPOEB4iH9GlFWnL2qba27k9hp4VqJzV0R/l6Z6Odo7HJFfZo7uid1u0fUYfzzeeyPW29il8VVZ8t+OibuqozJByt/V2L4yrMPjjwDUDCj8ZIfzxOu0inL6ij+Bx4o0Rv/i7grwYzcbw8DVl0jcsjnBfFdKnz8g+HaC8bX1TnpRllzFuro4AAyoBAWEE2cZzGJGhxJBiNN3pTncalogJJz8G1GMe85jZox/96GFV6ha3uMUgtJisYcPkMFan4J6GTWcAV4MPwbQCFeOJ+zzjCeSTvObRtqN2vl0o72EDP7Q9XqTPUAQMAQZGZrzzUP1zr5+ZSVFWi+Ivg9q/DTx1oKrp1/Ztof+qE0OHwjZYjUF6U2WOu3yqPEi3Ks6UN2jTa/3Vx6oamieHHd8O/cHAafauv+nHEP62OrLyXd/3rE9Y/WA4MZC0p4Ed0saBQZJuzq999CNtpm/OQ/IWlu7NYO8AucFeOcmePuCXLtV4Sn9P3YKUK2knffWxFSZNbseNlofgGe/oGsdVsu1lfMT7xKlUoW6gfvzqdqi+IC3ti/AND/UPuomxgk8Z91oKz8LTPOOr4zUxngJlzoSz9puUcQpJV54xoJQzfbatMyTOrmJp42kMKq8BUR0EABM1KHdX0MHMdgisrTxLy+lctWEhjV8hHY2RhrTt4dAiYU/jxH+qsTTsGG1rQ47VYxM4rHSPE9qw1osCMGvNzFW/SD9LH8p9+kzSoFDcGwy81amPb5Jn0suZJ5A2SjnG8oo7oqitKrhOGU9jqGlExvIMeNWuPAmDF2PgHjl1T5byFmHkvmM5WHWyxVWPIoT32iN9I+0WxE04qwkmrVZArC7UgbG2KQhrEmsCHAMlbZY8g/ae3s6KlnM6eQM6W9H0vkkH4wkxpJKGtNE88JeGAd5xD0ag8i0T97DQ8s9z6xajhPHaytEY+EfXaEPP+OaTBfkgdMLguasFB32FkeV+HTmjO/JHgfAVGGr6An7XvpO+N4bE5a8OdJr2pgum4gTH1ZabwIGMJ8BghEktI9LoCPNBh/IKrX3Vm9zkJkMDaiggLOIkbFUS0kb80qg6mYFtFeNnrDEXNfA2YZc722GjFXDPZsAURFaewr/0Ic/cQ3mOvxmUwSGD2aaQlSd9F5L/PCSMepGZrDxlhjiGqf4iHX7kq/JNupHHxJ1Kg3soz+rTV57WA4PTQXHXTEbD37R72q26A167Z/w6CG71o/YLYXPNJFQ7G+gdv7D6lD4f1PQDzyhlkZZ+zEByBscqk1UoW4/OQdnSyyoEiJcytGlXCIMcaM65rXn9fFugjHjqcD4DZRnDBt9TX8AvRqhzT1bz8t0kaeOfCR3DCY/JmXhpl7RNKDxuea2fZHuu+jGIlTsrTylTG38K6ku3Meqi25LGvuFAxhOGmvWiVvA0HHeN4eo54Ga2c+Mb33gQdIfUIAKm0aSN6RojzE8nkZermbtOprH4haaQuNKvlPS2FW3ZUkfuoZMOPKh9MDziRhEwnvTBuNf+OMbD+FNkVgKyQgTr8Lu2GcTIqP0b+HuubhX8lY3RZGWBcVjrUjGVRkUMHOkiA6q087wsEpYMU5xR6h3LwxmWrNLoF9omPEx7hM9jfUQ/sOXiDWgDIEgnaVkR0p+1j3ToYfqP8WSrL7qw7U9TeUlTP9bmZMQ2k/+PWoFyb/BnSCU9acgDlEkZpvpuEOPJYJ+Vrm0EXmT8YpT4PAQjCn9qu7WofuEx3jCg/Z7nbW9722CE6hPCCcPPhM7igbbkVsc1PG2p5u8+byLTi5C88bhdqV8F6RPKVXXmqunsAub33AUYYwi3uGskzKxEgM1UhLE8yIAi6IkTQa9GVyV+6aRWA6SFKAWNpsHk4eo56dUyBSlrpW1HW9YIVOrlOkZQ4yb+vkAd9Q9XddP2wBDwlo4+ph+EF+4h/PEchZ4JgXSybefqOfHnIWmilCl9lpKTjj5aB0l92X3bLomfcNJBlBtDJ/Vo0aZTIb0xyAufUJW/pOUamUoaqWMGXmHIo7MawnUsD8aTF2D0jbE2ws/0I8DrtI02MBjaLnLuRr+HGEPSy+CKxJOWNBlPVkqcQY3hPA/6nDKmHyD61kSW8fSc5zxn9nu/93uzl7/85YMRlYFdOHE9177FLWV0nz4tnLo46pFyxS/5VjoKjOWLAsYIfePjpN5qNLnBJ+VW1/AtIE/0QG1X6QlrTLPy9IIXvGD22te+dvi7hhUnBnZdNEgZ8BBJH/FrIRzZtmXLyPOsbCkjP4sZ+K3NUu6xtKagXIxp9aqoaaTMaFextvEURlTGhhGe3acxK6M0ho7i3lKsWQUrGCLoaTBIvCCNzE06LFzKWqcE7sk3eQcpK5IGmtfRtgWVByl/i9S71vekoeWRZ8og3zIJ37i3PKx+SQc/KYKDnC0A6elrgXQoRv1WH5b3VB9MWaqftChlxH0s3jqQV93mpDzxoELebX7i1b6nbhRnrXPHNPCJ/rKioK/pcxB+BsKlD7Z+nk1Gr3a1U1+IZpxUaDNhYsjUfsNoshNgxcqg2rZ5C+VIv5Um8myC4cvoVkxe97rXDYee7Q4kDBLXNcZUyuA++brX/wzuyqZMnmv4bYOygXrhv6MpxjaGVGTDFZ/wQDtA2j68BG2X+pq44eUrX/nK2ate9arh3opezvpC+CYN6bkieSTNQPlMuhhI+OoZEk4c8k8PxMCtaNOr4CdfBqGJQOq1r5gvJSsgTMJADA95rmQw0zE0kqtG1Ej8NFgEG+MjoKF0jMC9hjIIuUo7g4p05JFyJHxNS/o6IPKsDLuClg8dp5D2TVtqe8vQFII2Tp90H9R7MEDpGxmA9C8rQ+mP66D2LekzxqzOSJNf/FP+eRBWX0fuE6fSPFT/Wi73+EN2yGYU6xTaPJMuecKvPHfMh/7H8NAfGFB0GUR3aRdh0k/jlrbDZ/e2ia50pSufHpjDf9f0aeGib8G9wdRHNR00t3IVvyDptO5jEFY9MrjrQ1W+Yvy1ZQT1is5mgDDmGFC1vNsMZVT2yM+1r33t4XdmVonVC6W+wqROcRMXxFV/Oku/cHj8xS9+8ex//I//Mfvv//2/D/dWofST8AyPtS8CbsZBV0gb4KUxF8lDGGlwd035PaOUs7ZTwL22i7jCKYPxO/04qGH3AWsZT2OMhOrunqBE6EPc0yA6R34ynEZOAyZ8GN7mmUbmbnYTSxdFQANhQiBN+YmfQUh6u4Ran46LEb5oz7SzGbk+9jd/c/ELCZV3+hnE3bM+lGerKCgGwRjNA//0Y+nqo9KL8SQftAgpu2smCesgZUl6QZ4pTbIZOYV5dYxcB1aeKP3wtWM+9IG8PZXtTnxPv8k9wtP0l/QFcPXyja0i98KF/zVudQNhpWOCYaC3AmW1xwDOL+lDvR8Df/FyxjDIwAy5phx5Bm7KJbwy+MyNFRz6OWjLtC0Ij5UtYwvjz+9x6jaq+vJ3rfWo9WJ0kiFpCOfZ+SZvYjqQn5cKkkZt16ThmjaG+NMZeBudmPD6XMZN+cZ4yrgcvylIJ22pPyt/azztGy7uuRtCGiydKQ1bGxiT+WlIHUsjaigNxF2DaYw0SNKE3MdfQ+lYUTwMKfutrhSSe+SeP6WeVQTx01HS8LuAyo8K9TnpwBsUxeJqedrW8N/+7cWfJRAm/Mp9+kD6KjdX/cVK0bqrKUnfVXqUSra2MlCG5kH5IhsGpwxwq0I52jrXZ/JgAKzG0xTEq1dgHOJX5L1jPvSB6C76CS+1Q/pg2wZpJ1T9TUTpU/GiS4Pcj/kB+XD2CeUV9gycqyBl03eCmo6+BfQv8BNWubi5CmMVzRvZ6iQ95U3a24rKU2Vl+Pkcj08tGONA3cb4mjaUBv1AhvAi7Uz36CPevNNP6A9xhE97es5Y5pnRVcsEdAbe0olWHANpgLjSYLAKm9XtKfBD4qVeMZ7SxvuKjfZEDRXCTELREkZrKKRhLMua9fDTQbjX8NKZajxhKWkfy7Q3jFjlljT9ONjeMEvdN0i8Rmv506uzwuuIu2wZh88t5nX0k4Da/wA/sm2X58qjqXtpUF4hymxMGa0K8SkVpP8mvZr3GPhTTgkXBXcQSAupn3LkWdomNpHXVYFX6xqaJxH6ga3hnKsba5cKz1UvJozVBOf70rcSHzK4edY+wqOE1Zd8G8rKk8GezOgHq0B+Bk2UZ/nJ2xWlz5Il+csDVVnwbHD3SxbbS9JBUGVgG6EOyqp+yo6fPsljnFNHBgm5cl+ReK78jE0mV8DwwkOUFWHhokfCN+7SDz+1M/8A3/DfCyEMpxg74W3y4G7yhOgB6XGf4jt3JEzKr/5t3ihl3QesZTxNMXEZhIkoDaxBdYrqBxjdMrv1s1335je/efasZz1r9pu/+Zuz3/qt35r9zu/8zuy//bf/dpp+93d/d3D77d/+7dlv/MZvDCQsP2+FXHDBBcP/pKxOafQIq7Ipo3x0ZveQTn7YkEfyQvLXQXVmwIvaqV2nyiVchFaawqae+wq8UG/KJy8lqH/asUXLu/AX6WdmfFP8Shu1BLVdXPUl/cy1uo+hdfes/OpkgFO2TSB9CMiiGT9FrL7yqP5jqIMwuWEM7HPfOgjwJQOfe33BxxCtnle5TL9p+6vnytsMiAwn/aL2GeE8SyvGsPjaNIOnZ2G09/Wud73hp8E+XcAYE45f0hQfQdwyuOZZnozn1DF6lHvu5S2etLi7j2HEaLJioz4G7+SX67ZC/ZUR4TViQDlLpj5WBfEJkTHtpt7hQ/jsXpi44VfuI2dpf+4hbnWcAm4JKx9t6j+zzrbFXbruXQMv2OhL+mZNr4V8lRUydgpP/rV1m3bqsQ9YW/OmwSrG3MYQZmMyIRNHR9LZ+GFupSmIZ5nbyhID6KlPfepgDD3zmc+cPfe5zx1emX32s589GFbo6U9/+hDmiU984mA4OXz3lKc8ZfDziq3XQq1K2U/W8DpiOitKZ8vzYUN+ypDOJ0/8ibCFgty3/EPiUU7SSj24535foE4VeMJwMtNyr75t26U/8qs8BH6I8WS1sk1/FYiLtGn6ljzjHriv7Qq1XOKoE+XWhlsHbRpmnN4S0s/wSr8JjypSTpRyiUOJmjV77vh24Et0CL7hl1VzkzfgLkwrr0H8QXwGBkMjv9Wo7ckfAfe0Y9rNs/T0Rc/5350vj9u+ixFQ2z9xA36outeB1H3KUY2npMldvyGjVpx8NsFZIQN4eBBZ2QXggXIDObXyZAvSKhQDlb/6hmfChm/cwhukzuEfVJ0BCYfwFX/5e5ZmTTcvBuBvVsIC6YkXwnsk7/SNQNjkH3hOOaVLXxrb49eG3wd8u0Y8ZGgYAwdm6iQE3zIvI0gDc+efhk3Hqo0XrNMg4mhUA6HvZfgA2Rvf+MZhJerXf/3XZ89//vOHz+L7CBmloRzKpxyeQQfVUQ4bY/VOOeI+xpcxqLe6EATX8G7Z+LuAtk551q8oKwOL+7gtgvj6q6s2R0lzXYivDZD7lhZBufUBtEwd1gH+UfJJ3/O8flLDRb4j4x2XRHiCZ+FbdEz6F2r5nTao7knLxJPhlDZb1D+417bJgAnSYDjf8Y53HA6QS5tBY5Uz7SsuvS0sXaStpZktJfeuZE6YhEt5xKc/6Xx1l5aryQAjg/F21llnDXHoaqsYeeN116AOeGc1zQoU40XbGH+0OT5kAQEfED7hB77yd8V3YbSH+GmL6HOUduQnjLDaRJp4rl1tzdKDyiUcd5S2gZQl+jLhXMeQ/ANl0Lb6M4gb1Ptdx7h0HSLSWKAx0lF0Avf8PPNrG6s+r9MIGjV5aVgN7DC51SYfc3NO6iUvecnwcTfnpaxACRtlJH/55vkokE4tX/lHKYUXLY+mIH6EDUXIqtDsK9SRAs8+v3qHxhB3PEJ4R8Eh92M0D/xrmpShNqhxc63lGisfN30AHUYfVA78ojyTvuexskDKmzDqR+FvwtDcN6S9wy8E+oKZes4KhdfhbQtuSQsMkLZj0mbpG8mjppE0xY0OEF445QCrJVZJfCXbT969nSU94YVznzTEoVMjJ0k/SD7p7wZ0sugK3JGB2neR7nznO58+6wQpX8q4a1Bm9VU3H860osaACi/UC/AoY5Mr//ATvyvPpClejFPu3IR1Dc+lA2kTn07wRw/tK00QDvIc6FP1XFSQtFCe5VehDjnUDgm7bzjy3lgZDxivwdP46TSeIY1bkTCroIZPfJ2LkndQU4N7k8GXXBlQf/iHfzh88M2Amc6ZuJ513MMGfoQveY7QuI97MI8nqW8Gbvdjaewj8JCSoTSirNKeU8AXPNP/kH5AGYz1x3lIm4TP4qcN3PNvw0Duqz8otzqgDGLrYCqevORBeYZHi/IRLmHVKcbTqrzaZ6Qd8QQvK8/0B8YTPZS2FmZR29a28gYVA0RbpW/wSzo1Le7KkbLQJ+JoN/1SXOlZffrJn/zJYdAlPzVtcdOHgT4RP8+Q+tb+zsAzKGdg9vkQ8Rh/Vpvuete7DudxkoeyCauO8g5/dgX4qy7OO9kuY5Ba0bPKZltMmwH+ZIIW3QzaCg+EM+6of9LUJtzjhz/CCyMNaeK98PjnPJstRPkKC8KB9CDpC1+NrDG+p4wttKctaP15Ksw+YP4IcgjQuBoOUzUcJUugNChh0UjpMMJUAa0QbqxBK9JwCedZ2jpaDCDPkA6oPJ/4xCeG/zM5P+UclHJKw1XHyPNRoealM6fjw7KdM+UPeV427q5DPfFMP0t7w6L641FIv0CrIvED9xlM4p5+WdHGC4TVB0KeF9VjFcgzMhLFOS/95B9K/VDHKeBJeBgdF34BeXRGrPav6j8GaSDQr23baTNo43lO/6r3kGe6UHxlUQ5uVn8cHH/Uox41e+hDHzoMvvQkHShvRk3eyhNeWvq1NNwb3A3CDAVhpa9fqKttOOl8x3ec+iwBQ+0ud7nL8KkEsmpXAK+kg9LXw79dQdpJ+bWRbUkG4t3udreBL7XN8TCGJd6pL36ZtOGHK95yEw8fuWeLjF94Ji2kPeRjy5BxyjCNHhQuvHQPeY5hJlxFwgWetVcNJ0+Gk/bdZ1ySM0cATI5hlI5lWTh7wWm8NMiY4bQI0k4jjzV2kLzAffJi/dvKc4j8LW95y/B5A241/FFBniGggFojAGqYMfBTPx0a1cF7n6APZdAPT7Q5ZZAZV9zANYoZ8NV94iLIrDDPy0JaSRNRcJQgBVjzzbUtW+IGntWBYouCXRU1L+WpdXKvXBS4fKAOWG15uLcyqm545dr61bT2Heqa+qtzqIIcZhDMQFrbBzzjewU/afPLypP+MA/hfdt+gXZPPsLoY9K11XT3u9999oAHPGB2m9vcZjg3kzRcaz+J3tav1C31Fw7F3VV+Purp7b473elOwxtpZDTjQw2ftOK+bVAm5VbG1DmyknJrJ/V1GP8e97jHsIXmHFJdCUp74E3agxs+SCft47nyMmj5I20rhww226EMOHklTMoY5N4Yoz/V/pG6JY+Uy1U6Md7BGPPXf33qsxXhByTuPuDAxlOY0dIyEE6H810RDYv5GK1B0nnWgXTFTTlyTWPHctfA6QwsZQofLFeC70W95jWvmb3+9a8flJsOorxJu3asw0Kbh05tYEudVoG0YgTgQRW6fQCeaKMomPCOu4HA69xRUoGwUfh5TttW3usfBrm2PWBeW/ALgf5mi0b/05eSH6p5JnwUaOCenFCKqMZflgJlyaBU6yV9s1Xl4x4jSNzwinvSigINyBWliaQfSENaNew+Q11r/dW7rbt+4Gxl+gSknRK+8j3+AX/6wJtxdEPaMgQJzw9B0k/bxk2bxyjPszf5HOL++Z//+WEbj7GjPNo3WzPS0g+yaiJN9akrI7Uf6WP0rJUYK1vOOjHKIhcMDVf8i24Wt8rCNiH8Ul79P27KG/lwjz9W8+55z3sOK2228hhQGXPUNf1A/fEJ4bdnbexe2hX0BP/44RWyKOHTBAxf42ztR8qUZ2HTX0Abyjf6AdQj9yA8/4wjKSfw+8Y3Tv1yiH/K69qWfVdxrD1RgxvUfImV4GB+DJMM8OswWmOJWzttpTFwT16J7/lDH/rQYED5ND4FlzSOqgMkH/Vwjz+t8LhfpjzSULeQ55MA7UWx6Gv4F0zxDF8qb4TLVkNVHqsgeUm3KpwpTLWNdLS/+qjLpttQ+vgVWQym8ol79cej2s9anm26zNuOtr71+dQM/a+HAROvoluEGetriZv+5KovGHzFncfb2ndC4kxB/vqqNIVlrFstuc997jP7uZ/7ucEAcBBaGgZbW3hpczDQkznxQ/yshDzoQQ+aPf7xj5895jGPGc7hMNb5Re9Gx3FTBunrj57n1fG4oaza1BX/UpfKZ27ai/H08Ic/fOBFfuOSOmaSi6SHL5mUSFsaNU15CRNe+RSBbVYH/hmmDDRh6DDpi6tcaZO4SZeb9tZ+cVsGbbsouzEzvED7hGMznjBao+gsGtr3RSxpZnUAwzXosg0XtA2YZ50gHaFN07MOh9zXTujXL+9973uHL5TbyuPe5nGYUJ7k5x5voljG6rqobHga3h5lPY4TeMUYMJuNQcBtHiov9Zt5K0/LIPmJH/5XLCoPiJu6UG7qUsu5CUhf/9L31RsWpZ8yJJwrRameqCrNyoeThLa+eWY0GRANjPhU+4EwU3wSLn1Zf2DYeJ4aoIQPVaSNxWspebuKp885M2Ml48d+7Mdm97vf/YbtPKtSDCBv6PG31ecAOF3u3JSBm59VJtt+zvvc9773nd3//vefnX322cOxDWnLUz6133mOzoOj1r+rQtnUwxgSHVvrkzoyTOy23Pa2tx228PDxDne4w8DH/B5HuFpX91WepIsv2l1Y/cC2HONUG2V1y3YoY018Bk3loWtIGqDc5D/6Uj7xA/f1OUiagX7trbvkt+1ttyqOzXjSATQSMuvQ4Pa9HRg0W9FgadTDhrwoH0uq8tPoOr9y6SS++fS6171uODxuAG0HvsOCvKvgAWEhJBXpyIt4xV/ZdeJ968jzgIeUAQWSAadVCBXhS5SUcGPGE/epNKD65R7/MzOdwlS68lZu7Y/0BWXcZDvKV7qUe3gVPgRj5VMGlLDu1TEyXssoTJvmSUJ4hz8GM/0qK0/hbfjZIv76QR0087X5ltcV/FskDn3XEjBq0pbc6GYrJAb5hz3sYbNf/uVfnv37f//vZ//oH/2jYaC2ysFA8kYZo8muAgPh/PPPH8L+2q/92rD9x4CyHSht6ZIJ91kddk/m9EW6WT3H+tI2QbmUXZnzXAnwu7afhQMGpK3LX/iFXxj4iDe22OrxDGkiz9KK3EtHGyEGq5VBRpPtVelpC3wWPnlGLoOUJ3kJy3CiL6UrX/FAmFBFyhS55q/9fApIftxdw4d9wKWfcCEuuj8SYF5Ig6VTUAA+xsZw8Zqj5UXMXhVpWGnnGTRe8h0Dd2F0knQC+VNuEW4zgnw4TrjkddhQFpCnXzj4f9+b3vSmQemmvFP1qkh5b3jDGw4KjaIiHPuK8EX/yre8kH149Q5f9ZWErfeAX9wY0mbPBgeGRTCv/Vs/6WozZfA7IC8iRIkl39wnf+3rPn7yNqM3UzXRSJnnlWMK0kSJnyulRwa9caqvBQkjz5SvRcph4DQIWHmoyjdxhQvtK7RteAbqzS28cE+eP/rRjw681i/DX8g1aWir8M5z0iXPBkwThOjTMb5ykwZ9Jm9pJR2kXC1Bbb9AeOnxo0foblt4Z5xxxvBWl20oB6O95WUVJD/IZXjpvwwDMpgyuadXpUvXMib5yVc58ywcN/fbhMgSfqSM6qLsbT8AbsBdHG2HJ1aOjDO23G584xsPxpCFBcQQ5eeKl8aifFTUgXDGq/NovidFVzHM8NQ4ZjxVJvpD+UB5w2MEyhvyy6BXvvKVwxjoOeFrPbgDN5R6qZPdpJRbH1EOedf4u4xjqQWG10bA6Pxzx3cwCJ0tPANWKyjuWwryLN10CM8aPR0ijVwbkLtBTSdJ44rDkHMluAYRg91nPvOZIdxRI/WMcCqjcqdDxz/1rBCWf8JTnsj9PkOdU3fKyQwW/yrCE5T7ivCV4GfQSdgQtPdBdU9a0pGedLjFPZiXlrBRzm28VSF+lQNIfvjU+i2DlB2fyI2BsPJsWSSdUAtuY+3QovqvWoaDorZt7sPTlIMucaBa2aCWt2Kq3NLLqqp+kfymIJ/a/yDlaqnCsz6nHNoz8bkbGBlO9LbBm2FvS855Hp84OPfccwdDwMDPOBBe/zKwRx5dU3Zpo7jJB7lfpo7HiYw7KDwcazv1STsjdbV6yNiwfWdV76d/+qcHsip13nnnDTy1VYocALd1Khz/xz72sbNHP/rRswc+8IGD8YTXdSwjh8oU4yl8dQ0/UxbPwll9clU26SRsJchV3ED4dtsudZ4HYSpvWkzFT/ry0j+jc9KXaryadu6XKVuL1bXjAYHR6VygkhmUMNyM5ZGPfOTQMQgcQRO2Nti8hqwIM6qfDoF0IKgMUw4NjtkQIU8H/PCHPzx79atfPbwdw+2wIU9lUv90eNd0aEhZx/iQjiFs+C08QVJPPF+1w+wStFH4ZHCxGoJ3QYQrWyZ4EUETN23s2fKzj6ga6Ax44TsknjRAuigIj7WB8uB/0tBebV9KeFdpJi3P6QPckh/3KRoDd/GVxwBWw2dgrf1J+VwTdxGSjpWUvEWWeqDwNmlCLUPCKYd03FcIww8fU94apt7HP+HDs6NA5C71dM/Q8awOeG/S5liAco4hYZXbNUh9pKFv59iB/l352kIZhEHRgctCuuLE6HGlI3M2ZgriVaqQTngSKJs68dNPXOUj78qDbYJyjvGAu3K7VqRuKHxxz114PGFMxSi1ssRoeshDHjIYTA9+8IOHw+BWnaxSWXzQB8SraSO84+8aKKt8wvfwVfjkrw0Yu9ER4vAPxE1eSUeY8IHs69t0XWRyXvsJo09HrqvuA3Fbt4C7fMiTlXP3xri87VnlS3wkPVeyxH9e2cZw5Nt2FQobAg1AcHQa+7SWHQ147i0Loxg+tdHTSUJBGjKNmUbG6JBn6aUMKU/cK+RtNYxRp0zCpByHgZRF+ZOPDmk5Ncv8Gj91ToeAWq50/vh7VdZyOsHA7zEcZr2OCrV98I3x4xc8roRe+4dfFeKkrwTCWg2lxLLlUNuFP3BLmrUvgrAE2ssHtu2sZtZ8tA/UfFvog/qe2WnedGrLWjHlrowpn3vh8kyRUD7eMrXaWtMQRvgxvlVQvspq+8+WqR/fZvXWm6uuyIQkxN//JoW3naXNKEPGV/puypn885wyutbyahdtkjA17GEiZa155T5lVxa88EKKf2xS8lDr1iJpJn190daN1Z1l6ybMJvggfuggaON7Vr7c5znh2vDbgrZc88rLbV54pN/SM3Q0WdLW1VDmxo9+r318jKquCtpnSHigJ/2mjAzrm/PCx6+GUVa6yljDeKtha7hAn65ykzoB+Y9+hIThRqcqK1l6xzveMegtRNd/4AMfGHaL6BHh8c1VPnQDw8k9Pq8qE8dy5qlewwRQGRXAdMuO9s/t68aQsl/OeNFpWNGZ9ehMlcTHJPGcuYg7hV5nqyC/GEnKVMul8QLu4jM4KCvlGeuQm8QYj3RiA4xvT8V44ids27kC9eOPv65mKjq0swd1NtLiMOt21Ijx5KOnn/vc54a64Vd4XMFvrO727r3UoA9SWmn/8N49t6QZwYekaVZksJxnPFXEL9DfTSJiPCXdNlww5R7EP2koj/KTkVe96lXD+axap4Qf41sF+WIA+Vo/I0k6FJm6v+td75q9+93vHoxI5J4bf58G8VukGFAoK1jVkKrGaniY2WPlu2eGcuqW8h8mpnjT8k55KHzfk1Nv9eOHpst5cdrqTtfRR4x6mMq7xVHw4bCwS2WfV9YxP26L6LAgbf0nepHsMerpTdtv0Q1Vb0amarlyb9yxEOLr8fX/iOK6HwP3yDQK6BNxE08a8jEeWt3yMteb3/zmQWc95znPmb3oRS8aFhjIFeOJ/qAHyItyiRvjST4M0FqHZXCkxpMKhyrSKHV5jxtGGdwZTQ7AMaSs+tjTtVyZT/o7mFrJnrvXP239Wdp0ONrSp29JSV8+dZYXBmJe8q+MzL0wDChbizqDAXRVhq+KpJ+rwVdnYDzp0DoAv5Q7qOXSWfhnwGGU4qHZgMF4Coddt6OEgYkyeOMb3zjwT7u3PAvUe6zuXsPW7xjkjHP9IUg76LPSdl/9k2Y1nhgJ6XcgXuJCrhXyrcZT4o+FhTH3uCW/lNM94IswL33pS4dyUjrxm8qnhTTImFkr5VZXnhhUJgBWUPEAcUMOT1N4lOHb3/72QSH636R/TTJ8GVvCU+hmnORR+fTx1EPetW7KrH0oUG7CHgfGeMeo1B+svOmjwTSfT7nz19dM5nxokVGfOi/TRsuE2VbsctkrtrUe+hA4nkJXklUTzug2suRKtjIxqX0vz8Lx90KDibqxRhqR07b+iRsKpAWJ69lEySF4Ey5/Ann+858/6AlyZLIlDDmnI774xS8O7vSLezKTBRhpImjzXYRjWXnKoKWgmBFmcs8zpudq1QjzkQGf4WJlyjaKAaQl7gwu39FgMPnuiGfpYLhB1PebpJ+GkQ+kbPyihPOcBmF4+HKr9FZh9qpo0/bM8NOhLUsamJSRe8od1LgxnhKGIaoOVs9OivGUN8gYnQbtll8V6j1Wd23u1V990OpTwqRPe06/yb0rf1c0z3gSL2GnsAnjCbjLCyUN+afs+gxDUxnbbbPEnQf+Ob+QyQrjhfwxEvABcQ/xSxiKmxLUZmSVscQIc7UqpQ3JgbNowlPU2b5QPnWC1Ed5TJLUK7J+HFCWCoai/mAFCj+gDTMGYdTDQOCzAfqDOqaNFmGZMNuKXS57xTbWQ/8hM5AJZ1aDyQ5/sgZkjFuQvocSThiTTuOMxYZMduQRGR2D+Ekj5FlcV/rCRIw+f8UrXjFs15mgcYcYRGRePeiJrF6TGUSPpwxZQJlXphbLh9wA0lkwIg0UN5UNg7OEhoQLqRg/A4jBizFlILE9V4lREyXpKjzjyavdDCpM4yetNL78w7iUSSPJV3n5Y7AGoNhZtEeBWhZQRmWP+7JIfFCfbHGcFGg/gqu9l+Ed3rT8wTcDnH6wKv/HII0QrNoeBy1DW0f3kTNy6M0frxtzV/cxTJVZ2SJTbTk9c28pfmkr+oAsW2pXHjJHiVOYz33uc2e/+7u/O/v1X//12dOe9rRh9kl5MtQgaWabXrrSIvPbBHzVn9IWU/wcg/qpD30Aq8bv6BhD+hEZbCfYbf+KnJGvyDkd4l6/NgF629veNqwgmzBm9Rem+mrGXHKLpEPvkv/4GYPf+c53Di9w2aqzoiQckAc6RDjlyHjJgFIG23lWfPkrgys9Ie1VcKTGE2B0DBaMMauN8lDBNESACZ7jVu9BvDBUOtKURrZVhKV4dQCGli0rV3GEdxXGfZhf83BVBgijdQgWbsIcNuSLQEdQH0uO7pU/vBsDdzwRBj9APc3WU999QdoH1WdXg4z9d23vuizEDQivFQ+84x6C2m/dh9dBwtZ+NwXpTJG+qC4ZNMfCVJqH+OsfyiO9yBH4lgx5gVretu71Pohb6ps2CV+SD38krPzpBvf0QlagKFzKk4LjJw18UO5sYTOgfuu3fmtYvjdTFk+6+FR1yCKebAI1r5ZaqEM9rjAWZgzhLz2Xc4txWwYJu2z440DLu9CuYawO6DgxVh6kP+iL7vUtOzwWKrhlrA64ZWU5ssk/cp3xycoqI+eCCy4YDnHTodEHQeJKK/koA31gvDPxIfdWnsm7c03PfOYzh/OS4gqTs86RqaRL/rNtyF0cZbIVKaw8soW3Co7ceMKQqsxUriUMr9dQhbhQ/bhhsEZjNYuvkbjxwzzbeFaeolSjiIVFQcoXCoTJ8t9RInVUVmVXv9rYtYxB3NJRPauvZ4ZA24H3AbUd0zeQPkGwCKF+MMavKSQNQm0LyUBe0wbpJc30N+Bf75Wtxq20DKSl3VHyTPqrQH6Jqx9Unnl2tf1ttRbf5Mct/B0rb+vWhq/+8/y4UZ4UMp67xsATLuV2LxwDyuzWGS0K2kzUmSlbDtoCJaw0tgXKhNfqVuu/DBLeoEEXwKppdHS0qLpEv7KTY8JJb+pftY+5J1PRF+QsiJzxY6QwVvylwwqxN/isEpNP42jiQ66R8RA9IB3nHl/+8pfPXvKSlwxnIhlT4ghT9a5rJmLSB/eMJ2e46Ixs94sXfboKjtx4ClQsZGADDEKUCYWpYUIqqUGiQME1jJNGSJrcpCM9cd1jku07Z6bseVI8dQZfkTyg5gMaPOcTjhrqkDrWzroMUn78wN90qpMAwqGt096LkDav0A+1Pd4Bfrb9pqKNP4aazzLhN4GaZ1sH7voFJUNObN35XAiDk1+Vv01CmlXuIUaifo5qWYUnAxS7WaN4zg1RrE960pMG5eowqbqII3xtu+NGeKh86rsOT9UrOi9YJ52OjoqMK64mTs56mkgZL8ljxmz9T/8VjhviD/ph+jaZc17RG7UmN3/wB38wnKcknwwi/sJLh8GGpJX0Y/DY+nv6058+bNlbfSLP0QsWAzwLS8dbhUL8uHm5ym4Re8CVW8qJ1tFrR248YaaKxqhROXCNIojSDIVBoSDPKk3xhuQhngbASNekoQNYhszWjbBhHH/xIM9jjLUl0G7dVNo0aj2VrzUCkmfCoRbc8ADwPfw/jPJuI/BN2xto8a7yqqUp6Fu2bPEuGIuba8vbGuagOGi76dOgT6RfcIsS5EZx+jyDw8iMqGwVHwZanrmGXykfNxR5JLvk0HPkXNt4q8ZvJWzhMaa8wUdBU8qHVf5lkfqpV+qQwWMViK9PZ6ABaYQ6OtYBWdOf9K2MNbbvveVuzCQ/kVWo9xB9Im6VWzKqnzOWrBL/3u/93uzZz372MMnxqzFnkfgxcqwmeTuOgfXCF75w2JL/jd/4jdmTn/zk4WC4s0vyDSVPkA8dwJCyQ2SMi+43AXQFupwBZRFE+KS1Ck7leIRQOQV3DdxjcBosFKaEKsMg92kciijGU9KrjZ3wLFIrTxADAkFthCD+iR/j6Tggf3WqxlOQ8o0hfqgaTycF+gLBQRlsVoV+RSAJXfoLVN4i4I+/Y/0o9+viIHFB/Fqu9Hnu+IQ/+paB2Uqt//k5+0RuuAkTpL6HgcqrMcJfyk+7KDOZ4E4+bRPYIqCcnXGw3Rp9cFxIuQHf3EdnxX1ZiK/dqh6o6Xd0rIP0K0ReXB118bkBY6a+po9Ff0QXeE7fiw4RN+Gki+hPK8Rk01ty5PPFL37xcO9zJD43gJyRsg3/ghe8YPasZz1r9rznPW+IYwXK4os8pNdCfuSJoUY3eFZmJE4l5YuOdj+W3jwcufGEqZSwWax7BaZA1pl9BdLAHIrd4OgZ48KYGArukRl13rjDNNcwznPKETdXFAZLWwMeJ/BOB1gWKT/gBX7jxT4p27RXbb+4qbuBJoNN3FeBfmrJd6yvJj1XfngsvOsYHTffa/7p13GrysU3rXxPjfFEeZIdPAwOox7KEn5GZuUTghoGn8l4+rSyc3OugRK2CuV8xHHLbJByq4u+oKzr8FE6GRQ6OjYN/Ysh4lM/zj5m5UmfjUxmDPecfkxvGIvjzk08Kz+eySny3TeGkpWlX/3VX539yq/8yuwXf/EXZ//yX/7L2X/6T/9p2KJ72cteNqxMWfHPmCd/5QJpZ8GEO0R/yVNZ5GnMtuDhykagy3KWKzbDqjhy40khVagilZ2qwLyKJT3XkLQwOu7VH7Mr82ujJwyCdISUVzirDouUHb8xOghSJmXRKaaU5lQ+6pnOpe46kXrsG8KnCvVVd7yzZZtvNLVh41apQttbWrayIc2W18LHzb32qX0vfalNN4j7vL4Sv3qdF34MKVvyc0UpX8CNEqRofN/qvve972kjKnH4R6mC+DFS+Qcp57zyUmI5nA7CaTeUeNIk2+71X+0Qt4TNM38GlLMSDChnLrzSDMLxrzKQPCodBqSrjOopf0Yd+VwFKRv+hx8dHZuCfknf6V8mUL7VxIDKt5EQmdePozMiS9zcp0971j/JXOCZ7NpesypMr3oLz8qSz5Hkw5y+82asYmxJ0yRJPGmnHMlfmsmTW3Rcxj7+3PLLN+XPRFBdE6alKVzSijkGqJxKUADuxyjhWregdcM4THHljmEozxoiCgu1DZ20wrjES+NBwhw10inScaEt7xjSgUA9dMjamfcR4QthU2fPXlk1+ONjxTLtqe3txzOe9KHK7za+9PXp9Lv0IZRniFsbP4I7RQmzDuQVYyeoZQzcp/y+qv+gBz1odqtb3Wr4OCeDSf1QNXgiy5HnFm09Kok7bxbIPWUSPuAmP9DP+UX+rRT6/YkZrrd9zHazEh2ah5rPpqEe+iXFHf2zKtRT3av+6ug4KPRJOo7xZKfIyyN0gO8k0p95tZ98RC7dR49kchmdon9Kzz03SLwKcchkVpLdJ0xkG3KVVnQUxB2ik2pYE2d18AkG/imb+pLFMdQ0K47deFoXYXzL/E0C0yrVPNNY24SpRp7CYfPvOJA61cEkdcSfuvK0KggyozuKZUyY9xV4ZtXpAQ94wOyBD3zgcIjcjJSSc4DTlTLKZyBirHILRdHlviW8tTwfxRtjCjEQxIP4V3iubQ1xE94s1icMbAEwoPhl1eao0JbvIFD+8CBX2GQeHScP+hLZJRt5i5Wes+L04Ac/ePawhz1s+BWQyZNwmYDocwx58VCd3G8CysKIk0f0AJ0TPRMd4j6ykTGAO9BX/uvq121+18YITPnpt1V1wc4aT0eFNEIaJA1VG6mlTUJ6izrhIv8Wq4bfJagbSpvVtgICZPUp4ULLQJqUib1zBx+nZipHgdRn0/1tCvKhFBlQzkAxoO5973sPP5g2i8snA4TDJ9TyNc/C1HCh1CUGVg0TcGv5nnBpS/cMJldl5qbNvNHjTR9v7NgugCjWo0TLl4Ni0+l1nFyQGcYEuSCDnskXObLd5T+KXiA588wzh7NQ/IQTPnLHqIn8bQopR3QDSr/n7l4ZIs/c1AOEZXjRXbe73e2GFTSH4Osqd427LLrxNAcYm0ZwDTD5qBXWUee3q8AnFGGLW5Bf+KyD9AXbdvbiI5xTOIw2U4bUq/bJw4bVNkrRbI0C9dPtf/AP/sHsIQ95yHAeyozOrxzU2awzs8+WzO4iP1FYIbNKW4CZYWpDxmoUceqOhKcUwTN/bml7ZdU+FKRw0nDeybkn34hxzkI4EG7KED6MNjws7FJZO7YT+lDtR7mPrjFRuv3tbz8QY6TKNBmzeuxIiPtF+nEV0ANkWjnIc/SJ8kUnuOenLEC+uZnU0U2Mprvd7W5DuU2gha3hV0U3nhqkk7SIu8aIku7YPmgXVNuxtpflZrROGwovnlUngy/lkDSm0lo2j6l+ty2ggGzJUYxWcRgbDpDe5z73mf38z//88JbMz/3cz81+4id+YjCo7nWvew2rUhRWSze72c1GyX/0rGDZIsi5iiylU8byjMHDnT/lB1GUCC+1DYWrvNqMMcbd9l0MKK9Mg3Sj6IUJHRYOM+2OjoMgssJQITvZJiNLJh+uPppp6wudddZZw4SH/AlLJrOis6zuWwbSJ6eRVRQDjV+VWXVAwEiySua85rnnnjt8csHkDKQlHCNsHVz6CRfiovu9wbxGw2A/FPTqss6gk4TR4ukoGkS4sXR0EEpeg9zoRje6yPWSmMp/U53JGROHX72dYBUk6U6VGbjHjxXuw2fKb+l1Cpsq71FA3TOAgnttmXoj7ezqo4m+KUJ4InCrwNd2kQ9HMihayBtSlpQNzMx8WdePKb1Vkr4nTMqSeGOQn61Hy8+WnlO3eXE2AeVEMTIoHEYo5eQwqX5kWd9bOfqWQ+V4ZJZnVSrksCZyf/3rX/8SJI647smYWa7vTKlvtt+iODPbDd/CuyBu+B4ei5cZLCWvzNqQu7RjiCWtTfO1LSN4E9BW4qrbwOqkDuElPqePpR7L4rD7TsfuQV/UnzJ5iewY/xgfWR2mBxhZZCr9SDzEL/HjF1kck4V5iCzWePU+fR+EY8DRG4ylc845Z3aXu9xlGLONfcogvPhI+JRrCil/xU4YT2HcsjQVJ6Cs/CMnf2KmbCoTw1j3iRdG6wxm3Cxu1KLm02Ke3xTEack/gcycYzwtanhIXNhH40mbEW68SBvGeIob4ubAMONJ+FUGLO0vXTwzsN/gBjcYvhMShMcxyupgzI0fJWPFwxd0P/KRjwxlCp+FC+LWwoDpcKOtMl//ztL1VPhNQdnkQWFSTK6eueOjclkxYtCRDwaQ1aRb3vKWlyBv61mROvvss7+Nbnvb2w6HUc0Qnaui9Cg/aVqJypZADCg8zazRPTfliVv4qc0i08gWpLQYeg6OaiekLRIHNsXXmmbATZn84Z0u8lag8i8LdTSAxSi97nWvO6SpvOn3y1JHRwv9izxY3dGv9KkYTMCNvJNPMhmyKk22+NMT9IJ7BOmb+v4qkI4ypTzSiO5MWtzdc3M0g362Am6F7CY3uckw0eMfXSw9+pibcT1lHIPwLRaPujuIsYq2GGMUt1CQZ2miDMCuHduDtE8w1T7CWL2xSkIgV0Ha3iqB7R8DHkFcFulXtS+5co8CiN8U0h+PGrVMUUAUmXsKVV3cKxv+eGtOHApqWYphhscxxhgGjCjfmELOWljRslUQXlR+hH8o/IWE4Savz372s8Pq34c+9KHhlxDqAmNpbhqbTD917ejYBPRLRnzVR5mokB0EZIgeZaQwULyF5w1cK8bc+YvDoHJNn3ePVgX5NEmraPs93WEVnEFnpenhD3/46RX6GHHyruM3nRODcFU56hbACsBcjO/G03ZCm2ijtFOrCALCbeXIALwKpEspxHhyNXNZB9JS3igVtM3Aw1B4ipRbXWodKKjMEFcBfiDpSjMGlK01Z6W85WNlinK0ekrpJd/wM30g95W4m2HqG9rO9q0375xfi/EEtS4dHScF6feRayA3UGWCHNGDiDzZOjapufvd7z6sGFtxdi6KfNKPWVEld9EbqyJ5B1X3KIOVaUaSf/Dd+c6nVq8Zc1bB+QmXOoRAHdSRzlq1XN0CKMDgivrsHpN1gCjgCv5t/I6jRW0DVwJittLOpGx72bZ0XRXi2yr1sUyrK155l36EcQwpU0XcWmHeVqhj3eZs5YC7OqiX5XEHv1sZWQRxkbaqBhgFZ8vANjnjyRszluTlE96RTeGSZ54pcOVE7vnLw9XXx3080ypUO6vdNaQ/dXSsgshPpfSlyAk5cm+7m0y6R3SCLTo60Pmi+9///rN//I//8fDiiC14q0BJTxrOLa6qEwJxTXrJMUiXnpCeoxNWqBlu3gJ+1KMePWzVWRXjz4Aj38ohfp4DukY9otuWRTeeGqQDjSHGU+i4oBPAvLIui4PG3xbgifapyCAcPqWuhNBBZNcWCRMeB575UR6Wom3Z2d+PQkm8ZVHDu2/zWxbrxlsV+nsMEfd4HZ5QolUmqrG6CsTLClDqhb/hsZUo7WZm68yXWSalCjX/GF4oBl+lKF2fm/AD4S984QuD8uzoOGmo+sM9uW6J4UPuXT0H7ukEMsifLjBpcr7oEY94xPApE9t5Dmpb/SHfsI7OIsfVeKML7B44Q+lNukc+8pHD1TadbX1beDGQorOiq9QDeZaea7YaxzBV3hNnPFGcGIgwDTAHeUYtszzrKLm2negooNx1QHKf8gft8xhSvww0+4S23YK0a3hGUBy2tppR/UOQtPIM7jPAM6Ac3GdAJUz8YaoskIFe+Jr+IiRNBkDbfw8b+rsyu0YWAnyNn/uUb1WIg5KXPKSF39w9e8PP4egcMje7pLxTJvknnRhL7uOeZ2Ft3Xl54BOf+MTwBit+cpfWqm3T0bGr0OcrRZbqszGPEeI+cE9Oc06RcePqRQwrPz/+4z8+O//884fVYgYUY8dZUwYWHUxu61gaeauyxy/5utotkL6VZ4aTfM4777zhzwf5gbmVKPHJecqIgB6QTgwl+gD4pxxQ6z+FvTWeauVDGJqBz1IjRnJvwQ0j04DgGfHLDDwYS2OT0MCsaKTMyhUrHGrn4DePQNkZDuLEbdehDdp2UD8zlNQTHy3ZOuvk3AwhTptW/gThdQtxrFRYtfDGpjy4CZ8VDM8VyZ9AE25xVoEyEnjxDfpWvtY9b7UpKJN6Kld47zmzUW6rkH4prjSQZ0pWe4XHKO3nUKg396xG4UuMrJRDuVDe+uGWdghpL+eetCU/YfQX6WjPTWCsri11dGwTFvXL6kduMqaQ14yN3kr2hq0VqH/2z/7Z7Jd/+ZdnP/VTPzWcjXIWidxakSLzSa/qW/f0iDAOonsz9p73vOeQ3j/9p/90+LbcQx/60MHdtmHkW1qJl7IAufbMP/nIO4YU8Kt1m4e9NZ6mgGkUY5QsVGaF+S24h+EaAR0XlCPbESlryrYIwim7zuW6bEfZJaSt1E0dCZX7EIFxXoZwEfb4BwkX1HsQnvH6vve9bzgvE8izpjXWJvzkT4jH/BfBgJ62r334ODHGn5any0D4xAtF1lDgngFqBupzG67c8ANPEzbG7zwSxyc/rD5ZRYzBFIW6KQNqEVblVUfHcWCqn3InM2SPDIMxhp71woetdge473rXu87ud7/7zR796EfPHvWoRw1ky80Kla0+91asbPf54C5icAnPj7Hk7b781cDB9NYAA2WgY13JOfBP2YLom4RZBSfOeFqEKNUWcUcY3jbCYUMDp3NQ6HWWPVXmirb8OttR1+G4oJ4RagJOqNQ/H3nk5zmrVC3Cp/BYO1ix8K80A28OIPIPX91nME+clEMZIrDxX4xTYWMQtIbBSYQVKIfIfVyTERwZ0QbhEWJopn1AmFy5edvO25O2Ya1KQ1W8J5W/HR1jiPwsArkhQ4woK0Pk1DlFW23/8B/+w9nP/uzPnv47gZWpX/qlXxpWp/7Fv/gXs1/5lV8Z7rn9k3/yT2Y/8zM/MxhatuesNJkwWVGObl4W0RFjtCq68bQEdAIDYYyVWNjrMn0d6CTpKAYDKx/KI/9lFbwwwiu/jpdB/KQA/2K8GBzNWuzDe+aXKxh0IXyvPObHePW2na+Ef/CDHxyMqbSFa8tXz8lD3sqxTJsFgsYY0O65R6uks0+wTeBwKoVsWd8z/qIgfManIG2TK6NJO/p4qe3QQHtFzjs6OlYDmcvRkiCTVOMPeTWB9TkSb+bRx67ORSH3zjSa4Joo0ZtkOWNxdPNxoRtPF2FMQVa3KGDXKNXDRvJUjlA6T115Au7LQtmzQjJW731DeKOu6pwB1p67GUwEMLyofOcX/wr+VpysPNm+yxeicy4tcYM84728x9JchJQr19BJBWVK8TKcHCK3+gT4g98oK0h5bvkurHa0+mQlkUEM4S3/jo6O1UF+TPRRZIkMZuyMIWUL3tYbco8YVa5kuk5gIpfouLG6Bt9jaCANPKUw0wGijA8TtRxR+lH8ysF4cuU2r8xjqMbTSQI+htQ9/2Jzn9lMeIlq+EDY8M01P5o16DKcrEBJJ3nUuHGraayClCv9sN6fROCnvswI9jsYihbvKWt+DCdbBoxV4bLiNwaH8P1z0OcLovBDh8nf2j/WwUlt+47tB91EHk1OcrSh1Vdk01hELulE9+S0nWCKRxZrfNfj7P8na/S8EJitoTROmK9BosTihlrF5jmdoV2O3DSSt7JlsOVGyZslO5sRP1dIGFf1Sxrqm3tXA4olU/etwbAMbSvUZx618DaITxaY5eCZdg1PK//CX3Afw9XSsw9m+k+dQRfMnsTNIC4cnknLlftBID1ppEytkjlpwFdfFvbWnat+je+AR9nexnvP4VsFP4fFfXE8n57AU1RlZxOQNiTt6KJVoR7qmb4gXeXcZFk7OhYh/RncV9KvjTUxhtLfowtRK5Ppy6hFlRnkuaYFuW/jT7kfBCdO62I2xmc5H5ZhahSTxrW6YKA9CrTlsj1koM5An84D6ZipoyvEDdSZdW8P2X3tuCcNPlXgzBMy6J7i48VLy67cWh4ZsGIEMZ6cl/GTX98KoiQSL+3iufa1gyDlca3lPKnAB99+sXXHEHY+Im3DL9vblW8oyL3JiC+OW0GMbGuztNsmUdsreazahupSDaeOjuPEWB/Ur+nDGE5Vnmq/da06FaobmtfHazpHib02njCzMjSDDcMp1nCrtDyHavwMUhqdomVAHRVqHcykGVCZdWaW3dZjCjov48mqyUkfeA26DCdvbNn60ScudalvFwltDpVX+O5bYYwnW3dvfetbh4PjWZUSNgrDvavnuEWJdKwPbcBgJY/6s5Unh0yXQasbGEzScnjc6i6/3kYdHZsHfThFLcghfYoy3mXsQ9HNVZaPCidKO2gcAyTjwXJi9lrTQK61EWuDiCesBqNc80rzGMSbonWQzgMMJ7NjHShlzmA8L/34qUO27U4ZCyfXeMIzKxXe2PKj2Qhj2gpvXMP79I3qrh20CcPJwXHfC8qbdwkHSbNSx8Gg/XKmiSz7nozVJ27LGj5pi7Sj1Sff7vK8aRxF2+tzHR1HjcPod9LM2IaMXVnJqqtZ0bVH3fdPnPGE4RQtYjxgflVoaShhq5JLYxkwKdl5xtMmoRyxspVHvlY78qw8Y+VtET91MEt3uFadxJuifQeeMCLzl/4p/sWggjG+OAjpvAzjyaFj52a0SZD4rrmfyqtjeWiLGErIypOVxKnvdc0DebL6ZBUxxpO2Ogxsqv17H+rYJtSxY9MUGUcxmkIJ05bhsHEi16UZDQwnV8xfRgklLCXLgLF9dthIJ1C+KHKrGoy3PPOr4UIVtSOpg7ozoGI8nVRoS4Ov8zIOj89bsWh5Kxz+pV84xM9weuMb33j6dffK29ombfvMQ9o2OMnt1QIvKFKGDgPWN2G0Y15vXgVJy7YdA0qa+kcmKR0dHUeP6NxMPCOTKG4Jc9TYe+MpTA2jwRtRzrhQlnEba4D6bFaaw6ef/vSnBwXLLf8Zo3yFX6Rsk0+lKUjTwCxMyplzNvIBYULQphs/g7zVNrNyqy3O+5x04wlvGUy+fmvVwraPb4voF+EhHuFV3Fo+e5aOvmHF4i1vecvs9a9//exDH/rQ6TaCCLtB2dkafSb8T1rSqVup1T1h3WtHB/4ZwIv6274jPNOvvQCAvD3JbRXgrTb2r0KyjaeepZ/2WBdpx9wH+kPyXTcP/Ql1dOwjyEWlyOMYHTVOzMqTQSZKxjmX/A+LW6vQUHUDKz4GSOENks5GMJxQDo+LVwfMFm2awZQ71E7hnvH01a9+9RL5JEzSca1p8jf4GmxjODESuAk31fG4j9G+IAMvPlzrWtcavlSdTw0A3rhnqOgrkPrz094QgWYUvfvd7569/OUvn732ta8dBmKrlPpMwrq3SmVrT9riBvKIW+Wz+7gLw+DTjgyGWo6TCLwJP/Rrss0YZmAuAt6FIG2o3bi17XBQJB9wHxlOf1sV0siErqPjOEA+QocFcriIxspQy1ZpU9hr46kqq4Bbtq3yDGGq59AYw3Nv8POKusGM0hZ+zOjaBOSRFQkrFpS7QThlqeUN8qxjAQWrfIwDxoD7rngvbn/Gk59N4g9+45tBGZ9s5eBThHQM3LUJY/qd73zn7EUvetHsSU960rCNp73EjQEknG0m/E/bgryQZ+7SVD55C+ueu3QqpY1PIvAkbYhf+rY37iLfy0Ia2sV2PMLvtFHS7+joOFpM6dsWy4bbJE6M1q3MpWDNTnPGZR3GO9fidw627gx2FC0Y3KAq9Yop9ykIm/JlILdyUY2esfTiLy5/cdXVwWiz8+qecCcNaXu8clbmzDPPHH7zYesnfMefarhM8Snu0vr85z9/2oB6wQteMHvhC184e+UrXzl7wxveMLh7M+8LX/jCEFY8BpC0azvVfskNeWYUaL/03ZMM/KqEPyYy3rjLr1qWBf5qD4aT1V2TFLLNfZOo5T0o2jTSXzaRdkfHcSP9eVnU8KvGXQcnSvuGoRSs2aml/sz6V4Xl/fe+973DSgNlRelKP+lFgU0pslUUnEHSAM5oMjAzoLLylDq16eU5A6xng7SfL/ofWIy8iqRX0913qCfeOCfj3NPNb37z2TWucY3BLUYLxKCZAj88RbZx/fPuTW960+wZz3jG7L/+1/86+83f/M3ZU57ylNnzn//84UyUTxrII7wWP3m6oqCGYfj7rQzjgFvCn1SkjcID7ejv7fhUsYhH/GM8kWlb4+7jtylsKq1l6tNSR8dhInpqU7QODhJ3Vey98TSmNJz3sQJD0ZrBrwPGk3+aUbLAMJFXBttNoKZnNuyv71YsKPUoxDpw5FqhI8XdORD1trIC81ZSTgrCR8aoM0Rnn3327AY3uMHAK26QV99b/uYZD6vxJG6MaCsYXjBgaDsH9Ud/9EfDmTmrGmkbbZhVKGAoy5s7N31Lmq51ZUUc6bieVKT9EF6NbdulnZYB3pM1ExS8xfO0S0dHR0ew98bT2GqBgYcB4dVmynYd3Wh26ts+BsIc/qVkM+DJN8/VwAmWVcgZGOTx/ve/fzg/Y7CMOySvNg9IOGHUm/HkXA9wG+PPSQG+1PZhSNu2u9GNbjRs4TGa8FUfiXGMatuJqz1qG/MPcXdo3Irhxz72saHPGJyBgSVOjY8YTtqFf5sXwz9vBcYt+Z5EhD944F4fz+cK8LDyFdIu/BI3boD32oecmaTUcKtC3m371LTc61cHMdCSB+ro6Dg67OXISZFkAIpScg2ZxWf16ZQhsbriMiu1jRYDqhpP8g0ZGJWlVd7LIEofOWNlpYtSD5Km1Q55QZu+MMqgfIwAdbZdyV0ccU8q8EB74Q+eMZ6sRt7sZjebPehBDxoGYe5WMfAq/IbwWFzn3fQHqxaecxVGX0PJy9Uzw0y6nvUPcP///t+pMMqindKHpCkfbte73vVOH2zXrmn7kwb8xQNXPAM8NTFqDV6UNnPll74fOeCujRi7VnitGh4EWUGElK9CntpZX1inDaUZXYfcd3R0HA1OlNaNsqEkzUydbTFAmuGvqryitGyl+au+51ZBGvSi0KKcV4EyKZt8bA/mr+/tioR8x5Rzdbfd46wM48DgDVPxTgrSZvgJ2gvPfaXam3e3uMUthi0gWzjOMYVfeB8CbtJqiXsMq4CbZ+lZ2ZBncGoQv/gNuuSHgOGkv+q3Bl15rNN39wmtHJAzxojJERmvqG02hvBRm+TAeHi/Kcg/aS4qzzLYdPk6OjqWw4nTugYcoGAdEPaxzKwsrAJKi1HDcPJlaWegDJRRjpWkfRBFyXDyXSmULR/pJj3KPs9TeXhDy6BrxcLAK5w4Jxmpf1YgYsh4E/NHf/RHZ+ecc85wtYIQJE54XfnNryVxkXDpB1lFQslTGfijrJjoX67xZ8gx7BhQMYAT7yQjbYBX+MFoMllgbMbPNfdjiD9eahPb8ozbGMEdHR0dFSdG60ZxRhEymK5znesMh2/NUg1Yq0A6BkGrQbbT8uaddChfSleeWUVYB/IwgPpatfRt3dlSMCNO+tJ2L8/UcQwGXOd58gFBac8Lf5KBL7Z97nCHO8zueMc7Dh9UNRjjG7/0IffLUAwi8V251TT4J2yg3WN0xSBwkP2MM84Y+isDOPFOOirv8BevTBa0WTVKa7gW3BMW77/yla8MspZ22jakLlP16ejoOFycqClrFCRQsrax8skCz+vAqpDXzq0+MW7kYUWBQSMv2yrJc1VFLLx0bA36plRmwlVxonYwH4PturyFlDjzwp8EpO4GS0g7gf5gVfKWt7zl7Lzzzhtef9eW3A2wLc+nCIRl3DKG5KUNgzqwxwhOWMRPvjnrpBwZ4Pl3nEJ4De4ZUAxgbZq2qGHGwB9v8d/2eCYpaetNYZmydHR0bDdOnPFEOQY5B2Q7K29WTRG4ZqALUbAOl1oZ8k8sBo5BLQo3+dUBs0XSrxCfEeY/drYGP/KRj5zeFqwDQoU4raIXRhls16kr4wnmleekIG2JF67VgOanf1z/+tcfDo/7/hP+WT3il3aFtEVLgTaJMcToSRu1YblnsDaAp1xWmqx+WXnSV0E6wnScQuWjK8MJBVUu3IcqkgbekjuynTTbsMsgcSFpV4p75HlVKFP6VE2zo6Pj8HGijKcKA49leb/leMhDHjJ8PNKAaHDMCkMoys19Bk9hKGfbJ7br/BD2zW9+87BCJDySR/6JJ06r4Opzq5zFZYz5vYc0verOMFOGGHrCIGXgnoE3UAblVU4DvzNeZuSJm7CuY7SPqPXDBzzSljGGuLlPm1vxueY1rzl79KMfPXvkIx858E94fBVGOnhZee8+bkkv5DlI3BhU/KSbbblAHz333HNnZ5111uk3ANNP2zY/icCP8NVVu9ieZvzmXBkexeBs79NW4SOjKRMhfE7aqyJ6pJat7Qfaed237ZTb27f0T8qpDqtSR0fH6jhRxlNVGFFkvvVkO8SWloGREkVQFRqFHIKkIwwla+uOoeNDiD5dwDBLWlUxQ+JWN+VJvuDeihaDzNeqk15Q40cRQ+oFwlPOznYxnLzCHSWLav4nFeFXeBje5N4AyIDCw9ve9rbDKtRNb3rTYXDmj4f6hDBW9dLW/PIiQtzAswFVutrGNWEMhgZ1g7crf4abTyfc6la3Gvqo8PySZm/DbwfeM0hQBZ4FtU1c8+yKvzlbGANrHShHZHEK+o42FXZVKJcympzBOml0dHSshxNlPEGUIaVmcDM7ZUA532JrK8vgwgkThUrJ5RnxN6t1L7wzEm9961uHP+r7mKXX28WLQhPec5R00kVBfWaQebvOipZVJ3lkkM3gCdKvaURhK688DSAGex9WNMBzF8YVlKPjYuBN2qzyEh9t4f3sz/7s7J73vOdg1FjRM/AxSPUjxnf4mTi1D4FnxpO+l5VLYfkLl4Fb2+mPzlz5bMINb3jDof2E00fTT096+6X+aTNwr03CW0g41zGeccNz1/CYDFo5rvK1aaSP1fJ3dHRsP07syhPKFpgVGQaGFaj41cEuio1yjRHDzT23wOFxP3191ateNRhQBkGDq4FSXsIjCh1Jw8yRgnaVb344/Id/+Iez17zmNUM63DK4usrTNYq3lle63MA1H330irvnWi9IfTsuRviBv/hZDSR8fMADHjD7xV/8xdljHvOYYUVIGG2fL80zogzcPishLfG5g/bX1vycq8n3hEB+wuqTN7nJTWb3u9/9Zve9732H81b+R6gf8Zc2Uqb0o45LAg+zxaqvR1ameKWdyFVk3MRIG6Eq4wfBmJwpU2RxE+h9oaPjaHDiVp4osBAY1KwAWFVgPDE2WoVrgBI+SjVukHQ887fVlvNP73nPe4YVKHFAesLHAEKeq2L3vah3v/vds1e84hXDj2Xz/ago2MRPvtzd51kaSc9KhbNO6ubL4skfue/4drR8wUd9BDFYnEeyimc16D73uc/s/ve//+ze9773YHw7zM2fUZN4abc23fSB2o7SZ8j7Pcyd7nSn4ZwTw8lhcX0ybec+fVQaMYg7TgGv8TKTlqk2qAhvEX5aeTKp2fTKk7SQfEDZUJfHjo7dwl4bT1FQLaqSBIOdMy3eZvLdJ9slBidgFCFhGUfiec7glbQywFpFsFr0yle+cvbCF75w+ISBb8ZAFLkVKURBSycrCtL1y5e3v/3tw/bfO9/5zkGp8kt5kh/iV8sQf+7Ssh3prJMDx87oCFsVNyT8SQcezOND/PGPwWJVw5baYx/72Nm//bf/dva4xz1uMHjwHE+F04+0eQxl0AbctE+e0wesljDAGGVWnXxjKm+Cim8bSZ9JWeRjcNcvOy4JPJ1amav9fwyR9awKLwq/LKQTqmjL19HRsf249BMuxEX3ewUKycBUkUEnxN8VDGg55+CMkRWkDErCZGsFKGUKkL8ZLgVtdUi4DIrSsepky024vEGVfKLcPUtbng6bM5pe97rXDX/ilwaMKd3UTdqUPchbGGlbQfN7ER96vPGNbzwMzjGcUu+kFx4Enlu3fUHqtqh+Y/74FeOlDsruGacMVWeTrPQxwm3zWdVEaf/EsypoNdB3m7STc1S26O51r3sNRpn42lD/kC9yn3ZP23GrZek4xRtboh//+MeHc4hkMyt04RsZwbM842vkB/hZTfSGo7ZN+INAHkg5kPx8gsRHcP002oRqFUhLv9LfvMwA88o45XfQenV0nETspfFEGbQKIW5xb8NkUGJkULremKsGU1YOMoBRftw8QwZVfpSisxIxnqTDj6HDIMo5CkqdkveV8ne84x2D4WSrjjLNjDfUQh51MJB+3KxUOADPcLK95JxO/Np6jz13jPMhvMZL5Dn9Ii8dWOWzWmS71FeufQLDM8PKVVu4+u2LgdkWHWPpdre73dBWnvPhVn2pbd/WzTPquBj44ywZg4Q8kblMhIIYQ2QC8JCbuOEv44kx7LyZic5BkT6lzyDtSfadcfQhXHphFSgz4+nMM88c+g/IY4qmMM+vo6NjHJe6UFGc0hQnBGPV5cZYYeSg3/md35n9wR/8wXBmidKlXCiqDJoUX1Z8opikgfjb0mEYSYtCNrAaMG0LGlydYXG2RZpWnPzexRYdBcrYyhkn6UW5B1F0rvxSH88pm8HXgeOHPexhw1aSbwPxS1opczB1v+8I78awDB+0b7bNGEraLEY0t9YA1jZpM+3B8E54q1IMJv0FMsCCsGlbYeUDSdNz3E4a8KAFHn/yk5+cXXDBBcOWqm1zbVXD4rdn/Af8i4xETmzJ/sRP/MQgt9pmXSTf9KmshJmovfSlL50997nPHcrqm03LQpr6CmP8/PPPnz3+8Y8f3OWRfJbFquE7Ojou1BkXXU88KBDKjFFjRcCsk5HDjaKKcnWlXF35cYtypMwQRZ1BjZ+P2JlhvuENbxiUJGX51Kc+dfbEJz5x9vSnP3326le/eviKuHhmuMkzSryCe0iZ5YHcC29QyG9FHGy29WMgz8Ab6lgdeI6PIcaPLTnbc9oAnw2MCAy4dduOgcWQtl2Hcu8qbFYxpQ0xmoCb/DuWAznKNnnk1nVe3w9/EybtuSm+J52aXpXfg6LLdUfH0aEbTxeBYqVwkS0Vr/f7lo+BMajKicKrihlybzZrsBPes3vbCAwoh8F9huBFL3rRQD5HYNk+h8oZX5S+uGPGE1C+8ZN+8ufOWHKOxiv0zs1YBZN/ypM65D7PHYuB5wbT2r7aS59xz597wlQ31wyale/aTj+STg0P+hOCuLVIOh2XRIynyCTK/RjPtE01atwznrRjdT8otC8C5UjZNoXeHzo6jgbdeLoQFI7BKwOVcyqW6pGVAe4UKEVqYKTsDGYMIvfZAuAXf88ZSMHKA0NGWtysMlGiWZ3g7vwTykHxlGcM0ket8mUwOaeBHHQF/l2pHhzaw3kyAzMYXFGgH2hPBrerPpXvDVlN9Jy20na5xmDKoJp2r+kzsJB2jLvwwtb277hYniPTnlHul0HkF5/TVgeFdCqB8nT57OjYPXStexEoLwqNsjTYOeDrEKbv7FiBMggGlF07CFLUSYNfBkAwyDGWGF914EMMqfqMssogvSjXDJKuBlH3yQ+Uj6HnjJNX3BlOWRHJILIIwp4kTNV3ER9qe9Q2AO7xA/7uW6oQphL/MbeguneMgzxUmSVXkTPtFVmEtAn3+JMxZ9acQYw8HhRtmyWfrDSvCvGVLZM6zx0dHUeDE2c8RYG1BBQnRWTwY4gwnryx5vyT8yqMEKBohRGPAqbAxma53ChH6VqlsqIkfc/CuHo9OW8DZdCNAq95uULSZhi5CuvqrJaVsnvc4x7Da8tRyKgtG6oYczspqDxZhQ/4qW3D12UgnHas+eS+uudZ2ihtD/zG3DsuBh7p/1b73JMlchLZA9fch5cJB+SL8WQ7PUbWukibVkpeMZ5WbUtpQAwnJL02n2Woo6NjdXTtexEoEYrMbJUSotxsvzj7dPe73312xhlnDOeJuEfpuM/MD7kXNwZVwlLODJiqqPiFxEk86biiKMP4IUpS2raFcmBduZxx8naQVbKOjo5TMp2JwzqIzJHRTaHqgI6Ojt1FN54uAgOlKklKzozQq8AMKFthPjbptX8K2UyRocXgErbG5VeVZAykKSUsrDih+gzigvIkbwaUqxUxb9Yp39lnnz28uTWGWp6KKfeOjl0H+bCC5LpMP6/y6Z7hZDJzWJDHlE7o6OjYbnTj6UJQYFn6Dihb5KC3V/79w+xud7vb8CZeVnz8foMBFYNGeFfPcWP4ZGl9yoDKyhRFXymGWQwlK0zKI6wP6nFj3PmVh7L5MKOyTSF1qtTRsS9o+7T7yBFZQVN9PoZM0nCfld4xme3o6DjZ6MbThaAsGSSMGAaOZ1fnlBgp7n140vmnRzziEcNKlBUf32/KeSUKVnyKmrETNwo77mPKO3kJP0bSsuIkjfyFX7q+enzOOefMHvrQhw5nspx5YqRJq6PjJIE8tAZOZC9y3crdIohf5XhT2FRa0qlU3To6Og4f3Xi6CBQsZVuVJUOEAqV4nX/y82CHsb3R5jca3mjzZl5WiBKnGj/Skm6MKNeq5MSbUuzCSC/lyEc0rTD5H9pd7nKXgXzXyecOuuHU0XExyFs+D0I2InMt4hdZRNyyYjwVb13UfKIbDgLl23QZOzo65qMbTwUUEIXJUKHQbMlliw7c+3r3Ax7wgNl55503u/Wtbz18V8lWmvCMpbo9h6Tlyp+RlbSAexRo/CpxT5mQZ189d7bp4Q9/+PATWf+1sp1X0+3oOCkgP0BOAvfIqpMVYrJRJ0XVeIHIaGQOyLDJipVl95uEPOQlf3KvnCnLJpD6t9TR0bE5dOPpIkS5mqla3aHQckCboqNAE8aKk7fbfuqnfmowom5/+9sP/66zOhWlSEFW4ydx4wdRmFVxyocyF9495QrytOrFcHvgAx84fJaAW41b7zs6TjrIGfmNvM0D2Yx8IveRQ/ebQtLahNymzEH73NHRcXjoxtOFoHAoSojyDGIEgTCIUeWTAD5hcM973nN217vedTCmHCb3dXIrQXkTryIzWAYWv6TLHUX5hRhxDqXbLrTKde9733tYbWJEWYGSB+Vuhuwaw62j46SBvFR4JgtkiFwsQmQu8u+eTJn4bDtS9o6OjqNDN54uQp2dUpg+XulwNsME6gpUjChxGDaMp5/8yZ8cDm+7Z0QxemLIiEeJRyl7DkmPkkbSFIZhJbxD4NKywvXP//k/nz3ykY8cfrtSf+lim/DLX/7yUFbxkmdHx0lGDCETnUxU0Dz5qAaIe3og2/DbiLG6dPnv6DgadOPpQlA4DBFXRgxQuAwmSpQbxUsR1287Uaq2+Rzgvv71rz+7853vPGzjnX/++bMf//EfH7bYvBHHwGJM5a05casil49zUz47cJOb3GR27rnnDobYox/96MFw8hkC23TesMsB2JSZkcVNGtuq5Ds6jgNkJJOeyNo8xHhKWJMZsl+Nqm3GMnXs6OjYDC79hAtx0f2JBsWT2WYMJ1cGCfIcZRzDR3j3MWB8zsA3odC1rnWt4f94DqwyjGJ4WTFyNsrWnisSz5kpBpIPXvokgo9eeqvPL2L4ixtESRoUlDFbE8q5aHbd0bFPqIaNvg/c0Be/+MXZBz/4wdnHPvax2Ze+9KVLhK33VV6SBsOJjJrQkEOTnylIaxmZS57k1D2Z/exnPzv78Ic/PHvXu941fPpkFSgrvXPWWWcN5y5jKE6h64WOjs3hUhcK8W5Mq44AUWrVAKmKrqKyTVjPiWO2mjd1bKf5RxbynSZXWwEgPOOHYUQJepvPlYHlPpSwFTU/8Iy68dRxUqC/k0/9HWXbOwbQ+9///tlznvOc2QUXXDAYJ9lqT1jxgWxz98wdTEis9N7mNreZ/bt/9++GiVD8qoxF1smpdMi265QRIw/hlVuct7zlLUP5nva0p80+/elPXxRqMaQjDy+NePP28Y9//LCdb5KWsnV0dBwe+rbdRaCMonir8vE8pgiFCeU5YBAxgJxZ8ikD55ZsxzlUThnbykMOfiOfHvDhTStPDqJbaTLTpVzbPCpVeG7L3tGx74gBpN+7Z5QE5DZGTcWY7OQqDUSWGEsMnRhalYLWrfVv0eatvNWQWxXSq+Xv6Og4GnTj6QhhVphtO2SmmPNKHR0dmwNjhDFB5hhCUA2NMWOlGl78GTU5NJ5VJ+41biZXycO9PBKuUiAsSjj5Vv9VcCr/i78b1dHRcTToxtMRgnKj5GwJhLrS6+hYH2RnTH4YJAyLvOABMVhgnszxY8wwnLL9zniKe2sIkWNXqIbUFPhH7mOgrWo8iSuNU/QdQx1r/To6Og4X3Xg6QrSKFw4y6+zo6BgHmWJI2LaLMeN5yrhoZdM9w8aqEwPK2SZx23DcGDDBvDwC5UmZsm23KpKPvBlOMcY6OjqOBt14OiJQuGaYiMJEFDLl7NrR0bEeWoMGPDNQ8nkQz4uMCzIJwgkf+cy23SrGybyw1XiSj7Tb8i+LUytPp6gbTx0dR4duPF0Eiid0GJBuZohBdVsmbwo21NHRcUm5rUYJubLq5HMD7hkooRhJQSYzAfnybKJjyy5vyHKPrC4yeBbJKH+Ula22TMtAOWI4Ra8k3THq6OjYHLrxdISg2KN8IcqPu/tQR0fHYrSyUo0nV6tOvrGWFzJiJKFqTFTjImkKk5Wnb33rW6eNp8hq0piiZSANBlrSXhXKoTzRIdKQZkdHx+GjG08dHR07jSmDhUFh9Skfj2RstAZXxZifFSa/arICtY6BM4XkJX1G2jppb7I8HR0dq6EbTx0dHTuLKYOIYcFgysdnbd0xpoLEG4tbwbjx5W9bdzFWlom3DKTHcFrnbTvYRBk6OjrWQzeejglRwIuoo6NjdTBGGEuMJ9t3MZ5WlSnG0ze+8Y3BeIKDyGZrIMV4Wnfbbgzrlq2jo2M1dOOpo6Nj7xDjyapTvqe2Dpwhsm3HwAla46QaLIsMl2okue/bdh0du4luPB0h+oywo+NoUI0nh8Z9zb9u2y0Lhs1Xv/rVwYCqRlLOUAXyW+awduK4SoPxtO7bdlbTrnSlKw0/H5e/siKQnrS7gdXRcTjoxtMRoyrgZZDwy1JHR8cpMJZs2flcASIfqxoTjJEvf/nLww++W/mqz9INLYsYTw6jr2s8Xf3qVx8MKPlaHXN+CmI8BV03dHRsFt146ujo2EswGHJo3D8l1zEgGCA588QgiXE0ZigtSl/4rAYh6Vl1StqrQHz5MQ5tS6au66yudXR0rI4uaceEZRT5Osq+o6PjlOwwJBgUtu2sPK27bfeVr3xlWHmK8eTaviEnv0XyKrz0kg5DiuGUtNdBznSlvt146ug4GnRJO0ZE4U5RR0fH+iBDjCeGk3NBDItq8CwDRtKXvvSl2de//vXBwEGMHu4xeFzltchwEa4aT+59gNPKVt1iWxbyYzxZfZK/bTzU0dFx+OjGU0dHx94hExBk286BcferglHjO08OjGfLzZXhE0MsRtQ8CBuDKfGks+62XZBtO+grTx0dR4cuaR0dHXuHakgwnC5zmcsMq1CrgoFjWw3lYHdNO4ZQC4Za/GK0iVsNMKtOaN0D49L9zu/8zsGAkmY1Dt3X546Ojs2iG08dHR07ixgJLVUwnmzb+U3LqiszjBqrTlafbN0xUqz02C5jjMlrzCgTTtxqQMUNvBn3hS98YUhznS+MCy9NdVMWxlg1wJTJFl54sWr6HR0d89GNp46Ojr0Fg8Kq0+Uvf/m1Vp4YHcgKkbNP+RRANcJaY20KwiWsdBhOtuySxyqQPyPOW4SMJ/FbQ2nZcnV0dKyObjx1dHTsJRgR1Xg6yGFq23ZWipxRWhYMnGrAuM9qFePpa1/72to/HJaO7TrGUw6MQzeYOjqOBt146ujo2DvEcHK1tXWFK1zh9FbbKmCMIKtEn/rUp4aVoiB+QYwgV5TVKVtq4DlbabbtfHzTitY6kI7zTgxDB+JrWWqZOjo6DgfdeOro6Ng7xICBrNCgfBOpRTU+KpKGlafPf/7zw8pTTXsRpJmwjKcYVHXlaQwpzxhBXXliFFa/jo6Ow0c3njo6OvYCU0aNVRqGhu89MTQgYdGY0VHd3P//7d3Zql7Fvobxsdk3oDE2sYvGXrHvQFFBUEEPvAsPvIp96M2Ix+KJoCgGuyRKojH2DZqDREGP9/rV9g21B3OuZSDJZM7vfaAYNaob9QmZPP6rRo3/tGy3fu7cP3XKIk8iT+Qpkay5TZCfU5C3+V3kSdRpXrabWc+plHLhqDyVUnYl5CCv/iNvnLmfxUGeaBw6dGgs320lGilLX5KjTBKtsrz2/fffD4lSP7/JthV5vmv2OUHeWU8Oxvzxxx/HeHmWa/ZlzW/ObYVT06+55poxN/0kv9/YcBXdmv97bJdKKedP5amUsmuZBcA10hHxISvEQnRm//79Y5nrfIXBmOTJZ1pc88bdfyLPMY/1HEWcRLJI1NwuZP5z2Yx9XFdeeeX/W4Y0bn5/nlNKuThUnkope5JEZKS81m+5C2spicCE3BOQnAKetF66W/fdTnoiNxnT0QfrT7NEeLaTpmC5jgySwjx/PY9SysWj8lRK2bVsJyprLNsdPHhwueyyy85JBqnS131SZIvEuE+9PUrZNC4ClfrzRT/RK2/aiTzlbbt5Hut5YX6WvN9xww03jN+Vtq5SKeXiU3kqpex5RJyuvfba8Wr/LBoRj6S5DPIgPaJOkaeQdv8EY9nTdObMmeWXX34ZUSd7k+ZnikLJE6jMKc+Y89nzFHlKxEq/UsrFp//SSim7mlkqZpSRCkJi75M9Qpa7EGGRZtZlZCSbuC21kSdRI2z1zJl5XsY0B8uHIk7ffffduTJEerRfzyHMZZYgs2yHSNdW/UopF57KUyll1xJhkAhIJCQSEalwRAHZkERtSEr2GqXfeoyURYLI06lTp8ZbclCXFEnLffoo0y+RIXz99dfLiRMnRiRLG+1ntJXmcZC2ok3eGjxw4MCIqCmf55p5RMxKKReeylMpZVeylo5ZfFIX4RDxsU9I9Il4EAt1EY8kbaXkkasltm+//XYcWbAWoghPMC6U6Zd6b+qJOn311Vcjv34WtEt/zHlRML8jIpjfYQzIZx5b/YZSyoWh8lRK2dUQhlkwiELuIxXKLHGRp+uvv35Eb6Cduu3kQn/Ckrf0fv755/GZltOnT5/7Lt16jFl+lGUOIkI2nlv6kzL2+tnzWHN/iKBdd91143f4PeQpbTMXpN88VinlwlF5KqXsWraSgwgE5giT/NVXX73ceuutY89QpCRjbCcZ+mqrP2H66aeflqNHj46N34RIgv6iTO4JlHv9JGP4Pt7x48fHnqcs2UnaJlqEzEtZ+mc887799tvHZnHlyjKGK/LcUsrFo//CSil7DiJBIqT5PvLkkMkIxtxujX6RI1EiefLz0UcfjXOaIj4ZgzxJed4sON7S+/jjj0f/SJekLvKjffooy706zPKkDdSlPs9MvpRycag8lVL2JLM8kAv3l19++Vj28tbdLCX/TjQiR5buRJ/++OOP5YsvvhjXCBC0kY8IuY/8gDx98skn597Wy+dTsN083M9llu0sO/odWEuTtO5TSrnwVJ5KKXuOWR4iFrBZ/KabbhqRJ3uGpAgHMSIzElFSTk5yVIGIEv7666+x78mmb2/eZfN4nukqKYtcOdfp5MmTQ7qc75TnZV6RIMjnPpEs2Kdls7jzqnzkOBir0lTKpaXyVErZtUQY1gnrqAzIh5PGRW4IVA6ZBGGKPJEq5REp2O+kLOc92ff02WefjZPHCZI6QpQU8RFhIk1HjhwZb+uRL2Nmw/eazMF4GUPeAZ+WHSXHLczCJK3v/2kqpZw/ladSyp5jOzEgVMTl4YcfHhEoQpToEClKm3wAmMRo4+q4A0nb7F86fPjwiEKJJkV49I9MuZKrY8eODXnylp7N4tqSHfXyQd9Z+pK0tdx41113Lfv27RvzWLcppVw6Kk+llI3CfqcHH3xwOXTo0BCXRHdIiyW6bAxHBEddltn0IVcOzPz000/H5nFLcjaQa6cNyJjlOm0+/PDD5csvvxxRp0jWvOdpZhYoY2VOvmV3xx13jKhTIlYVp1J2hspTKWVjIBrk4/77719uueWWEYVK9IegZB+UvDopMkRotNNeIkuff/758uabby7vvffekCnl6SMaJeL0xhtvLO+///44XFN/9cYnV5Gt7QQo8mRON95443jTLmdUlVJ2jv/+n3/xd76UUvY0ER8CYuktH+glMgSGzKgXiQpkR51IUcqVQZlxnOFEpuR/++23cZjmO++8s7z11lvL22+/fe4Nu+yxyjwiaYk0rSFbjidwvMJzzz23PProo2OMfydcpZSLT+WplLIxkB/SQkjsPXLcgM+lOPCSqEhExrKYPMiNPFHSl7SQHmX2Qxnj7NmzQ5AIlM3kxnz33XfHkp5N4vrZp2QseX2NM0e1kjxbXeZy1VVXLU888cTy9NNPjz1PmPuWUi49//Wvf5xb/y9PKaXsMUSYyIvojZPC7UV67bXXlg8++ODvFv93GKY38YiRlP1F6z+V7lNGZIiRcYmZPJnKZnP1iRYROFft7IHyyRb3MJ6znFzN1bMfeuih5dVXXx0CZamRxCn3jFLKztD/dSmlbAyRGAJDXrxxJ5pjPxFITASHwGg7S9IabdOGBIlCZdmOGKknVKJO8ln6y3iJMs3PIE3awZEKNorfdttt5w7GjISVUnaOylMpZWOIPBEVm7CdmfTAAw8sd99995ApZcSECCVitJ2oKE992hiX+CSaRI6k9TjaJQKlfkadZ5Mu4mS/k1PFzQ/5DaWUnaP/AkspG0OiO5a8LI85qfuRRx5ZHnvssXGOEmGJ2LjOwjNDbiRLgBJIEPkyruTeOM55IlNQnjOalGUZcY15+H7d448/PpIDMvWbZayUsnP0X2ApZWMgQxEiAkJ2nPfk6AIRKDIVcYpobUUiSXNCpEqK5Mgbc5akCJp+9lhplyMJXJ2EbinR23XmJepkvPTbSrhKKZeOylMpZSOIDBGWyBFpsXRn39OTTz65HDhwYESlIkdznwiSq/pEgSREbESULN2ljSvZUSaRqfn5eQvPVWTKOVSiTnfeeeeQOnKXaJVxKk+l7DyVp1LKRrCWH1ciAx/bfeGFF8ZZSt5us2yWNiTHlQjNYyDCRGYkfUSOtM3behEdbZOPdCUq5dRz95bxHE1gDi+//PKYF2ZhIlKeUUrZOSpPpZSNIdITCA0cTXDzzTeP6NMzzzwzPoNiCQ9ZVpuJUM2yJCmf0xpliTwhgkaOSJHIl6U68xB1stcp0oS1vJVSdobKUyllI4iwEI9IjLxEfCyd2V/0/PPPL0899dS5qE/2IZGY9CM70EeUSpJXr51kTEKUJTek/9zG2E45F30ScXrppZfGgZgiUMbUPu3IVvqWUnaOnjBeStkIIkpS9h6RkUSVlBMUIrR///6RJ0k+uWL5Tb22+gUyZKzIDMkhW9IsUvqqs6fJuPLGkQiSzeGE6cUXX1zuu+++sQ9L25AIFfTJXEopO0PlqZSycdjUTW5ITCSE5LgXASJPOW7ASeFpGxlyT3qIkHyI1Limnbx20txG8gybwy0VPvvss+MUceJkDkH7NRmjlLIz9PMspZSNw9lLBGRekvOtu0iOpM2pU6eW119/fTl27NjyzTffjPTnn3+OescHuIpOiT4RskgZ1FmyI1nES50xocxbdfY42dv0yiuvLPfcc884RTyCJpkfSfKMCJOxthKqUsqlo/JUStk4iBIiSv4MzoIikRefWzl58uSQJiLlG3juffxXe0to+mqb+5BxIjvakCxnOB08eHDsb7r33ntHIk5XXHHFkC3jaJsxoAzGmvdQlVJ2hspTKWUjyJ+6iBIiS9tFcsiQtr///vv4Xt3hw4eXI0eOLMePHx/LeWfPnh2RqJztlP1IkucQM1EmESR7qbzV51MrPgdjU7oN6t7y8wx9yFHmZl7Gk2aZIk/bzbeUcmmoPJVS9jz+zJEQV2kWppRHemYxITLehCM1JMjG8TNnziy//vrriECdOHFiOXr06LhX7mPAxiZNhMfSnLfmfIDYx30dxukzMPZUESn1pArzfOQ9M/M2VuaZ8dWXUnaGylMpZc8TCZFAPAiK8kR1MEsVtHdwZeQp7UWaTp8+PaJRP/zww4hA2c9EnqC9ZOO3s5r27ds3JMoeJ/eEybPSDpkj5nnMc08yF6mUsjNUnkope54IiKs0y0nK3a/laUYb0qRN9h3pm6iQKBXRkjeGN+kIjvbqUg5l6nLvmnEyB8l96uUlY4k8de9TKTtH5amUshH4UydFQuRJySwr0hrttEkeaWecOXKVvPYEJ/2U53kzZEwd0VJnPJGotCNj+hElY8lrL5+IVSnl0lN5KqVsDP7cSZEnzLKyFdpFgtbMEobkk0KeNbeTssk8m8CVzc9Sj1nEtF+PX0q5tFSeSinlb7b6c1hJKaWs2fp/p0oppZRSypZUnkoppZRSzoMu25VSSimlnAeNPJVSSimlnAeVp1JKKaWU86DyVEoppZTyj1mW/wUrUV12K4SlAAAAAABJRU5ErkJggg==;" vertex="1" parent="1">
          <mxGeometry x="75.45" y="663" width="59.1" height="36" as="geometry" />
        </mxCell>
        <mxCell id="_9ytcTvXh2DqXDjizTvg-50" value="" style="shape=image;verticalLabelPosition=bottom;labelBackgroundColor=default;verticalAlign=top;aspect=fixed;imageAspect=0;image=data:image/png,iVBORw0KGgoAAAANSUhEUgAAATAAAACiCAYAAADGIpEPAAAAAXNSR0IArs4c6QAAAARnQU1BAACxjwv8YQUAAAAJcEhZcwAAEnQAABJ0Ad5mH3gAAFEISURBVHhe7d3Xj6zZVf7xMiZnY6JxGOc8zmBjC2MBQkhIXMMNF/wjv/8ECQlukEgSIJAlLsBgjAnOHmfP2GByztj8/Knxd86a19V9qk9XVVd11yNtVXh3vXvtZ6317LV3VZ/zlP/7IlZnnHHGGSeIr/jS4xlnnHHGyeEsYGeccSSwGTpviK6Gs4CdccYRYArXWcS2x0kKWCvV2dFXw1U5O/N7fWzicBs/nLnfDicpYF/4wheeCIKzo7fD/fhavn9Z3zPuIZ428dXr+Vgrhi/D7D/bGfdwEgK2yWm9d3bs9njKU56ybhPxtny/vmdet8NFMXgRf0tfLPk/Yzsczc8ophnTmVYqyOGtXLPP8nXP53tnbAY+v+IrLl7HcLv0wZnXe8BPsesRl/HT+xP3427TZ5Y4838PRyFgSxNmACyvff7zn38i6fRbOnO+t7x2xpOB2/uJk+ta788EPePLYzRuNnF72UIRlvG+CWf+7+Eof8jKJC1H9Ui8/vM//3P1X//1X6uv+qqvWrenPvWpq6/8yq9cX584O3kzJq+J0//8z/+s/vd//3fNZZyWbK73mdoZ91D6TF5whk+8gvjU8Ao+o8+yWpu+uQxnH9zDUQpYSVMryYjXP//zP6/+9V//dfW1X/u16/Z1X/d168ev/uqvXgfJuULYjMmnhUCCWQj++7//e/Uf//Ef60a8vuZrvmbNp0ecSjoNp2deL0Y7AzHaIusRZ7jUxKrH0EJRjMM2PJ/9cA9HJWAlWPi3f/u3tWD99V//9eqxxx5b/eVf/uXq7/7u71b/9E//9ISAfdd3fdfqe77ne1bf+73fu27f/M3f/KQKIrjvXXc8DiTV3/zN36z+6q/+avXoo4+uG57//d//fS1gOP2O7/iO1TOf+czVM57xjNV3f/d3r77t275tzeeS0zMeB/ESm3/xF3+x+uxnP7v6zGc+s/qXf/mXNdc4+/qv//o1h89+9rNXz3rWs1bf/u3fvm7F44z7bWL0LGD3cFQCVuUFnPS3f/u36wT78Ic/vPqTP/mT1Qc/+MF14v393//9E6vai170otVLXvKS1atf/erVa1/72rWYeX9uK+cU77Lz8fCP//iPq4985COrD33oQ6t3vetdq3e/+93rilbCqbhUCc973vNWr3rVq1YPP/zw6pWvfOXquc997hOVGJwT6B5wqor98z//83V7z3ves3rve9+7jlFVrTj8pm/6pvXi+rrXvW71mte8Zh2vL37xi5/4/FVx5v8envr/vogvPb8xcGKO5BwVlhVNIPze7/3e6p3vfOfqkUceWa9s//AP/7BOOFtKZbrmPQmoWvNaEgqaHO3R/efr24TJ3RJdw40q9v3vf//qHe94x7oRMlUD7lRgcapyIHSaJJSgxEt1a4z4vGzc24bm2yJrznj6xCc+sRauP/zDP1xz+rGPfWz1uc99bs23ylYfnOIXnxZg77mP9o3f+I1PLAzb4i7wvS2ORsDmGYAt4yc/+cm1cP3Wb/3W+pF4WdWIV0HhkXgp220tPfd5Wx9by+noZbLdliBoXmE555pqViX7x3/8x6vf/d3fXS8MFgmJJrnwSahwKtFwyg8lmy2QbaX7a+7pfVuk28LlRYjDRMdz8xaLKq7f//3ff2JRaEFoW24BSLzE8Kc+9an1ltPnv+EbvmG9Y1ClXYXD2873VXDjAiYYSgoHyxLG9oZo/emf/um68pJ8kovj9Q8zqDRJ2JlD31KqxsD1xoG7EATmiE8i9dGPfnRdJdg2ek6c4rMGePI+X/RcZYZHvLpnj30G57cdzdWjOLOYWmRx+gd/8AerT3/602tOxWm8LYFTDXdEDY9Pe9rT1hVYX0Btg7sQu9vioAJWEOSA+VqzWkk2SfY7v/M76+0O8RIwS/QZTtcEjBVRgPSeLY8DaQG1HLvHU0c8BHPVeh8nDu1VCm9/+9vX3KpUiVJ9aoCnXruPz2udOaoaVLcweQ3d5zbBHGvmhw/b8Q984APrSpaA4VTs6YOXoH/xqIHqTPUrPh3m++LEVtIZ5Da4jRw/KA4mYDMAlg7otfJbdSDJNE5uRVtieR8Cpm8B5Frf9sAs05ePtwWT3xoObR1Vs74IUSlUBVyEPut+ONVfNQvf+q3fut6i9/l5nz53W1FsWVTf9773rb8AcU7rHCxO9ZmIk8kLTokgAbMoqMSe/vSnP7FbuB+H97t+l3DQ2p9zlw7utcCwqv3RH/3ROuGcaam8XL/okNM1nxM8BMxrZw0Op1UcH//4x9eHpsp1q1+Ob8webwPMRTPH5oob2xpc2Jb7csT7NdBn8tD70Pv8QPgkLE75BqeN19jzPrcN8SLOVFu+EbcgWCDC5DXgBMeT514X7/lGVez9M7bHwQRsBnmOBM8liINPP5nwjY6DTisUYQJBUVISM9WAx0ryCatbP7+QbFbHDvdhjn1bMOfUPPFgO66qtSDgAcf1nYmGRxUqTidP9eUHosUvGjHDaec8PlO7rTA3cWreOMWnRni63qOGU3zGaQI2hQynznjFqS9NLL5E7IztcSMV2GySQGKplCSG6snzHFk/QSAYlNxK7X7rNZMOeq5CEGB/9md/tr5f78+xbyOal8Sywjto1ny1X9U054+XvuzAaYvC7AP8YVHxTZptk0fv6V+bfrhtwIUFAZeOOVReOCbu8wAeB547z3JeiFcxCo+L171v2/nD+aTFVtz3o+IztsdBBWyiBJEEfcUs4TSrHGdzcv08FxS+zvdrZofzzhAKEEEzxcwXAu7loLWztCqGuwAcSjaLgorBt2ZtySenOHOuhdPv/M7vfOIwOR6DRMWpSsGXKx59w9l9lv1vE8xRPCZgfuvV0QReEm/9Ei+c+tmJH7D6TWKx+YUv3Fs42nnwj0qMrywS7nPGdjjoIX4o2AWFpFApOQeQGIJDUNRnfo5g+TXzm9/85nWAqBjcw6rlEQok6FFy+jMO12aV4XXjnDrMVSuZJIQzGgIuMXA056qvygEf/oLhh3/4h9eLAx4JPR/kh+7dZywGvon0i31VxkxgDW4Lr4ATzfbZ7+iqQAmaeWo408c3iuL0pS996eqtb33r6qGHHloLfcI0t91xxQcEzuee85znrBfn7gv69br3zngcB6vAlg4o2K1CtjcSzoFzW8dlX89VB694xStWP/ZjP7Z605vetHr5y1++/lu9viGrP0gyZwyqMMGmCusMaGnDbUJzsjWxKJi7BJp8BmLkGzDJ9uM//uOrt7zlLasXvvCF60pMIk6eEjb35Sv3tYVy75KyfreNU3Mi5lW1hIx4QXPWgBj5bRdOf/RHf3T1tre9bfWCF7xg9S3f8i3ra2Fy5L4WbvduW9r1pc/OeDIOKmBWGW2u2ARMOe4MwOH7MgE853g/h+iPYT36WzJ//+h1gSGR5grnuQQjkA6yJV/XbxPiFq/mKyHM2ZmKORPzUEIQL0Llb0nx6bnHl73sZesqgLDNJHJvTXIZw31VzhYGr0P3P0WYb2KUIIFdgsXVXPHadhwmNyBOxabqVCWFV8+f//znr4VNvyVH7uWe7s9ntpRVbOXDKfO6T9zYGRiHcE4C5mCUgM3VvARypiAwiJVzBY8Szx/Gek3AZv+Cyv0F36zwNglYnzt1mDMxkQzmbOuIUwKGk3gBAibBVFxTwFQOU8Ampxr+cOq+mwQM9DtFmGviNWPiMgHDZ828xak/1k7ANH8M77Vjj7iZ93cvuwX3t2MgYHYLm2w548m4MQFr1eEswaFqECgTnC0wbB0ll1LcD/4kn5Lc9tEhKRETOG0lZyCqGFQLBHIevBYUy8dThvni0RYHp+ZKvEqCGk5tEfHmX5zw93gWCRWCZNNwi2OcziSKV74jYB3mw0zkU4f5mifY1qmMiJcYdc0cNc+JugrYF0rOBi0KuLUIOMDHp6qsGNW32J58qboImLEIGNwGLveJgwlYAVET9FZxCUBgBAlRK1GA8zhbEKgKVF2V4URNsBAw4malE0AFVcHnTM0485sj781x5vNThkRKWAiYZEus48Qj/nCFuwSsRcGhs4Tza3sVA2Hr8/M+hNI4FiDj4L12ijCvJcwTp74lT8DErTkmPvHReaKYFKcEDMdTwMQoPvXt8+K77b/YdLaock7AwLUzNuOgzJQAoDIgKKoFSSfRvvCFzz8hQG31OFxiCQgi5rk+nG41s6qpzPp3wJaB6LWVTUITSk1wGO+2wZyItR9Getw0R7wRf7wRKeKPU5BYrqly8e26bxnDFCecSmg+5D+vT5lTc0uYmidhstgR6wTMIltfKN7wJgZVroSKcOFTjFoI2i3g1DXw2RYVzUJgjH7UWvXcWGd8OQ5ageVsDpkCxlnwpcvrfjmOgAkAjnf2VbIFX/0r2QVHW8gJ97JqCkLi5ZzBc+NPm2A+P0UkYKpNZyoWARyWlNpMqBqRKpEIHI77skSyzaTuPlXQFgaPfOi97nOKMC9zreLBnzgRL7Z25pqAQY+AU9UrPv0com9x3Usl1j9H5CzMLgJHuDKG5jkBmzHacccc54wn46AVGEdwHIdxDgFTMs/9fn2gZFMtaBwvMCYkW1seyVY5PmEVlVz9rMJj1ULBYczaKWDaK/glmt96ERNzJCjeXwa/BQGXkskj8fJe0N97rhMxyZhfuo5fnBpP9aVqMC6ObxOIlaMN8WKORMW8Jx+ADwJFnHwZQrDEIejX9lKMdpgPM9b0c29+I2ItCmwIp7w47AsHE7AczgkC3e9orGhWG9sPKDASoM4UrGqEyhaxwAD3IloSTQVm66OUJ3yNFzheAPqtjQAhYMapX0JwrAGytIut2WtBSEwEvoXBorD8jLniUJKpFiRSfMe5e+Idn0RsUwXGB+5NNCW4czBj8mt9j5XHqwCnYkVbbpPNrzniw2JgJ2D7GD/BczHZTyqI3RJ4a2EXp8aUH15P3AZed4mDCtgmJ2lK55kkQSXgXEEyETBBoB+UvJJN8BA6ASIpVRTutbyfFU11IsmtdhOnFBhsrQEuCBYuza3th/dDfCRgVVdh8qXK1Qfvql4VhSrCePXznC+NS8BUKMsKLPtOFeZmgcWrBdf8JqdArMSbxdMZrccELD49F7vEzcJBwLzWD/QT1/qpuPIlToloOHU+94GDCRhwlBVMglldPFrVpphMJ1n9ncNINpUVCCCJU4BILElJuCQcISNqrgmQggQ6eLaaCkb3KSAFkL4F3bFhaZfXbNbMwZyIM04lweRoNlxJMlzh1GeX/eJTwql+41S/yT8QSgJWJe39rp0ish0PqkvfCBKTzky7BrjHlTglSp1/icl8o+lPsCwGeG+hxWkxWl/gP/nRUUDoXmfcw0EFDIhV1RfnWGESsBn8nCUwbGO0vg1zPdEBzrcCqtCcMUg2FQNHawUHGIuAOdNo3ClgfeaYEUfsbF4EBacJmHlNkakvLlRXKlZcJWCh+eOzpMTnUsBqQMBwmoDNReGUEK9xC6ou3z6qagnYEvqJNbGHq759xHNcFldETT9c4l9/nHZ9xp+xjNmfay0XozPu4eACZnUhIATM1rGgCZ4LgFa2nO11/TjR85lIgkFwCKL61oJkM67zGk2yF5jus+kzx4zsjFOVkO1HgV6w6yeBVAf4xJFHAub92Q/6LLHT1za+ClifePecD1V/ePUo6Tcl+7Gi+cy5e040Ot+z0HoN9QNVVZU/nghU3z5uQnGtErMot4Wf40OLfGeZczE648k4uIDZuiVgBGU6xnPOrFLgYIHB4X1TVnJBjtcuEjB9Qsm2FLDZ1yP0eGzIrslBnEo2VVCrOTQvQtWCgCMtUdJ/CZ9fVmtLuHdj2/LgVsKdkoBBHIF5e000iLHKkoB1eA/5AKdtCxOwzl+X8N4UMJ8R394v7rovATMmTs8CdjkOLmBVQX3DMh0XbBedJzgrEBQdIgOHz3LbZwWAwCg5JapA0q/76xvaSirTVS/zGiztOSZkKxsFNrEwH+KBUwI2kzEQI3yqpvAzrzXf5XsqDJxKNp9ZQn9j4dC4bNCI2qnBXDTzttARkISZiMSp6/FVBbbcjs8+0HP3J2IEzNmuR/eIxz7Pr/g0vkWWLafI6SFwMAHLqVPAJF7XJghYZy8JGMfrV6Bp4D2OJ2BVFlY2rwlYQTHBhilgE0tbjgXsWtpmbpsEbPaLpylg+J3irtUPvHbvywQsH0g2ySXJJZt2asnWXMDc2W/7iFOxOheFyVcV2BQwLf5q0P3FMdEjYI5GcAzzswlYCwJOieoZX46DCZgSnHBYTWzfBMZFThEMgkLC9U3NDDDwWhLWJCix8w2bwKichz4TJDwbZgVWc6/GOiZk05wLTgV6wiHppiDrW3+LQAI2t4Oub5q351UYHTx7Pr8gmTAuPvHKz12fNhw72IlTPFrgqnxs6eIJmn/8VNVuAzxbYMW3z1po5zkkEDJ2yA9VmD8tYtMZX46DCZggKNlUCoL9MgGz6idgm0TFa+8TN60zM+Il2ayMgmMTlltI6H4eayXfRe3QYFPwXJCrfAS5ZHNmkyBPeE14CNE8z6rfsj94zwJgIVDV8oXHqrf61FSC+HRmRMBCVcWxI592/kQ0xKp5zTk0XxzgR5w57iBgS16W8J5YFac+47PidgpYdqjC+JJvfRPKFv4+48k4mIBZyTihZCMimxwiCCSYZJsl9qag6D1NYAgon+0sjPiF+Vm2sENjh6A9hUQruLOT3ThVzSZe5tFc9cMnDgkPXjRitg1wahHAqWrBZ3E6bQDjSfS2sTjt+rTlmJGdhEN89hMGfIbmrW+8ECHijt/uEZav+ywOcSm+q2o3iZ/84N9NtpzxOA4mYKotiWaVTjRgOsxjAiYoOFcSXUVc5lmP+4B7znEkuiAVHKpCtiVisx0LzH1pl7kQDXOwbcOpayUJeF51qkKQMMvKtL4XwXUVgqrBoiDZGid4ni35tz4l5rT9mGB+bCxGCFiiYVGoTzAHfQkWPjuyaLHUtxbmc8AhP/gsTqve8t20hXD185jJ+RmP42AC1uG9qmduHXMW50iUtoJWKNuXKjBYBsImSE6fVcHN7Q74vEasBCcR0wSHBIRjTbQwOWAzPucXIjD74E+CSBgNt50NhhLDYw3iyz34wranRQFmP5zismpQlSsBu76897FC1bMUDfYXp4CPYjROxV3XJ+Z7zd3nCZ4F2mLr8xYa0L/P4A+X/ZSDv4+dv0Pj4BWY1U2QcBKnJTAcQ7w4tZWtwJgidz90LiG45lYpUXIvgdEXCmyy9eksLBxToJg7u/FF5Av2zkiqwDYBp630eCFAmxaFi+ZrXJy6hz/p4p985rO1kk0FpvHzRWecx5qE5kAkCBhOCZi4MT+cF6/4EKP96RA+4+QqsMBaaHHKr5A/gD1ssECJVbsFPj9W/m4CBxOwKjBiYbXmcG06TLK1zeHUZbJtA4LnHh04l+w5vWRTIZRwSwE7hQCRWASiCqyDc7ZP+4k4Ma+ixU+chOkD6LXHmbB+Pe4e89AZPLcoza/+tQRs2nOs3LLLHNhMwMSqRUGsgDnWijHi07ePk4+LMPt47rNE0L1mVVw/PsZpCwIxE6fHvEM4NPYqYDNYJVg/XSAernFEzpAoHNqKRMy81z22DfwqMALmPkr1GRzgXppgEBhEgE0Cp2vbjncTSIAFt5XZHBLgZZIQsM5pLlsM9K1NeE2w+IYIqjjwSQRxlA/ZpFXBEAD2JQBzwVqOcQwgXgSiBQ2vYpb9rtXMFY/F2KzyL0PzjgPc4dSigNe506i/PvxqocUpP3e+eBGOOW73gb0JWER61BCfgHGK9wp+4DwVFwETHDm0fttCchGuBEwVNhM3e4AICNYELBhv9js2TAET1JItAQslQt944XQp5NvAfRIwnHpc+qZ2PwFzr+w6NhAnQiEWxIQ5VNWCeRQXVxWw5o2DeACLgZ8L8U8Ldtc8Gotf8ZiAJaqbULwea9zuA3sRsEmgkrwtBQdwRt9ATsI5THIoqec2pbYtBIEEI4ZtJQuyArB7SjaJZgvWdsfnjT2D6abBZrYHdhOtubVYbss1zwk4TvEgSdxr2Zbo883fIw4tCDjV+oKkfo1NCNhmsZJsnRsdO/piB6fsxkvzD14TL3Of33RfxONFiLOqY/HuubhznxmnHgkWTn0zKo9wvAlLe+8Cdh5ZS0cmYFa2BIwD6tcj8gmYoJAoU8CuAgmj0hBkF62S7impCIGALdnA+8eWdDiqgVVZQMcpAcNpds82BYywb8Ly/hD33vOIQ3xqki4Bg8bSjx2qBT8UTsBOAdm9FDAtmIu4TMD8KNjzJXfbwH1VxxaDBKydQouVPu5LwNi2FLAHGfe2Ya9ZilzBINEknG2k5JslcEGiWc2qwAQLR9auisp89yOMwTjBqiv5Bce0bfY5FsxAZWdVbVvfruPKHAhKlSge+rbsqsg3Etf93IcY4rRFBoxvbJzytarWYvUgvrsJWMzwSXjFRHw2fzBf88anGMWtxXL22Rbu736Ey33cjxi6X4tB99S3PJrb8otwVVtOGXsTsAKgCiwBE+CbghrpgsMZWALmHpylf/e7H+onOBIwSef+7jkDgy2dLyRgszo8FrBn2jQFTOKBOdUPZ+Zqy4hTFa0keRABg7jzeVz22yUcB+PyE3vweUoCxnZ2E4j5+y9tgriITXGFVxUUToqn+6F71vIR3/CReyZgU8T0JWD8LU69vgjb2nJbsBcBmwQLYls0AkYwlkB4lYLgaHsyxWbZtoHkcj/J5n6QXR419giIvuXxSBwuC5CbRHYJZmd3tjsqsMlJc5MIkkIjNpJtCs5V4P4Sik8kGU49em9CP4LF58uq+5g51RJeduM34Z3cxikBUzkVo1dB42ktCrhU1dpOyoXuqU+PbOJvNvL5VRb124y9biE5wmpmVXNWs2l7JgkEQ8lGdCQb57om6bRWpPuhPgLDvToDK2im01VbAkNQVNF0mH9MwdGcBG0CYVEgYtkbstuc+/kEASvh7oclRxN8YKFRJbvnFDDPNZ8lWoSAz4kYGxOEy+5/E2AL2wiYWGWzmMjO5gWqpQRsniduO5/69ei+YpuAzXPKxq4BTvmbfZ6z17VtcuI2Y68CBoLBdoJItHefpHuuQuqHlhKEE7dJtssgMCRZ5zUzEEOBy0aJJjjmzymOCXgSsEQ3gSC4F1U3FgECJuEkXgvCdcAG/qkC2+QjnLKps8UEwfslZO0YkL0tZOKgGChOPeIOjzjVLAhdv+58xD9OLTYW3riaYBMu2Yjbpd+Phc9DY+cCNp3JwZ2BIb1vT8A1/QSGZOBAAiZI5laHM7WrwL0TsIRxuYWawdfqO4P32MBePNj24rRAZjtMzjXzNfcpNPXZBvou+/NVyYbb+NQvP1mk+DlObXsIrmub7nnTaEHg+xqOzVWLT89xakE0f0Ier83tQZEwWmxwGpfu2fj4VHnjVFtWtde14VSxUwGLwAgtOAgY8qeAhQSsw/t5KOo+s10FAkGyWdUEhoSb5XmB4bngIAiqmrZk2XAMyFbiQGBxKdGc2XWuuJyXuUs285Zorl0X3bdFYVbKJZDGTnZJNNueBMznYRe2XAfZCeyMTzHguffMi73181zVZe4dS3hv9rkf6l8LBMx9bU2ds4U5drmEU3Z63o5mzueuYScChjwBOoNYoiFam9uICY7prKqfOxC0MJ2tbQvj6y8YEjG/2XF/yM5AwIiXv/oXGK28x4Lmb9uAz87rBHMVGMQ9mCtOzZ2Yz2sXoXFmW6KtqWSzMEjkfNZnjCO52Oesjihsuuf97NkV5jiezzht8cIn3xOKrns0j14TbHxqRCfMec15XtSKLw3ilIi10OqTjcAOtrUoVCnCvNddw84qsMiuETAVQmV5AhbRHjkpAetXzUtHPKhzfMa9BYdkk8zuX0BMCAQB7DdAgvgYYT4EDJedheB00yqsr7maM5FRTeD+MmzDsT4SF59aW/OqMNe7D7v4H6cEbMn7Jj/sA5vGwUWiRMBwyv/4FAtx5Xr9mjvxWlZKzbnHbTD7WgQImHtbeIyzrJrZwTbxaVvO5rl4ud9Vxr8t2JmAIa+VBfGdfUk0qwZBE9Q5xaPmM1YdW8ilgNX3Ko7pvvOzkkxweJznYOA6u9jI3rYQCcOxwHxwSLzYumk7DgK/ypN4eTTnq3B4Gdy/7bmka4sKfOmaRwnHTlUtm+ehM1t2Zc/9sByLDV6zmZ145PflN7rzMyoiXCba5m5xhBlrDwq2EDHipcmD7g9sYasmBhIwnE5c145TxE4ELII9aogUDALXKkwUED9Xtsj2OU5bCljXe31VNIbPJ2ACT7BkZ41YsTEBs7JNsb1pZMdFAmYOwfwImDlPAdsV+Mv9+IqA8V0C5lHTh6/53k9oSrYWhWnvIRGPxSpYrHBKFFRgYdqYgImhqk4cdD+PDxorPsceAoZTC8Imn7FHP3nVT1SqwB507NuAnVVgEMmg1LWqtX1YBq1AFxicZmWz/xcYu8AMKPYICmdggs/Kxpb6eF4FJjAkm8QjFscEtuJSRcPOgpf9s9l+SDZtucXbFRqnhK5aIKpa2y7Jhk92EzDX4v0msGlcfmajhlNzgxZbiFNx5Hni1Tyhz10FceGzfETEcGphME6Y92avhVaM4pQNrk9RvkvY+RlYIGB+/+UxJ82GcAJmBRccnJaAdZ9dOERgGMMZm2QTfMv7VoG1shUccz7HADb2vymVbLUgCTadUe2Cy+BeJRtuOw/CY2dIuEscxEBV7RSGmwL72aclsksBmzG4FLAW6eZyHW67h3viVB4sBWzGYVW4o5kpYKF53RXstAILCJRsvoFS2WzaOkgqpbIkU4Vx3tz37wLsMKZxVHjGScBytCYIVAcCokrMdsK1Y0B2sol4Edi2kJNTSUCw2tpVLZRws+91YRw/JyCUFqIl2Bufkm1+6dB8Dok5nufsIFjiFKfasurOTrEpfgg2TpcLAn4fhNvuD+6RUOJ0ChiIUTbjkIBpbGdzsXAXsRMBm44ARAtc1ULJ1vUcLbESMI/EawbCrpLNfSSb4DPODL7srrG7SmyTgPncruy6KtjSuSJucZot8zEBI9YqI/PdB3DZr8cJ2CZeEgjiZdvDbhXaoZEfp434k/xsctRBwPC7CQSMWLdLWMZp7aoo7gIe5QMRI2Dd8//+7963puISl1qLQpwu73cXsLMKDNnIQ7TAJVyzAnNtOlliqRIKCq+rFK6LAkpzXwEoKIwnsUu4pbMT3n58GTYFhfc2vb9rGEOASi5iYKvjcdOqa07m6OcTtju74nMiXqeA4XduzeuDz0TCosBu790Upr9wmrhqbBS34jexqL/4NFeVUdtl3Naa94MgrkBcGqMtZO/PMGtRkF+aODWX7J123wXsJMLvEX0v2STa/CdV6tOjgJdkHd5fNxCCe7hXgpiAtbIJEMnn2uzvkZ2CYv4eLJtuMkBsxSRZZzUzaCfMwzz9M8Uem9M+YCFQlUwBm5w2dlVtW1/vxfehYCxcGTvOcBqfqhjC0E6hvkG8tF02T3DP5Tz67LatewS7EOJlLDnherYHdrFdDIgJnLJdH9em3YfAtC1sem9f2OkSzXBkCgjEKnOJ2aYJWckICmcJkBkIu4T7GssYkjoBI2wFSG1WYJLukI64CGxoQShgvZ6Bmp2SQQXmCwuP5rSvOXReoxEzr6vC2DETU7IRsKpxfW4aU8Dwya4lV+w0J/FCqC24CRhcdx5x5dHYBAyfHXd0rBLqZ/GSY2yfAjbbIXDZOIeyYacCNlcHrf054qezOUW5bLXp91/7ABJLGMFgVRMggmOupMB2K/AUsFbkpf3L1/uE8fFoC0bAJFvbx6UNRNnc8IpTc5wJsEtU2RJKi4LFwUJhPK0KGNhcBbZp63sTSMD4+yKbzAeP5ki8zNe89gX+ilPjVtkGsVCzNe8szFyCOHb9UMieMF8fwo6dRjex6MxjKWDQhBIwgU/ACMs+wJlTwASF1c1jFdiEQG67Yw5s93mYfT2vHQIJGAEQrEsBwytOm+PyG9d9wHhVtgkYn8KSHwKW/Zu2vofAtMf44rSfIxSj5qTV13zwSFA0guL6JuxiTmJSLiRgVWGbIA6mgLH3Jng15kWt6/vETgVMYgkIZ18lWwISwZrnHMNBVjaBss+JFpgCo78PLDCyTYMErNXZHLL7JmBcAiDZCJnXM8m89mgLh0tiQqQ7Q4Eed4G4sDhoHQUQsDitT2C/RMMp4RAnPntoTB4ssL5k4ms2geuz4VTM4DUBmxVR2FXVQ8CMSbz4UCVtzMCmYnmTgPm85voh0JhzPM97Lx73iZ1XYITLFoyQIZZzm0hO9rxqoa3HPjDHg6WA9b5HhOsvsNnfzxWaA7i+i0C9CoyXACRg7M32Xidg5ibwCdgMrPpfF8bDR0mbgGmee68GxiUQcwt8k1UYGHuTgIE+Gu4srImXR2IiOSfmXK8L9040lwKWXTXnXjjVpoDts+q+DNl1aOxUwASmICUAArVJzURCcMIlKFRhM/B3icaOWMHQFjLB0kpIAmwOAlqAE2PzaBsJh3YS+9jSv2rLvmz1CAK3rZy5STzvNS/Ytd34a9x+I2XcxtTYblwJxnYLQgKWXYfAMq68ZpOKME69t2zm5oiDOF8kDLP/rtDizp8EDYyNb4+4E6Pis0VhxsOufX0/GDs+P/3pT68++tGPrh599NEndmLEVp9dchR2ImA50NagCky1gMjZQCAIDEFBwDiKw3Y5uewx5hTPKWAleH0915CdgBUcy8DoM/vCvL9H21qc4rbkr7kepwmYoJ/zy+5dIp+q9PqVepV0toE+U8Bwe0gBi0eYPLBDwpVgoG+cAS4JmDjF8SboO8e4DrLPWKowOZKAtWDoYzycsl0zlwRiznHfMB6+jI1DPiZgH/7wh9cCVsyytXPbXWMvFVh/A7kJglz1JeAryzlsBsF1neDzGqdPARMMHThLPLZ0fY7JIfMwf0l+998n8GFcgcEWWwWcTmFofhYAwS7ZBH7XBPyc/y6wnHdjayqwkD/1Nw8LAS7bmouVQ8D4NTAuPiUWAfP8ouQSm09/+uN/74nLTVjefxfAqRjtJ0aAz5qx2Byf5iI2DsXpBFvEKBuI17ve9a7Vb//2b69+4zd+Y/Vrv/Zrq1/91V9d/cqv/MrqN3/zN1dvf/vbV+95z3vWwkbU5Nl1sdPoRqqg6Aesk3QwWUEu2AmYwKhaCLsMhAk2GMu4xhcYjW3MEh6IBPsrgWf5uy/7ljAePq2uAtUZWALGVqKfQAl4wjz/q3twbR/2uq8x8MIOC5GEw2djzqafgMWpeeBUsu3DtvuhZLPQilWcsm/aGwjY055270/QNkH/Yui6LVhY+dOv/43dtRIexwmYOSTEhxaw7MYpIf3EJz6xesc73rH69V//9dUv/dIvrX7hF35h9fM///Orn/u5n1v94i/+4uqXf/mXV+985zvX/8TS8mjmQbETASuYK2sFKQNDCQWck4AJkEjQZ/bbB4xNNCWcVsItxyUSAlsFJjAm0fu2MRinpC/hcOr9AjqYg3nZyuH0kMApLvmUDSrbZUXtOQ5xqpKUcIL+JoBD4+Ozn/nw9+TUc5wSD1XQoSswYxlTjuCzsfEYr2zGIU4TY4vdocEecdrOyz/39Nhjj62rMYL2yCOPrN7//vev3vve966rr09+8pNr4SXAM0YeFDsRMGQKhKoFk4nMjOwxAbPCeO79XUzkfhBgxhOUiVjf1LF/2qkJ7ln1zADdl72NbSyPOCReOPUoUNgS9PG6ZGtR6P05r12DjRLLIoBL/kzE8AyN7VEjHgTMan0oAVtykV/xyYaLqgCcqmYJmPkR5UMBr/yJzwSMPRCXzSnxwKu57dPnS2RLNsRpudI17ysGVF59a7orO3ciYIJAcDK0NgN0GtoWUsDPM5NDQCAYU3AYv5U1+yIeuYKhMzDivCTb6104oPsYcyIbJLvgIKSbOBXYtpCSbH7t3n1n2wVwVANjSzLj981yCxPMcQky8Ti0gE0kolUBS5iXOSXMqtrLKrB9oAVJnvSlzBTQ+Dc3PKq+zKkK/dAgSPyqeR7YInfYqLXFNRetGLoOdiJgkSjhPdr2mMgkM9KngHFM1zhtFxO6DNkg4QRmVeC8prHbHBw2mo+5EGnvd33O7broXvOeBEyS+a0SAROcJVw2eExAcNrvv5bYpa1L8BufJmKzAjMHLVvFSYJcMO8b7KuxAY/i1CLLp96b8Np8zAWnqlpi4vOHArHMpy0KLfbsm3MSE2JUrJrbIe3kV81Ca/vY4XyczrgzH2d68s68vF4eNTwIdjJbJEr4WSkI3GVwIHcKmOf6zLZLRPCSJORJdnYsBQz0rwIT6JyyXK2vS/zEJhslFwHrq2iclnDZiU/2SzCB3hYSZj/Ypb0TbBCIxmUDTvl1OR5b8JiAmc9NYFbWF1Vg5jLFw+tDCQPejGVMY9dmrriePbN4IGAw/b5vsLdFQRWoym5814oDOdfPbaoqm8MyVq6CnXiFAYJBglURSCwGmozrEc8RHCI4PA9zsrtCY2tVAoC8yFwSWdXQeR5h5qBZMbhvTtoFjB9XAZcWA2V5QTGvs9VnBLqqh4hN3mfbN9hlXIsSXtnkvcb3HKfEQ5BftIXMP7vE0vds6AyMT10DNsYpHks08dwc9g3jZ2fHHWyQK+I0G7XiFI8WBHMyt94/FNiSDZsq63hjv7zHbcc2zeM62JmAZUirF+IZywmCQPO8asFkqn72jcgKbFSBtY0tyWc/1UICJjA4pmu7DGb3WjbjVNUKzLmyakEgJGD49hzPsw8sX+8DfMnvncNla2dH5mQe5tO2PD4nNr33oHCvEtqCoCVgfCvxluOxWYy2dUzADoXsmQImTuMUmhfgcQqYOe6Sw8uQHRZYNrRTmPFWHJiLnMfpjInag2InnkGu3yC96lWvWv3ET/zE6md/9mdXP/MzP7P66Z/+6dVP/uRPrn7kR35k9YM/+IOrN73pTauXvexl6x9cEo4mAk101+i+897GFqBtd1zLGfUVCFVhgoODBEtY3nNXyJnGN6avpQVGjmZjfSSXxaBkIyKT06uge26LTbYI0LmFdN08IE6JGE6XW0n9r2rDtnBfY/OfRcHYbLBIzDF7buHd979TdxGKK40v8Tn/gcolT+bVnDya43Je+4Kx8GhB0loUigut5zj1d8hidVPh8qD27lTAHn744ScJ2E/91E99mYC9/OUvXx/m+QwHZfi+ynT3dO95fwlmVRMcVWCRXeB4LtmIh23PJgHbNaYTp4AJjBkUmvEFAtGY252LBGwbe+f494O+bNLA2CrBKWCaeWRvAobTBGxy2md2ieYtqRMwC5JH720C4bIV9jirr13btgRbi1VwtpiA8XPvFws9NxcCshSwfdtLrPjS2C0KVbWzAQFTuMg7cWuuyz49XgU7ETDGSByGCWLOJ2gPPfTQ6qUvfenqta997eoNb3jD6o1vfOO6AjMJ/QuuHg+FEl8jpF5flPiqMALGURcF/K6QU21Xq1QEBxu6DvoIXDYnYOYhwJdcXiUotvGD+xGihCtUgfGtYO1r8sbvuc+25TC3KWC7hjFrEgufjTu3W5MjsUA0xK/5zDg9BKY9xrYwySeczmvZxA84nHMrXvYN4xrT2MYsP7Jt8moxcLyAU7EB+eY6/O5EwIIEEsiSSSALguc///nryuz1r3/9WsAImmsZPid5KCS0msDwutVtgn0cY8VeCtgu7V7eS7JJMCuqcb1eOtpnBLg54BPn8zpsY2P3XX72IkiYmfh9rkUhAZuJP/uVcIcQMGhc4+DSuFoCNiEGqs4TsE1xsS/EqQbGLvH5d14zLy0+feFTNWTxq98+MQVMjLKFTXE2bRATeCXIYsO15nAd7Nw7GUVlBTXDGS0Y7OPb6hwyMJZIZNvysI2tS5iHQPdTBiI2y2PYZZB0L9WXMQWjVnBscnbJ1jd/E9vYtrzfNvAZvusxVC2wJz9v4lSQWxRUtf12aeJBbNoGxrHN6Wc+U7ziyhzYLC6IBvGYQnxo4BeP/TUAf7MH2JxdODUnC545HqoCw6mfTzQmO7Krhs/yv7Pa4mb2e1DsXEVMoonM1/O9afh1jH9QCAJnXwUqYr2eyC4B78ekBIyTzKG2KzQWjgpEKykB89x7iUbwui8jOlMMl9kW5/NeV4FxLU5aNhkPp4LTgqARsSWn8Vbg+/Ejsd43GpMPjYfnMHlIwJoHTku2mwB7xCj/soddFt9szo/mZ3dQ3Jir9/aNcsNipBqbvALucCgWiosWhTD5fxDszTuTwIheovcOQfaEcZGrOiQAmtUtTFvbQiqVOant0y7hfjUVGOESFALSa4ExufKcgBCIgiP7L7NtzmsXmPfDJxsEqNWWTRcJGB5xao6SLezavmBMXEo2FW3V15JT9qsWiAZevd6XTZtgrFqv23qxh12b/Ow5ATM3C8MhFgUwjvGIpkUW2JJt7Cdg7BcTuI3T2ec62LmACWQtIz2nuL23RO81oUPCaovcWYGxpwaSbW7lqiQ3zeVB4F7znpKLWNpeCZBpC8RpAiYoNHO5jMNd2Ov+sy0rmWySaARM8GZ/nwE84vQQZ2BgXON99rOfXY8p2bMFsh2PYoFYlGyHRnz1fG7BcErQ+D/EawufqlZl1Py6vg/wXd8+dj4sJopneV+RICbMxXvNbxfYSwU2nXAV7Ivoi5CA2UZuqhaAkwiK4CAoXpe4u3QEuJ9AkGQJ2CYIAuIgsAWGR1uLi7ALO6dvPO91j/kcp5Ktb85Kttl/CpgKzJynGO4aFgXj+UkKX0r2aTfgFI9VC2y/jNNDYZ7XEoLlFgzMxZzMbSlgYfn6OuArPjPOUsAmcMtescB+c1nGA+SDHq+CvQhYeBCDDgUEItSqJmgJGHtzTgQnYBxl28NZgmVXc3MfAZljjWcc250CcRl8KgNVAuFle6vbJuzSzu7V8/leMBec9q/Dmld9mssUsBYG7y3nuSsQMH6T3CVbttRUYIkEIcMnu8XDvhasbYFDtuEUt+I27jX2mxMumyObvT+xfH0/xE0c9Hm+EpvyQqwa1/hsYasYyDZ2P+MZz1jHK44nXA/z+VWwVwE7dghSxBIBq1wiMoN2JlurDQHbNThQgBjPOJu2AqAfARPIbXc63F3iQYPiMrjnphYEL5v86poQdM3jTAA8midu+6IC6rMr8CN/GUNVO/03x1oKWCKxjzPPbdG4U8BUh2ydvOtnTrg0R3MlKIlO7UGw6fPxaTwC1njsaTHOPnb7SYqYcC1k+3VxFALWZHY1qW1gLEGKYOQSMIGRiMG0q0pMK9l2CQEi4IwjMCS3LxCM3TWPXidgWoei2XrTSAj6aUd2w1wgbB1bGDTzhl3Owzh8VbWAU+M2xhyL3fgkvBYEYO9MxkNiCgbgEqctCuY2ufUYpwRFVZtQ6+/68p5XRRzg1P2Ng9t+QgGNo+nPXt+ibhLeXeBoKrBdTmpbdF5DwDrzKMmyp0dO27eAWe0bx8omMLpWgLDHdjcBW57d3TSssp2BSbpZwbAdv15LNvMkXh6b6y7jIAGTbFULLQrZ0njsVomrchIw16ooDoFiYFPV11lStrleA3M1tylgyzhd3vNBQRgJl2asTQIG+EvALGoEDOLdZ7Tr2HU0AnYTIFgCghAQMYk3v3kquBEs4WzrNM93jYKiikQgzqqkJGIL0RIUfuB4kYBl+6FRBcY2vC4PwwteTaKap6/iq4yuE8xLdH8+wyl+8Tz5DBYzdrNZDPjsdZPrqsiumtfABnFKXG1x53EH1K8Y6giCuJgHPMg83Ld7TxjD/dslJLj19YhPNsup+ZcE4PFB7NmEOy1gks0KUTWDbMRvghWN0/r1+K4cEJwhOJ+ZAtYKOgPJuAmYtknANgXdoVAFRsAsCoJ4csq2krODZ78HkwjeN7/E47ro/nyGUwmN0/isGTcBU4V5PsVr176+DNm0RALWeW3bMejR3FoE+83bdXns3jio4dH9jSMXGmPabdGyeMkrlaPn+iV20P2ugzstYAUuciWdhLuoolENWXG0KqNdQvBJNkHR+cVcPXM0mwWwQBYcFwnuTYF9KphW3yoaSBRq5mi+FgaJ1/uz33UwBcz9l3B/9vK5hYz/2XtRDNwkcEhgNdx6zfbJkecthDg192JoCtGDwmf5hoD1hcgUL00fjzjk//JKzFrc6rcr3HkBs5JFNqJLtiUIjGTb1xmYZE7AKstnInvO8YJAMCwrxusE5i7BxlbfKhr2QnOpxWnbnd431zn3y3BZnylgFoWZPI2DT7byPVtLNrGxy0S7DtjCz4SL0GpidgrYnFcC43EpYJPbq0B/zf3cN5/BkiuvcYjLRAzHcs21XeJOChhHTCdKOGR38DyR4+a3gxxHZCTIruD+ktlBc1tUQZHDvZZsVQuSTWCwvXnATSddNncW1vZhE6bAlGz8si2a90Vzdj8Lju0OAcNfydZn2Fm1WHVDLLo+ub0psCUBa1EQA20jZ2MvLvvRLg683316/iBwb/5JwKrwum8Nz/m+RXaTcNX/OrizAoZ4zXMiICjmN1AFrkdtbvE0TtxlJUbAiFfflBmT09mW8wVCW50pYOG6wbBLsJmtOBXM0zbPXZcMOHWIj09VqPdca87XgXvx1ec+97n1FnIpYJ7jL0753gKRMED+v2mws0rRobjHhHY2sLXzfzASsBaErsdtfbdBnwE54/4WBfe3COGn+2tsZV+/Beyzm3AVOzbhzgrYbALWlszB86wWXAuSyyou4TjO4z4EbNMfOOdkAUu0BIfAkGySctp5LBC0hGv+w4ChOUkuwlJVi4NZMdwP9+s3t6ibzsAAp/i0IBAwyZet2bmtPfsEm1rAfBOJU3G7BE5nhYQD8XHdebgHseIjAtais9yF6MdW9vmSib3LcYvX3r+OXXdSwBA2VyGBIIjn72xgCoPnRIy4CAyNM3eFvuVsuyMQtapEsL3t1/eCuZVt2nksYBs7/XPIxMHZYnybF5vNTbUpETQig2PYNqg39XP/ueBYGLq3MeNWwyNOW7zi1DWYcXIMsGi1hWQbO5sTTj2aqzmbu3jdJDLbQL/uqfEV8bKAax111JcdVWTyaNPxQf13hTsrYDUgYFYMpbnA8FpwRLZ+nidgnNdvYK6LAlCyWdX6TRQYswaCod9XTUE4RuAPp/4OTsIluHNO5m0RkHASQ8K1fQ71vR9mP5y6L1FUgfHVXBTqq00Bk3RsBNeOkd8ETHVbpcjWOTfxQ8DEKW6XO4Xmfhnq457g0X3x2Q5k+mr2xSH7ljuafeBOChggeQpYh46CQ+VAIHJi/TznRCLTucp1QRQlWglcpQDGzU6NuBIEgSGQe/8YwS7B26IwBaxA97xKicjM/8DkKuiemudtHfnJfd2zatl1DQhAVS07cRqOlVci61xRrE57m5NHcxVLOCBk5p+Iub7N3IotPstv7iPuCRjxqrLTr/vKJX7HKTvnFjIbofd6fFCcK7AvogosAfN8/pyifhKE43YtYO4j4DRithSwx0VstRbZpYAdK9iWOLAbn1UMIJg1c7UoEBqcSpIZ6Nsi8dIkqyTjJ0k8Exj0idspYPncNe1B7Ng3iANhYC/bN8XArD7bSpr/nM+mzy0RD3GRgLmvMVTQIU6dIRLZKWBBn/pBj9fBna3AYBJJxIiCZCNinkd4fTQJx4HLw/YHBUEUZJqgK9CMJSmN93igPC4IArczsInsPAZkCw7ZasuLU4E9RQzMU/+SAwfm/SBwHw2H+Uh1t4kb4sXnndVo+IXuUzsmEFkLrMb2KlsoRjWwMDpTFVtTwLeBefOD2PNctWWR8Y9CEkTvzbGAb9nE3/wul4rTffF4pwUscIKVQwALDKvHLM9drxLiyFb3XQqY4JC8VjaBY8wCqISuWpgCpt8xJVm2sAuH+NwkYK7Hq8+Yu2QjZFcVsDl/z3G4aZFpTDBu1cJSwIJ71Y4FBIz/8aoam5Vt86sRMIuC2JpVvXY/mHOxp4l7nG4SMM3rBIx9CVhV7b5wFrAvgROsyBLNN2eSTpDnIOAkKxkBkxwcKUE6C7gq3K/DeyJGzDYlb0LANokmMGYlM228aWSHRzYKYPaqHM2BaGRvfSWKJHv00UfXSTI5mP22gb58hNO+0e39Gt4tAJIMp4kB/7sWrjLuocBu9lrIWswuEgmLgnNFsXrVCszcZ/zzUQIm/vloyRXfskeMdu4pBvbJ6VnABhKwZz7zmevHHMCRwGlLAZMgrW73w3QkeO3zfonufioH7y37qQzYQwQ0wZFNMJ8fCwQq7uY2bQpYyQEWAAK+FLCrBrv+Gh6X55SNGSR9IkBgLRLLRWE+HgvYTSTYjdMEbGmnGErAcLttjIb4wonnywqsreWM1RaFYpSvJ+eT06W9D4rji/wbhGTjAD++FNSRn5OQznGqLk7kUM3rnLl0atj0nvv5LAFTgSRgSxAwQaEqLNnYdtl4N4Vs8Wh+7GSzHzWyPwEL+hEsydahO9FpK70t3NO9JBpO8bncQkL24TABq/qadh0r8MlWAkHAxEXxoJlDrcURF6r7RGdbuAcf+KytfZzyT/eZnPGthXb+JGVe3wfutIBxwnSo1UaV4NsTDoD6aDlDFcaJko1DBQpH1yZ8rveWzvRacLjHUsBmXwnWakvMEoFp2zFhyYNk82clCRhMuz3ioQUBFziVcNsAF5ox8417xOnksjFVLTglYG3B6tf95ueODcWE5nkCNkUMp6ovOwZCTtyX8Xk/8IHFBZd8417ui0djNCaowBIwNh0Cd74Cm4HKEaqFkk1gL7cVHDdX+flX+bBMXv1LmomSzcrWKjnPKbLJIzEVFARMkHTtmDHnTMBUYG3LIV6aiy0OTlW2BB2n2woYuA+/EC9Jhk+POG2MaZMEYxMB2LQFO3ZYyMRE/yZcfDZH8yHeOCA8HXfg6CrgFzGqOnaPhDA0pvHwqCJUAJwF7ABAeg2qwAgYRxAMweF6TgKJVeXkj2YlW6sQYXJd83x+ruCCxMsKSQQF2RQw8LlEVVCwLUGdgdPYxwI2ac03sbAoJMDZD72WGAl65yzboPEkLOHqSxH3mpzGF+DSUUG/qTs1sFlMJGC4wl9xBzPGNi2S9wO+CJjY9HmLQzENnrtuTLwSVQtC/6+AfvWF/LRLnCuwQSohQHxnIxKOU5akc4pkERgONQXJvI/rl4kXEEBJKqgIoefLg1YfTcDm/+ziXt2vcRvnWDBtKrBVYJ533hQ/9ZMIuHT4rnK4SrXgHpIzAfP5WXHEmX6dIREAC1VbyFMC0cIpAS5GzW8KjHjCAS4SMHF7FcTp/IlLPE5OHQ3gFJ/nLeQNgmDMQ1LiMbeRwGGSjYA99thj6wDhyD5b8znvaTk8KMUlmuBQwQmsggEe7/v4N3mqBb/AJ6he6zPve0zYZJsEm9+ims9FW2FcfvrTn15zsxT0JXA0E9ai4HMWBM+7Nhv+CBb/4pN/O5c7FZiH+GJ/OwULb9vzJYo18bqtgMWX/sTvM5/5zJOqYr7Lf8bNFn7GqfcOEZ9nAfsiOAqQjXQBzQnK86WA5TiOJD7zdzGgbyKzROOAclxgCCrPJavr83PZIkBVYIJE4EJ2HCPYxfagWmC7qjYB2yQa5m+7YlHYVsAmp5KNeCVgy+vANwSVX0u2UxIw8xFr4gCPU8DmPJq7RsDEGk6vUoH5bAK2/P3XFCcLQgLm0eJQVbvvGD0L2AIln8BeigZwHifamvRtl6TTShrI0aHnPfrcJz/5yXVwSFTj1oANynBJ1pbW630HxK4w5w6Eo22bytYKHUea55ptit8u4UfyLHlcos+D7ZLzRJx67v38GSS6hck2B7dsup+AHRvn7GHzFGIt0YiP5o4LZ7V49Xwb4N0iTfz4Ik6h+8aLcbNBjPL15Bz2xeGdF7BNyYH8DnkJGIfATBYCxqGJl8bZoA/n67NMwO6h8iJgEk4/Ds7JHo0pGGblIvnYtul+x4TsSZSaT+JhLm13sl/TtzMwSeP8xXvbgj8SsHxh7JlMOE3A8MomC1T8b2rHhGxi8xQwcTK/jMgH+lpoCRhecdS1i5A/xKVFmS9Ub0sBi1e+ZAM+2RSfYT7fNe60gG1yJLI1gTH/LSvv5VjwqEKQcLYsVjdnBJx+GQoMfWelMW0paVUHkq1vQ2dgTFtgPr9pxGGchcSDgJVsrjdf/SUMcSdCDo4tDITsIvgMPgmWvpLUZ90H4kk/4Fc2SPhT2jpOxC2ITWIsVsVLcD1ucYEbvNoGdmRxGXAuRtuSi9O5QE+fGddinw3ZdgjcWQHjhIkZFB47OL9IwCABszr1b5BLpvrM+wWOT8BmpTHvPQXMlouAKdNnpbAJ07ZjBAGTbLaQVmqY87aizxW/f0kBz5sQF/hUHfgcTn12ChjUdy4K+Dx1iE18+vtd4ryE+U8B8+hLo8sWBXBdPBOvPpeAic/pM5zKFSKmog2z375w57eQF2Fud6zWEq6tpESofJY8HGw7yNl9S+N6SQMeOVOi6a+vRNv0g019VQfGfvazn70ef4rXZUGx74C5DggYQSZic+s2wX58EHiLAo6qUGsSI5FP9KoUJJ1Ei9PuB/pamCQ7bk+1ApuwsBEw4kFIQlxBAj8FKYG/CK63iFik3SO4b6/5sKqWX+c29hA4C9gGSCoJJjA4RbBz0hQwLRGz8n/84x9fO5xju64Fzzm+Mx7bHIGknC8ZCzj3FQjGfu5zn7s+W2is+lwGfbbpt2/M+UMCJtjxS0CaV/AZ70k4W2xnWgkYnohRrTnqq5/kxGcVbeizQMD8sT6fnmIF1lyajzgRp/0PQHHe/L3WlyBZFMSoVjV1EfQnXmJV3/ySv9zTGHxo3PJERQiuLf2/D5wFbAMQzxEco/oRILYcOcf1nMORymv/kkKB0Yo/+wGnCiK/qZFsEm/TWQShFJgCQrIZe97nVKFaiE9za2u8hLl28NyBPO5mUk5uLQp+eiHh9C25JySaKtqRQH8qRsC656mAvYkHiElzsjCYk0ViCnOCY2FV7VsU/CTC88uAR3zqr6/x8D0XHGNb2I1rkbU44Hnyn4/2hbOAXQCOIiStLoJEsuXAAoiziJKgIGCcrWLYlETeS+w8EjoONs4MDAEo2QTFppW1sU8Bky/zMhfzsuWRdBJuE0o2lRWhx10J5D5anKiAP/GJT6wFT+Xg/fpq+FXx8SHhVAFKtirqU+ITmjfgwVzmbqHzRYgLsCiIPVzZTl4GnKu+cMoX+I+n7sd3jbtJPKed+8JZwC4A8gW44HBAyUmbqgVO5WCVgkbEVASJ04RV0LbxU5/61PqxPiUaGFMAqk4kunElH5xaokEcsN3ccIhTwrw89AX94pSAqQIsEIQJX/EUJBYBw6mEs3gYc/IqqVQKuJRwhEyysefUOG1u8WoO5lJla1GwSIT6eWxb7i8dLKDicbnQes8WXAzjXiN8+WXyZRx+xCt+W+APyemdFbAZCJc1gfH85z9/LWKtbDmyPtPh/bZr+S2P/pLQNedltpBtNSckmzEF4txmGeciZMeyHQuW9uBR4Pe1e4hXSUXAcJWISbjldhvHLR4qC4/xPseT5Dj1hQhObc9nBXdKYHPCHDwXI4TkoYceWs814DPgRtwR+s5fJ6fFqGu4x7vnLQqui9nuaSHCKV/Ow/v6zrH3hXMFdgk4QjAICslmpVsGvddWrQ6SVQKbBEygCBjXiJzAWK5+HO5coS2WZJPgnb1twtKeYwU7s5WAEegErPdn0DuDKZEknMpWIk1INlsh12x19MfzkhMCpup6znOes+ZUsnvvtsB8+9LHHM01TE5xo1olTDizKOAw6Id31/SxIOgjlo3RfcBriysB40uc3gTOAnYBOIvA9C2P4CAsSmUHlTnTY88lk/K8b26CVcs2SEBISI8qh00VmECwoglEAQLLhOz18v1TQQLm5wzmSKAJivl4rOFVZau6wisOg2uSy/s4tYBYSPIF3+HXo/tK6r7RTbxOlT8wzxZA88ChOH3Ws561XnSbo361Floi9thjj64+9rGPrUU/qORwbBHunJZ4LRda/YxnHD6UG1PAjMWmQ/B7FrBLwBGSzaq9FLCuayEBs3pZ2XK8lc+1xEtTjc1yPBBMyZ2ALYOg14cIjn3BHIl0/3lKAgaSA79tkaaAeR7wJsHaOiZgAff5x7347nnPe97al1PAaqcC8xE3xU7zw6G5JWDxV58+VxX26KOPrT760Y+ut5QTCVj/ykpjTdh+LwVsbiEPibOA3QecRcQkgHLZtmd5qN4j53O85uxGoFjBVGPe++AHP7gWsZKrxPHac6uYcwXbR4FILLs31P+UEm4TCFSH6viUBLaSeChhPNeIloTyzZmFQeUqCYmV1zj1DfBcMOJHEvOVxMapRWEmt36nxuWMB8h+nIpRcWOuvmnFcWI9gTvx+cgjj6zFP2HrjAzXcQrGmOPylUXWOJrqtkVdX/weitezgN0HrTatbpLNWVgOnY6dAmYbqUJwbkPAVAof+tCH1gHTZwqMBMw4mwRMKyAOFRj7RAJmy0PAOguDRCwxwqnqyxcfOCVoONVnChiOvQc40iQvAZPYCZhkk2DTb6eGaXtzxakYbZElMJsEzNzxRMA+8pGPPEnA8JqA+a2i14l9MFYCporGq3HkSXbpcyicBewCcMJcSThNAmhEpsBIXDSBwOkOQSWcQOiwlKh15jAdXVPlWTUFn0eVQmW56/Px1GEeuCUuFoQXvvCF6+QL+IkjiUW0VK6SSjXWnxh5nH/CNXlyf/zh0tkXsfRaop0yzG22iXYLxOUFL3jBeu6ELT5qKjC7A3zOJkZximsLh4osPwT3siD4Zt44Ft1QLhwSZwG7ADk9SDbi5RtJZ1MELGd57LXKQXA4X9AEA9ESIAStQ9MCwxg+SyCrvGytrGq2lHOM2waC4i8NXvziF68FJsykwafqCm+qWItAFa7Kq8Nm/XAZT55LZpxKNgKZj9x/mZinAvabW23GhedEjHDhlMAQsPo2fwLmfItY4dIiIDYtujjFtTNa/eIqvnwelwmke0IV88QhOH7q//sivvT8jEvAGYLAGQynK705ra+YtRzWqud65w3vete71mcOfauzDD7B9pKXvGT1yle+cv0o8fSB2e82AV+4UD2VSOZaNdX89cMpQXJNdaDqeve7373eQqrS6jthu/jwww+vXve6160P8HHqvrOdIpa2z+e4Ij54tXjaftsVTOgjLvXpW2ALLPFyzGGRmF+YNB4fOD7B55ve9Kb1Ym7h8X6xP22B5etd4yxgW0KCcJRqYJ5vCRbIgcEBqEQjdFa3zhv0S7y0PqcSERgSTqV30U8obhPMraqgbxoJVIfHXQOPhArvKgd957do9ZOUOPVackk0zXkNTnEf/6cOc9CW4oFD1TtRIka+oY2X0GsNpxYPnNqii9MWBQ34ol/84/Otb33rmlM7kxnP2QDz+b7w5cvWGRuhNOcsSeFMxbakA+HpKAFB5JzRCIb3vOc9q/e+971r0ZvJBV67r8BwX8JlC9mBNsygu20wd1tlWxECvvyXNyaImkN7CfmBD3xgzWuchhJSsuEQp84UcdqCcNshtpzR9uWIqpPo4LpYKgZxh1N8qrw+/OEPr3cLLSATOBXvuOQr9+4oBdxv5sGhcBawK6DgIF4ve9nL1gnS+1PIrIBK9H406EyhMr4kEzwa8RJkynEJ7LnV0zX3qd9tQzy0shPv17zmNevEkGzQ3PWrMrO1UTHgtMpicsQHxMu3cb4ccD8JjNPGvG0w52LPo7laGAjNK17xinVs4WQuDH3GkYadQi3xcg1X8Wqb6QsXOwT3tZh7r3FvCmcBuyIEgmTrnMprATODg9MJWAknMJTkYSaSQHM/4iUwVCACI/G6jQnX/DW8dZj/6le/er3CS44qhubvUbKpbp1D4tSiUJ/6EUSLDD6nj/q2bPa9jSAo5mpRIDgEzIKLE5wmTB41cYrTWnE6hYmPnD/ykTNa9+UzXM9+N4GzgN0HnD2FRBD0g0Hf9Lz85S9fb4Em+kwitETvcb7D+1e96lXrZOuMpqDw/BiCZNcwnxrglNDg8kUvetETh8Ot8Mv+HnEzG+DKZ3xWhYzXfNNngX/y520EPpzX4rTYUokmYs198rpsoB9OOzrxRQhBjNN5n5vCWcC2AEcRHU0A2JIQMMmmpHaYWRKFZYJw8uwjMFRuAkuQEUMBpk9BNJ/fVuAJp5LipS996ZpTFYPXVba1ECeTI3Cffk/nXqoFP0kJt5nHTRCXOMCF6kncbqpEJ5+hazgVl+5FwCwMcbppcT40zt9CXoLp4KWY5DyltG8i+4Zx+ZV1n9G6HzijUXG88Y1vXH3f933fE+cKhG0TGvc2AA+bGtjGEC5bG+eH+Ixr3PBD/b3fI6g4LCj4bDvqXpIQpi9uE5+XAV+OMuKpIw2I84m4BZ8lVq997WtXb37zm9cLreMO1V2+uGkezxXYBciJm4Ldayu9Q+If+IEfWK9wnbXMvhxcm9DHOUKJpuJoyzTHhZL0tsGczK3WHJ1d/dAP/dCaF5WUs5xE3SMxwk2fmdxINj9Fef3rX78WL/6Yv1HahO5xWZ9Tg7ngR9wRcIvj93//9695UUm1NZ+8h8kFvh2XELC3ve1t6zi1YCdgM9ZvCucK7ALknE1Omtc40lmX6omoQSt+0E8gObBXeRE8v6VRfRFB52Cu17e26fVtwpyb1oouwXDqMRHqmvdLMpzhHafOZvApUXFKzIjfvP8Sy+Td1OcU0Tx6NM+EH4/ilBCB1zh1TfO+OLUA2H7i00LriMMZrc/W9xhwFrBLcJmTuiYAOFblIEh8iyMgbH08Fzz6SCZ/giEo+nHlG97whnXlJmhK0IvabcKm+dUsCAkTbiRTfGp+OoFTfZ3NqBBsbfywkoDZQqpu247H6zbYtt8poLngCg9iTAz6LZeG036GYtuOJw3f4tRZF07f8pa3PPFtrnscS+UVnvLFCd6e2vmAQJsmEDRnNn4Q+L73vW/9A1a/gvZ7pX5XI9kEhpVMQPS7r8r5M54MSeVsEZd49Xd6OO1X4hKPeGn4lHAqsX4djtPaRViG/m30w5wjwfL7OTz6Eyx/HeLPjTq/1Rz0O86wXVTVilEci9/4OSaezgJ2DeR0TUL1Y0BBonkuaECVJjiImICQZJ3v3MbEuS5aFIgYHh3oSzSP/T0pHvFZVWF7o3pruzTbXYXYbP5Vsjj1x9z9IFjDp1aM4lPM2sKrvGzjYd7vGHAWsB0hGjlX1SVIVBFVYAKBYKm4CgbQX+l+xpOBz8kp0fINGl7bpkswjWBZCEASwtyS32XgcHLgNY48WiD8KFhLwMSpaqudgTbjc3m/m8ZZwHaESaNAqILQgGh1uF8QzCQ7pqA4BpRQgBuc4XQ2lcH88kP//BC3dx3xERdea/Gr4bJrFgJxOvnzqC3vdQw4C9iOMGm8zMGChagVIFPEzriHkguv8aRdBn3zw/363gVcltpxu+kIwzW4KCaPKVbPArYjTBqng72vzYRqxYOS84x7iLM4xVEtuDZfn/E44ixcxNFcHJbcnhLOArYDTAqXgZBYdUYzIYhOOXj2gcvCMZ700S4T/vrcJX43cXfR3OOnhsttF9I5zk1ze176d4CcuMmZguIiJ9+0848R23J1P+5cr90VXIWjyc9lMXrsOFdgZ5xxxpVwrsDOOOOMk0WidQxV21nAzjjjjCvjWLacZwE744wzThZnATvjjDNOFmcBO+OMM04WZwE744wzThZnATvjjDNOFKvV/wc2tQ1z04usRQAAAABJRU5ErkJggg==;" vertex="1" parent="1">
          <mxGeometry x="554.0400000000001" y="663" width="61.92" height="33" as="geometry" />
        </mxCell>
        <mxCell id="_9ytcTvXh2DqXDjizTvg-60" style="edgeStyle=orthogonalEdgeStyle;rounded=0;orthogonalLoop=1;jettySize=auto;html=1;exitX=0.5;exitY=1;exitDx=0;exitDy=0;entryX=0.5;entryY=0;entryDx=0;entryDy=0;" edge="1" parent="1" source="_9ytcTvXh2DqXDjizTvg-59" target="_9ytcTvXh2DqXDjizTvg-19">
          <mxGeometry relative="1" as="geometry">
            <Array as="points">
              <mxPoint x="338" y="690" />
              <mxPoint x="294" y="690" />
            </Array>
          </mxGeometry>
        </mxCell>
        <mxCell id="_9ytcTvXh2DqXDjizTvg-59" value="Training Set: {Input, Target}" style="rounded=1;whiteSpace=wrap;html=1;" vertex="1" parent="1">
          <mxGeometry x="258.13" y="647" width="158.75" height="30" as="geometry" />
        </mxCell>
      </root>
    </mxGraphModel>
  </diagram>
</mxfile>
